<?xml version="1.0" encoding="utf-8"?>
<!-- Generator: Adobe Illustrator 27.5.0, SVG Export Plug-In . SVG Version: 6.00 Build 0)  -->
<svg version="1.1" xmlns="http://www.w3.org/2000/svg" xmlns:xlink="http://www.w3.org/1999/xlink" x="0px" y="0px"
	 viewBox="0 0 500 500" style="enable-background:new 0 0 500 500;" xml:space="preserve">
<g id="Background_Complete">
	<g>
		<rect y="382.398" style="fill:#EBEBEB;" width="500" height="0.25"/>
		<rect x="416.779" y="398.494" style="fill:#EBEBEB;" width="33.122" height="0.25"/>
		<rect x="322.527" y="401.208" style="fill:#EBEBEB;" width="8.693" height="0.25"/>
		<rect x="396.586" y="389.208" style="fill:#EBEBEB;" width="19.192" height="0.25"/>
		<rect x="52.459" y="390.888" style="fill:#EBEBEB;" width="43.193" height="0.25"/>
		<rect x="104.556" y="390.888" style="fill:#EBEBEB;" width="6.333" height="0.25"/>
		<rect x="131.471" y="395.111" style="fill:#EBEBEB;" width="93.676" height="0.25"/>
		<path style="fill:#EBEBEB;" d="M237.014,337.8H43.915c-3.147,0-5.708-2.561-5.708-5.708V60.66c0-3.147,2.561-5.708,5.708-5.708
			h193.099c3.146,0,5.707,2.561,5.707,5.708v271.432C242.721,335.239,240.16,337.8,237.014,337.8z M43.915,55.203
			c-3.01,0-5.458,2.448-5.458,5.458v271.432c0,3.01,2.448,5.458,5.458,5.458h193.099c3.009,0,5.457-2.448,5.457-5.458V60.66
			c0-3.009-2.448-5.458-5.457-5.458H43.915z"/>
		<path style="fill:#EBEBEB;" d="M453.31,337.8H260.212c-3.147,0-5.707-2.561-5.707-5.708V60.66c0-3.147,2.561-5.708,5.707-5.708
			H453.31c3.148,0,5.708,2.561,5.708,5.708v271.432C459.019,335.239,456.458,337.8,453.31,337.8z M260.212,55.203
			c-3.009,0-5.457,2.448-5.457,5.458v271.432c0,3.01,2.448,5.458,5.457,5.458H453.31c3.01,0,5.458-2.448,5.458-5.458V60.66
			c0-3.009-2.448-5.458-5.458-5.458H260.212z"/>
	</g>
	<g>
		<g>
			
				<rect x="182.068" y="82.921" transform="matrix(-1 -1.224647e-16 1.224647e-16 -1 459.3134 380.2536)" style="fill:#EBEBEB;" width="95.178" height="214.412"/>
			
				<rect x="126.472" y="146.129" transform="matrix(-1.836970e-16 1 -1 -1.836970e-16 419.7837 -39.5299)" style="fill:#FAFAFA;" width="206.369" height="87.997"/>
			
				<rect x="228.645" y="85.909" transform="matrix(-1 -1.224647e-16 1.224647e-16 -1 459.3136 381.2312)" style="fill:#F5F5F5;" width="2.023" height="209.413"/>
			
				<rect x="179.871" y="80.13" transform="matrix(-1 -1.224647e-16 1.224647e-16 -1 459.3136 170.3514)" style="fill:#E0E0E0;" width="99.571" height="10.091"/>
			<g>
				
					<rect x="179.871" y="91.339" transform="matrix(-1 -1.224647e-16 1.224647e-16 -1 459.3136 183.8737)" style="fill:#F5F5F5;" width="99.571" height="1.196"/>
				
					<rect x="179.871" y="94.053" transform="matrix(-1 -1.224647e-16 1.224647e-16 -1 459.3136 189.3028)" style="fill:#F5F5F5;" width="99.571" height="1.196"/>
				
					<rect x="179.871" y="96.768" transform="matrix(-1 -1.224647e-16 1.224647e-16 -1 459.3136 194.7318)" style="fill:#F5F5F5;" width="99.571" height="1.196"/>
				
					<rect x="179.871" y="99.482" transform="matrix(-1 -1.224647e-16 1.224647e-16 -1 459.3136 200.1608)" style="fill:#F5F5F5;" width="99.571" height="1.196"/>
				
					<rect x="179.871" y="102.197" transform="matrix(-1 -1.224647e-16 1.224647e-16 -1 459.3136 205.5897)" style="fill:#F5F5F5;" width="99.571" height="1.196"/>
				
					<rect x="179.871" y="104.911" transform="matrix(-1 -1.224647e-16 1.224647e-16 -1 459.3136 211.0187)" style="fill:#F5F5F5;" width="99.571" height="1.196"/>
				
					<rect x="179.871" y="107.626" transform="matrix(-1 -1.224647e-16 1.224647e-16 -1 459.3136 216.4479)" style="fill:#F5F5F5;" width="99.571" height="1.196"/>
				
					<rect x="179.871" y="110.34" transform="matrix(-1 -1.224647e-16 1.224647e-16 -1 459.3136 221.8769)" style="fill:#F5F5F5;" width="99.571" height="1.196"/>
				
					<rect x="179.871" y="113.055" transform="matrix(-1 -1.224647e-16 1.224647e-16 -1 459.3136 227.3059)" style="fill:#F5F5F5;" width="99.571" height="1.196"/>
				
					<rect x="179.871" y="115.77" transform="matrix(-1 -1.224647e-16 1.224647e-16 -1 459.3136 232.7349)" style="fill:#F5F5F5;" width="99.571" height="1.196"/>
				
					<rect x="179.871" y="118.484" transform="matrix(-1 -1.224647e-16 1.224647e-16 -1 459.3136 238.1639)" style="fill:#F5F5F5;" width="99.571" height="1.196"/>
				
					<rect x="179.871" y="121.199" transform="matrix(-1 -1.224647e-16 1.224647e-16 -1 459.3136 243.5929)" style="fill:#F5F5F5;" width="99.571" height="1.196"/>
				
					<rect x="179.871" y="123.913" transform="matrix(-1 -1.224647e-16 1.224647e-16 -1 459.3136 249.0219)" style="fill:#F5F5F5;" width="99.571" height="1.196"/>
				
					<rect x="179.871" y="126.628" transform="matrix(-1 -1.224647e-16 1.224647e-16 -1 459.3136 254.451)" style="fill:#F5F5F5;" width="99.571" height="1.196"/>
				
					<rect x="179.871" y="129.342" transform="matrix(-1 -1.224647e-16 1.224647e-16 -1 459.3136 259.8799)" style="fill:#F5F5F5;" width="99.571" height="1.196"/>
				
					<rect x="179.871" y="132.057" transform="matrix(-1 -1.224647e-16 1.224647e-16 -1 459.3136 265.309)" style="fill:#F5F5F5;" width="99.571" height="1.196"/>
				
					<rect x="179.871" y="134.771" transform="matrix(-1 -1.224647e-16 1.224647e-16 -1 459.3136 270.7381)" style="fill:#F5F5F5;" width="99.571" height="1.196"/>
				
					<rect x="179.871" y="137.486" transform="matrix(-1 -1.224647e-16 1.224647e-16 -1 459.3136 276.1671)" style="fill:#F5F5F5;" width="99.571" height="1.196"/>
			</g>
		</g>
		<g>
			
				<rect x="69.384" y="82.921" transform="matrix(-1 -1.224647e-16 1.224647e-16 -1 233.946 380.2536)" style="fill:#EBEBEB;" width="95.178" height="214.412"/>
			
				<rect x="13.788" y="146.129" transform="matrix(-1.836970e-16 1 -1 -1.836970e-16 307.0999 73.1539)" style="fill:#FAFAFA;" width="206.369" height="87.997"/>
			
				<rect x="115.962" y="85.909" transform="matrix(-1 -1.224647e-16 1.224647e-16 -1 233.946 381.2312)" style="fill:#F5F5F5;" width="2.023" height="209.413"/>
			
				<rect x="67.188" y="80.13" transform="matrix(-1 -1.224647e-16 1.224647e-16 -1 233.946 170.3514)" style="fill:#E0E0E0;" width="99.571" height="10.091"/>
			<g>
				
					<rect x="67.188" y="91.339" transform="matrix(-1 -1.224647e-16 1.224647e-16 -1 233.946 183.8737)" style="fill:#F5F5F5;" width="99.571" height="1.196"/>
				
					<rect x="67.188" y="94.053" transform="matrix(-1 -1.224647e-16 1.224647e-16 -1 233.946 189.3028)" style="fill:#F5F5F5;" width="99.571" height="1.196"/>
				
					<rect x="67.188" y="96.768" transform="matrix(-1 -1.224647e-16 1.224647e-16 -1 233.946 194.7318)" style="fill:#F5F5F5;" width="99.571" height="1.196"/>
				
					<rect x="67.188" y="99.482" transform="matrix(-1 -1.224647e-16 1.224647e-16 -1 233.946 200.1608)" style="fill:#F5F5F5;" width="99.571" height="1.196"/>
				
					<rect x="67.188" y="102.197" transform="matrix(-1 -1.224647e-16 1.224647e-16 -1 233.946 205.5897)" style="fill:#F5F5F5;" width="99.571" height="1.196"/>
				
					<rect x="67.188" y="104.911" transform="matrix(-1 -1.224647e-16 1.224647e-16 -1 233.946 211.0187)" style="fill:#F5F5F5;" width="99.571" height="1.196"/>
				
					<rect x="67.188" y="107.626" transform="matrix(-1 -1.224647e-16 1.224647e-16 -1 233.946 216.4479)" style="fill:#F5F5F5;" width="99.571" height="1.196"/>
				
					<rect x="67.188" y="110.34" transform="matrix(-1 -1.224647e-16 1.224647e-16 -1 233.946 221.8769)" style="fill:#F5F5F5;" width="99.571" height="1.196"/>
				
					<rect x="67.188" y="113.055" transform="matrix(-1 -1.224647e-16 1.224647e-16 -1 233.946 227.3059)" style="fill:#F5F5F5;" width="99.571" height="1.196"/>
				
					<rect x="67.188" y="115.77" transform="matrix(-1 -1.224647e-16 1.224647e-16 -1 233.946 232.7349)" style="fill:#F5F5F5;" width="99.571" height="1.196"/>
				
					<rect x="67.188" y="118.484" transform="matrix(-1 -1.224647e-16 1.224647e-16 -1 233.946 238.1639)" style="fill:#F5F5F5;" width="99.571" height="1.196"/>
				
					<rect x="67.188" y="121.199" transform="matrix(-1 -1.224647e-16 1.224647e-16 -1 233.946 243.5929)" style="fill:#F5F5F5;" width="99.571" height="1.196"/>
				
					<rect x="67.188" y="123.913" transform="matrix(-1 -1.224647e-16 1.224647e-16 -1 233.946 249.0219)" style="fill:#F5F5F5;" width="99.571" height="1.196"/>
				
					<rect x="67.188" y="126.628" transform="matrix(-1 -1.224647e-16 1.224647e-16 -1 233.946 254.451)" style="fill:#F5F5F5;" width="99.571" height="1.196"/>
				
					<rect x="67.188" y="129.342" transform="matrix(-1 -1.224647e-16 1.224647e-16 -1 233.946 259.8799)" style="fill:#F5F5F5;" width="99.571" height="1.196"/>
				
					<rect x="67.188" y="132.057" transform="matrix(-1 -1.224647e-16 1.224647e-16 -1 233.946 265.309)" style="fill:#F5F5F5;" width="99.571" height="1.196"/>
				
					<rect x="67.188" y="134.771" transform="matrix(-1 -1.224647e-16 1.224647e-16 -1 233.946 270.7381)" style="fill:#F5F5F5;" width="99.571" height="1.196"/>
				
					<rect x="67.188" y="137.486" transform="matrix(-1 -1.224647e-16 1.224647e-16 -1 233.946 276.1671)" style="fill:#F5F5F5;" width="99.571" height="1.196"/>
			</g>
		</g>
		<g>
			
				<rect x="326.397" y="67.538" transform="matrix(-1.836970e-16 1 -1 -1.836970e-16 500.35 -245.5099)" style="fill:#E0E0E0;" width="93.066" height="119.765"/>
			<rect x="314.708" y="82.547" style="fill:#EBEBEB;" width="116.445" height="89.746"/>
			
				<line style="fill:none;stroke:#E0E0E0;stroke-width:1.0351;stroke-miterlimit:10;" x1="374.884" y1="98.759" x2="374.884" y2="111.274"/>
			<polyline style="fill:none;stroke:#E0E0E0;stroke-width:1.0351;stroke-miterlimit:10;" points="403.343,151.563 403.343,111.274 
				350.518,111.274 350.518,134.385 			"/>
			<polyline style="fill:none;stroke:#E0E0E0;stroke-width:1.0351;stroke-miterlimit:10;" points="364.186,146.685 364.186,134.385 
				335.146,134.385 335.146,147.115 			"/>
			
				<rect x="361.526" y="94.16" transform="matrix(-1 -1.224647e-16 1.224647e-16 -1 749.7674 197.5174)" style="fill:#F5F5F5;" width="26.714" height="9.197"/>
			
				<rect x="337.394" y="116.226" transform="matrix(-1 -1.224647e-16 1.224647e-16 -1 700.2491 242.443)" style="fill:#F5F5F5;" width="25.462" height="9.99"/>
			
				<rect x="355.441" y="141.532" transform="matrix(-1 -1.224647e-16 1.224647e-16 -1 728.3715 293.3706)" style="fill:#F5F5F5;" width="17.489" height="10.306"/>
			
				<rect x="325.782" y="143.201" transform="matrix(-1 -1.224647e-16 1.224647e-16 -1 670.2926 294.2297)" style="fill:#F5F5F5;" width="18.728" height="7.828"/>
			
				<rect x="386.705" y="118.341" transform="matrix(-1 -1.224647e-16 1.224647e-16 -1 802.3368 250.03)" style="fill:#F5F5F5;" width="28.927" height="13.347"/>
			
				<rect x="394.106" y="146.685" transform="matrix(-1 -1.224647e-16 1.224647e-16 -1 806.6852 303.1254)" style="fill:#F5F5F5;" width="18.474" height="9.755"/>
			
				<rect x="372.063" y="108.778" transform="matrix(-0.7071 0.7071 -0.7071 -0.7071 718.8809 -74.568)" style="fill:#F5F5F5;" width="5.641" height="5.641"/>
			
				<rect x="347.698" y="131.564" transform="matrix(-0.7071 0.7071 -0.7071 -0.7071 693.3969 -18.4445)" style="fill:#F5F5F5;" width="5.641" height="5.641"/>
		</g>
		<g>
			<g>
				<g>
					<path style="fill:#E0E0E0;" d="M376.831,332.316c0.013-0.409,1.391-41.069,8.005-47.501c6.433-6.253,13.816-0.233,14.126,0.026
						l0.663-0.795c-0.083-0.071-8.415-6.872-15.511,0.026c-6.911,6.72-8.263,46.519-8.317,48.21L376.831,332.316z"/>
				</g>
				<g>
					<path style="fill:#E0E0E0;" d="M376.264,340.307c0.047-0.486,4.52-48.813-13.129-69.067l-0.78,0.679
						c17.356,19.919,12.925,67.806,12.879,68.287L376.264,340.307z"/>
				</g>
				<g>
					<path style="fill:#E0E0E0;" d="M376.916,335.195l1.033-0.069c-0.036-0.548-3.454-54.94,9.492-66.848l-0.701-0.762
						C373.432,279.758,376.767,332.937,376.916,335.195z"/>
				</g>
				<g>
					<path style="fill:#E0E0E0;" d="M375.231,335.164l1.035-0.008c-0.013-1.498-0.427-36.74-10.438-42.477
						c-2.225-1.277-4.404-1.489-6.477-0.632c-6.053,2.504-9.053,13.277-9.178,13.734l0.999,0.273
						c0.029-0.107,2.991-10.741,8.576-13.05c1.761-0.727,3.633-0.535,5.566,0.573C374.813,299.021,375.228,334.804,375.231,335.164z
						"/>
				</g>
				<g>
					<path style="fill:#E0E0E0;" d="M379.129,335.19l1.033-0.059c-0.016-0.278-1.51-27.849,5.931-37.564
						c1.803-2.353,3.76-3.475,5.828-3.331c4.875,0.341,8.964,7.475,9.004,7.547l0.902-0.509c-0.177-0.313-4.401-7.69-9.832-8.07
						c-2.43-0.173-4.694,1.086-6.723,3.734C377.597,306.957,379.063,334.043,379.129,335.19z"/>
				</g>
				<g>
					<path style="fill:#E0E0E0;" d="M377.498,338.94c0.203-2.675,4.864-65.629-3.338-76.723l-0.832,0.615
						c7.975,10.787,3.187,75.378,3.138,76.029L377.498,338.94z"/>
				</g>
			</g>
			<g>
				<path style="fill:#EBEBEB;" d="M357.121,298.428c0,0,4.921,1.814,3.458,6.096c-1.463,4.283-17.022,11.331-17.022,11.331
					s-6.516-5.973-0.532-15.687C349.008,290.455,356.988,295.364,357.121,298.428z"/>
			</g>
			<g>
				<path style="fill:#EBEBEB;" d="M378.511,290.276c0,0-5.24-0.219-5.537,4.296c-0.298,4.516,11.351,17.009,11.351,17.009
					s8.313-3.005,6.527-14.274C389.067,286.039,379.814,287.499,378.511,290.276z"/>
			</g>
			<g>
				<path style="fill:#EBEBEB;" d="M382.948,268.66c0,0-3.493-0.375-3.212-2.503c0.281-2.128,13.58-7.604,21.426,1.251
					c0,0-5.024,8.63-12.287,8.743C381.612,276.264,382.948,268.66,382.948,268.66z"/>
			</g>
			<g>
				<path style="fill:#EBEBEB;" d="M376.438,263.493c0,0,3.163,1.529,4.05-0.425c0.887-1.955-7.503-13.636-18.846-10.27
					c0,0-0.301,9.982,5.803,13.918C373.549,270.652,376.438,263.493,376.438,263.493z"/>
			</g>
			<g>
				<path style="fill:#EBEBEB;" d="M392.978,296.707c0,0-2.411-1.947,0.191-2.897c2.602-0.95,15.369-0.68,15.502,11.966
					c0,0-14.869,2.471-16.71-2.346C390.12,298.613,392.978,296.707,392.978,296.707z"/>
			</g>
			<g>
				<path style="fill:#EBEBEB;" d="M362.657,268.343c0,0,2.411-1.947-0.191-2.897c-2.602-0.95-15.369-0.68-15.502,11.966
					c0,0,14.869,2.471,16.71-2.346C365.514,270.249,362.657,268.343,362.657,268.343z"/>
			</g>
			<g>
				<path style="fill:#EBEBEB;" d="M370.517,278.53c0,0,0.212-2.366-1.698-1.439c-1.91,0.928-8.566,8.108-1.667,14.921
					c0,0,9.287-6.878,7.613-10.46C373.091,277.971,370.517,278.53,370.517,278.53z"/>
			</g>
			<g>
				<path style="fill:#EBEBEB;" d="M395.133,281.902c0,0-1.441-1.889,0.669-2.123c2.111-0.234,11.57,2.291,9.367,11.734
					c0,0-11.524-0.866-12.018-4.789C392.658,282.802,395.133,281.902,395.133,281.902z"/>
			</g>
			<polygon style="fill:#F0F0F0;" points="356.201,370.216 395.741,370.216 400.006,326.926 351.935,326.926 			"/>
			
				<rect x="349.824" y="322.149" transform="matrix(-1 -1.224647e-16 1.224647e-16 -1 751.9415 653.8514)" style="fill:#E6E6E6;" width="52.293" height="9.553"/>
		</g>
	</g>
</g>
<g id="Background_Simple" style="display:none;">
	<g style="display:inline;">
		<path style="fill:#407BFF;" d="M87.504,113.132c27.919-59.449,127.059-51.062,165.317-9.255
			c38.258,41.806,50.696,68.599,85.208,52.983c34.512-15.616,78.518-11.44,81.042,38.164s-37.913,108.263-102.09,125.615
			c-64.177,17.352-64.161,78.759-149.1,66.368c-46.31-6.756-47.365-56.86-40.825-98.301S55.126,182.076,87.504,113.132z"/>
		<path style="opacity:0.9;fill:#FFFFFF;" d="M87.504,113.132c27.919-59.449,127.059-51.062,165.317-9.255
			c38.258,41.806,50.696,68.599,85.208,52.983c34.512-15.616,78.518-11.44,81.042,38.164s-37.913,108.263-102.09,125.615
			c-64.177,17.352-64.161,78.759-149.1,66.368c-46.31-6.756-47.365-56.86-40.825-98.301S55.126,182.076,87.504,113.132z"/>
	</g>
</g>
<g id="Shadow_1_">
	<ellipse id="_x3C_Path_x3E__359_" style="fill:#F5F5F5;" cx="250" cy="416.238" rx="193.889" ry="11.323"/>
</g>
<g id="Icon_2">
	<g>
		
			<ellipse transform="matrix(0.7071 -0.7071 0.7071 0.7071 4.0561 295.8035)" style="fill:#407BFF;" cx="359.095" cy="143.006" rx="29.486" ry="29.486"/>
		
			<ellipse transform="matrix(0.7071 -0.7071 0.7071 0.7071 4.0561 295.8035)" style="opacity:0.5;fill:#FFFFFF;" cx="359.095" cy="143.006" rx="29.486" ry="29.486"/>
		<g>
			<polygon style="fill:#263238;" points="374.455,122.054 374.455,157.754 368.24,163.957 343.734,163.957 343.734,122.054 			"/>
			<polygon style="opacity:0.9;fill:#FFFFFF;" points="374.455,122.054 374.455,157.754 368.24,163.957 343.734,163.957 
				343.734,122.054 			"/>
			<polygon style="opacity:0.2;enable-background:new    ;" points="374.455,157.754 368.24,163.957 368.24,157.754 			"/>
			<g style="opacity:0.2;enable-background:new    ;">
				<g>
					<rect x="350.967" y="126.895" width="19.786" height="1.177"/>
				</g>
				<g>
					<rect x="347.436" y="129.843" width="23.317" height="1.177"/>
				</g>
				<g>
					<rect x="347.436" y="132.793" width="23.317" height="1.177"/>
				</g>
				<g>
					<rect x="347.436" y="135.742" width="8.015" height="1.177"/>
				</g>
				<g>
					<rect x="350.967" y="138.691" width="19.786" height="1.177"/>
				</g>
				<g>
					<rect x="347.436" y="141.639" width="23.317" height="1.177"/>
				</g>
				<g>
					<rect x="347.436" y="144.589" width="23.317" height="1.177"/>
				</g>
				<g>
					<rect x="347.436" y="147.538" width="23.317" height="1.177"/>
				</g>
				<g>
					<rect x="347.436" y="150.487" width="23.317" height="1.177"/>
				</g>
				<g>
					<rect x="347.436" y="153.436" width="15.078" height="1.177"/>
				</g>
			</g>
		</g>
		<g>
			
				<path style="fill:none;stroke:#407BFF;stroke-width:1.0415;stroke-miterlimit:10;stroke-dasharray:12.8834,5.3681,2.1472,12.8834,5.3681,2.1472;" d="
				M375.332,114.882c15.532,8.967,20.854,28.828,11.886,44.36c-8.967,15.532-28.828,20.854-44.361,11.886
				c-15.532-8.967-20.854-28.828-11.886-44.36C339.939,111.236,359.8,105.915,375.332,114.882z"/>
		</g>
		<polyline style="fill:none;stroke:#407BFF;stroke-width:1.0415;stroke-miterlimit:10;" points="358.43,175.477 358.43,183.008 
			333.319,208.12 		"/>
		<path style="fill:none;stroke:#407BFF;stroke-width:1.0415;stroke-miterlimit:10;" d="M333.319,211.046
			c-0.808,0.808-2.118,0.808-2.926,0c-0.808-0.808-0.808-2.118,0-2.926c0.808-0.808,2.118-0.808,2.926,0
			C334.127,208.928,334.127,210.238,333.319,211.046z"/>
	</g>
</g>
<g id="Icon_1">
	<g>
		
			<ellipse transform="matrix(0.7071 -0.7071 0.7071 0.7071 -21.2424 144.2841)" style="fill:#407BFF;" cx="163.545" cy="97.784" rx="29.486" ry="29.486"/>
		
			<ellipse transform="matrix(0.7071 -0.7071 0.7071 0.7071 -21.2424 144.2841)" style="opacity:0.5;fill:#FFFFFF;" cx="163.545" cy="97.784" rx="29.486" ry="29.486"/>
		<g>
			
				<path style="fill:none;stroke:#407BFF;stroke-width:1.0415;stroke-miterlimit:10;stroke-dasharray:12.8834,5.3681,2.1472,12.8834,5.3681,2.1472;" d="
				M179.782,69.66c15.532,8.967,20.854,28.828,11.886,44.36c-8.967,15.532-28.828,20.854-44.36,11.886
				c-15.532-8.968-20.854-28.828-11.887-44.361C144.389,66.015,164.25,60.693,179.782,69.66z"/>
		</g>
		<path style="fill:none;stroke:#407BFF;stroke-width:1.0415;stroke-miterlimit:10;" d="M165.008,145.971
			c-0.808,0.808-2.118,0.808-2.927,0c-0.808-0.808-0.808-2.118,0-2.926c0.808-0.808,2.118-0.808,2.927,0
			C165.816,143.852,165.816,145.163,165.008,145.971z"/>
		
			<line style="fill:none;stroke:#407BFF;stroke-width:1.0415;stroke-miterlimit:10;" x1="163.545" y1="142.438" x2="163.545" y2="130.216"/>
		<g>
			<g>
				<path style="opacity:0.9;fill:#FFFFFF;" d="M170.902,111.564c0,3.905-3.166,7.072-7.071,7.072c-3.551,0-6.478-2.604-6.989-5.999
					c-0.062-0.344-0.094-0.708-0.094-1.073c0-3.895,3.124-7.04,7.009-7.082h0.073C167.736,104.482,170.902,107.648,170.902,111.564z
					"/>
				<path style="opacity:0.1;enable-background:new    ;" d="M170.104,111.56c0,3.467-2.811,6.278-6.278,6.278
					c-3.467,0-6.279-2.811-6.279-6.278c0-3.467,2.811-6.278,6.279-6.278C167.293,105.281,170.104,108.092,170.104,111.56z"/>
				
					<text transform="matrix(1 0 0 1 161.5654 113.6953)" style="fill:#FFFFFF; font-family:'Montserrat-Medium'; font-size:7.2782px;">$</text>
			</g>
			<path style="opacity:0.1;enable-background:new    ;" d="M163.758,104.482c-0.063,0.594-0.177,1.166-0.354,1.729
				c-0.958,3.093-3.437,5.53-6.562,6.426c-0.062-0.344-0.094-0.708-0.094-1.073C156.748,107.669,159.873,104.524,163.758,104.482z"
				/>
			<g>
				<path style="opacity:0.9;fill:#FFFFFF;" d="M163.831,100.941c0,0.989-0.146,1.948-0.427,2.854
					c-1.219,3.937-4.895,6.811-9.238,6.811c-5.342,0-9.665-4.333-9.665-9.665c0-5.332,4.322-9.665,9.665-9.665
					c1.229,0,2.396,0.229,3.479,0.646C161.258,93.317,163.831,96.838,163.831,100.941z"/>
				<path style="opacity:0.1;enable-background:new    ;" d="M162.734,100.941c0,4.733-3.837,8.571-8.571,8.571
					c-4.733,0-8.57-3.837-8.57-8.571c0-4.733,3.837-8.57,8.57-8.57C158.897,92.37,162.734,96.207,162.734,100.941z"/>
				
					<text transform="matrix(1 0 0 1 151.0786 103.856)" style="fill:#FFFFFF; font-family:'Montserrat-Medium'; font-size:9.9353px;">$</text>
			</g>
			<path style="opacity:0.1;enable-background:new    ;" d="M163.831,100.941c0,0.989-0.146,1.948-0.427,2.854
				c-3.51-2.125-5.853-5.989-5.853-10.394c0-0.5,0.031-0.989,0.094-1.479C161.258,93.317,163.831,96.838,163.831,100.941z"/>
			<g>
				<path style="opacity:0.9;fill:#FFFFFF;" d="M182.459,91.203c0,6.713-5.442,12.154-12.154,12.154
					c-6.713,0-12.154-5.442-12.154-12.154c0-6.713,5.442-12.155,12.154-12.155C177.017,79.049,182.459,84.49,182.459,91.203z"/>
				<path style="opacity:0.1;enable-background:new    ;" d="M181.085,91.203c0,5.954-4.827,10.781-10.781,10.781
					c-5.954,0-10.781-4.827-10.781-10.781c0-5.954,4.827-10.781,10.781-10.781C176.258,80.422,181.085,85.249,181.085,91.203z"/>
				
					<text transform="matrix(1 0 0 1 166.4238 94.8706)" style="fill:#FFFFFF; font-family:'Montserrat-Medium'; font-size:12.4977px;">$</text>
			</g>
		</g>
	</g>
</g>
<g id="Furniture">
	<g>
		<g>
			<rect x="344.648" y="217.476" style="fill:#407BFF;" width="85.699" height="198.415"/>
			<rect x="344.648" y="217.476" style="opacity:0.5;fill:#FFFFFF;" width="85.699" height="198.415"/>
		</g>
		<path style="opacity:0.2;fill:#FFFFFF;" d="M344.648,217.476v198.415h48.892V217.476H344.648z M390.251,408.893h-42.438v-34.949
			h42.438V408.893z M390.251,370.677h-42.438v-34.949h42.438V370.677z M390.251,332.462h-42.438v-34.949h42.438V332.462z
			 M390.251,294.246h-42.438v-34.949h42.438V294.246z M390.251,256.031h-42.438v-34.949h42.438V256.031z"/>
		<rect x="347.813" y="259.297" style="opacity:0.2;enable-background:new    ;" width="42.436" height="19.667"/>
		<polygon style="opacity:0.2;enable-background:new    ;" points="390.251,290.26 344.648,323.633 344.243,291.771 		"/>
		<g>
			<path style="fill:#407BFF;" d="M361.559,236.527c-0.528,0-0.955,0.428-0.955,0.956v3.611h1.014v-0.727
				c0-0.528,0.428-0.955,0.955-0.955h10.295c0.528,0,0.956,0.428,0.956,0.955v0.727h1.013v-3.611c0-0.528-0.428-0.956-0.956-0.956
				H361.559z"/>
			<rect x="361.565" y="228.853" style="opacity:0.2;fill:#FFFFFF;" width="12.309" height="5.408"/>
		</g>
		<g>
			<path style="fill:#407BFF;" d="M361.559,313.029c-0.528,0-0.955,0.428-0.955,0.956v3.611h1.014v-0.727
				c0-0.528,0.428-0.955,0.955-0.955h10.295c0.528,0,0.956,0.428,0.956,0.955v0.727h1.013v-3.611c0-0.528-0.428-0.956-0.956-0.956
				H361.559z"/>
			<rect x="361.565" y="305.355" style="opacity:0.2;fill:#FFFFFF;" width="12.309" height="5.408"/>
		</g>
		<g>
			<path style="fill:#407BFF;" d="M361.559,351.038c-0.528,0-0.955,0.428-0.955,0.956v3.611h1.014v-0.727
				c0-0.528,0.428-0.956,0.955-0.956h10.295c0.528,0,0.956,0.428,0.956,0.956v0.727h1.013v-3.611c0-0.528-0.428-0.956-0.956-0.956
				H361.559z"/>
			<rect x="361.565" y="343.364" style="opacity:0.2;fill:#FFFFFF;" width="12.309" height="5.408"/>
		</g>
		<g>
			<path style="fill:#407BFF;" d="M361.559,388.424c-0.528,0-0.955,0.428-0.955,0.956v3.611h1.014v-0.727
				c0-0.528,0.428-0.955,0.955-0.955h10.295c0.528,0,0.956,0.428,0.956,0.955v0.727h1.013v-3.611c0-0.528-0.428-0.956-0.956-0.956
				H361.559z"/>
			<rect x="361.565" y="380.75" style="opacity:0.2;fill:#FFFFFF;" width="12.309" height="5.408"/>
		</g>
		<g>
			<g>
				<g>
					<path style="fill:#407BFF;" d="M390.247,263.636v23.496H357.43v-21.923c0-0.437,0.167-0.823,0.448-1.104
						c0.281-0.292,0.687-0.469,1.125-0.469h16.987c0.646,0,1.229-0.406,1.458-1.01l0.479-1.25l0.021-0.052
						c0.094-0.25,0.344-0.417,0.614-0.417h10.196c0.271,0,0.521,0.167,0.614,0.417L390.247,263.636z"/>
					<path style="opacity:0.2;enable-background:new    ;" d="M387.498,264.105v23.027H357.43v-21.923
						c0-0.437,0.167-0.823,0.448-1.104h15.351c0.427,0,0.833-0.177,1.114-0.469h1.646c0.646,0,1.229-0.406,1.458-1.01l0.479-1.25
						h8.072c0.281,0,0.521,0.167,0.625,0.427L387.498,264.105z"/>
				</g>
			</g>
			<g>
				<g>
					<path style="fill:#407BFF;" d="M385.503,265.284v23.496h-32.817v-21.923c0-0.437,0.167-0.823,0.448-1.104
						c0.281-0.292,0.687-0.469,1.125-0.469h16.987c0.646,0,1.229-0.406,1.458-1.01l0.479-1.25l0.021-0.052
						c0.094-0.25,0.344-0.417,0.614-0.417h10.196c0.271,0,0.521,0.167,0.614,0.417L385.503,265.284z"/>
					<path style="opacity:0.2;enable-background:new    ;" d="M382.754,265.753v23.027h-30.068v-21.923
						c0-0.437,0.167-0.823,0.448-1.104h15.351c0.427,0,0.834-0.177,1.115-0.469h1.646c0.646,0,1.229-0.406,1.458-1.01l0.479-1.25
						h8.071c0.281,0,0.521,0.167,0.625,0.427L382.754,265.753z"/>
				</g>
			</g>
			<g>
				<g>
					<path style="fill:#407BFF;" d="M380.759,266.932v23.496h-32.817v-21.923c0-0.437,0.167-0.823,0.448-1.104
						c0.281-0.292,0.687-0.469,1.125-0.469h16.987c0.646,0,1.229-0.406,1.458-1.01l0.479-1.25l0.021-0.052
						c0.094-0.25,0.343-0.417,0.614-0.417h10.196c0.271,0,0.521,0.167,0.614,0.417L380.759,266.932z"/>
					<path style="opacity:0.2;enable-background:new    ;" d="M378.009,267.401v23.027h-30.068v-21.923
						c0-0.437,0.167-0.823,0.448-1.104h15.351c0.427,0,0.833-0.177,1.114-0.469h1.646c0.646,0,1.229-0.406,1.458-1.01l0.479-1.25
						h8.072c0.281,0,0.521,0.167,0.625,0.427L378.009,267.401z"/>
				</g>
			</g>
			<g>
				<g>
					<path style="fill:#407BFF;" d="M376.014,268.581v23.496h-32.817v-21.923c0-0.437,0.167-0.823,0.448-1.104
						c0.281-0.292,0.687-0.469,1.125-0.469h16.987c0.645,0,1.229-0.406,1.458-1.01l0.479-1.25l0.021-0.052
						c0.094-0.25,0.344-0.417,0.614-0.417h10.196c0.271,0,0.521,0.167,0.614,0.417L376.014,268.581z"/>
					<path style="opacity:0.2;enable-background:new    ;" d="M373.265,269.049v23.027h-30.068v-21.923
						c0-0.437,0.167-0.823,0.448-1.104h15.351c0.427,0,0.833-0.177,1.115-0.469h1.646c0.645,0,1.229-0.406,1.458-1.01l0.479-1.25
						h8.071c0.281,0,0.521,0.167,0.625,0.427L373.265,269.049z"/>
				</g>
			</g>
			<g>
				<g>
					<path style="fill:#407BFF;" d="M371.27,270.228v23.496h-32.817v-21.923c0-0.437,0.167-0.823,0.448-1.104
						c0.281-0.292,0.687-0.469,1.125-0.469h16.986c0.646,0,1.229-0.406,1.458-1.01l0.479-1.25l0.021-0.052
						c0.093-0.25,0.343-0.417,0.614-0.417h10.196c0.271,0,0.521,0.167,0.614,0.417L371.27,270.228z"/>
					<path style="opacity:0.2;enable-background:new    ;" d="M368.52,270.697v23.027h-30.068v-21.923
						c0-0.437,0.167-0.823,0.448-1.104h15.351c0.427,0,0.833-0.177,1.114-0.469h1.646c0.646,0,1.229-0.406,1.458-1.01l0.479-1.25
						h8.072c0.281,0,0.521,0.167,0.625,0.427L368.52,270.697z"/>
				</g>
			</g>
			<polygon style="fill:#407BFF;" points="361.272,281.333 390.251,271.033 390.251,289.219 364.294,299.737 			"/>
			<polygon style="opacity:0.5;fill:#FFFFFF;" points="361.272,281.333 390.251,271.033 390.251,289.219 364.294,299.737 			"/>
			<g>
				<polygon style="fill:#407BFF;" points="322.742,266.083 327.276,265.016 366.69,265.016 368.477,300.576 366.69,300.992 				"/>
				<polygon style="fill:#407BFF;" points="366.69,300.992 324.253,300.992 322.742,266.083 365.179,266.083 				"/>
				<polygon style="opacity:0.5;fill:#FFFFFF;" points="366.69,300.992 324.253,300.992 322.742,266.083 365.179,266.083 				"/>
				<polygon style="opacity:0.7;fill:#FFFFFF;" points="366.69,265.016 365.179,266.083 322.742,266.083 327.276,265.016 				"/>
				<polygon style="opacity:0.4;fill:#FFFFFF;" points="366.69,265.016 368.477,300.576 366.69,300.992 365.179,266.083 				"/>
			</g>
		</g>
		<g>
			<path style="fill:#407BFF;" d="M337.52,282.187c-0.528,0-0.933,0.434-0.906,0.969l0.188,3.661h1.014l-0.038-0.737
				c-0.027-0.535,0.378-0.969,0.906-0.969h10.295c0.528,0,0.978,0.434,1.005,0.969l0.038,0.737h1.013l-0.188-3.661
				c-0.027-0.535-0.478-0.969-1.005-0.969H337.52z"/>
			<polygon style="opacity:0.2;fill:#FFFFFF;" points="349.717,279.89 337.408,279.89 337.127,274.408 349.436,274.408 			"/>
		</g>
	</g>
</g>
<g id="Device">
	<g>
		<g>
			<path style="fill:#263238;" d="M167.503,328.832h-95.97c-4.162,0-7.535-3.374-7.535-7.535V165.126
				c0-4.161,3.373-7.535,7.535-7.535h95.97c4.161,0,7.535,3.373,7.535,7.535v156.172
				C175.038,325.459,171.665,328.832,167.503,328.832z"/>
		</g>
		<g style="opacity:0.2;enable-background:new    ;">
			<path style="fill:#FFFFFF;" d="M63.998,203.326v117.659c0,4.334,3.513,7.847,7.847,7.847h95.345c4.334,0,7.848-3.513,7.848-7.847
				V203.326H63.998z"/>
		</g>
		<g>
			<g>
				<path style="fill:#263238;" d="M91.536,249.071H75.846c-0.673,0-1.218-0.545-1.218-1.218v-9.171
					c0-0.673,0.545-1.218,1.218-1.218h15.691c0.673,0,1.218,0.545,1.218,1.218v9.171C92.754,248.526,92.209,249.071,91.536,249.071z
					"/>
			</g>
			<g>
				<path style="fill:#263238;" d="M115.432,249.071H99.741c-0.673,0-1.218-0.545-1.218-1.218v-9.171
					c0-0.673,0.545-1.218,1.218-1.218h15.691c0.673,0,1.218,0.545,1.218,1.218v9.171
					C116.65,248.526,116.104,249.071,115.432,249.071z"/>
			</g>
			<g>
				<path style="fill:#263238;" d="M139.327,249.071h-15.691c-0.673,0-1.218-0.545-1.218-1.218v-9.171
					c0-0.673,0.545-1.218,1.218-1.218h15.691c0.673,0,1.218,0.545,1.218,1.218v9.171C140.545,248.526,140,249.071,139.327,249.071z"
					/>
			</g>
			<g>
				<path style="fill:#263238;" d="M163.222,249.071h-15.691c-0.673,0-1.218-0.545-1.218-1.218v-9.171
					c0-0.673,0.545-1.218,1.218-1.218h15.691c0.673,0,1.218,0.545,1.218,1.218v9.171
					C164.44,248.526,163.895,249.071,163.222,249.071z"/>
			</g>
			<g>
				<path style="fill:#263238;" d="M163.222,220.828h-15.691c-0.673,0-1.218-0.545-1.218-1.218v-9.171
					c0-0.673,0.545-1.218,1.218-1.218h15.691c0.673,0,1.218,0.545,1.218,1.218v9.171
					C164.44,220.283,163.895,220.828,163.222,220.828z"/>
			</g>
			<g>
				<path style="fill:#263238;" d="M138.91,220.828h-15.691c-0.673,0-1.218-0.545-1.218-1.218v-9.171
					c0-0.673,0.545-1.218,1.218-1.218h15.691c0.673,0,1.218,0.545,1.218,1.218v9.171
					C140.128,220.283,139.582,220.828,138.91,220.828z"/>
			</g>
			<g style="opacity:0.3;enable-background:new    ;">
				<path style="fill:#FFFFFF;" d="M84.214,232.285h-8.4c-0.673,0-1.218-0.545-1.218-1.218v-3.963c0-0.673,0.545-1.218,1.218-1.218
					h8.4c0.673,0,1.218,0.545,1.218,1.218v3.963C85.432,231.74,84.886,232.285,84.214,232.285z"/>
			</g>
			<g style="opacity:0.3;enable-background:new    ;">
				<path style="fill:#FFFFFF;" d="M100.016,232.285h-8.4c-0.673,0-1.218-0.545-1.218-1.218v-3.963c0-0.673,0.545-1.218,1.218-1.218
					h8.4c0.673,0,1.218,0.545,1.218,1.218v3.963C101.233,231.74,100.688,232.285,100.016,232.285z"/>
			</g>
			<g style="opacity:0.3;enable-background:new    ;">
				<path style="fill:#FFFFFF;" d="M115.817,232.285h-8.4c-0.673,0-1.218-0.545-1.218-1.218v-3.963c0-0.673,0.545-1.218,1.218-1.218
					h8.4c0.673,0,1.218,0.545,1.218,1.218v3.963C117.035,231.74,116.49,232.285,115.817,232.285z"/>
			</g>
			<g style="opacity:0.3;enable-background:new    ;">
				<path style="fill:#FFFFFF;" d="M131.619,232.285h-8.4c-0.673,0-1.218-0.545-1.218-1.218v-3.963c0-0.673,0.545-1.218,1.218-1.218
					h8.4c0.673,0,1.218,0.545,1.218,1.218v3.963C132.837,231.74,132.292,232.285,131.619,232.285z"/>
			</g>
			<g style="opacity:0.3;enable-background:new    ;">
				<path style="fill:#FFFFFF;" d="M147.421,232.285h-8.4c-0.673,0-1.218-0.545-1.218-1.218v-3.963c0-0.673,0.545-1.218,1.218-1.218
					h8.4c0.673,0,1.218,0.545,1.218,1.218v3.963C148.639,231.74,148.093,232.285,147.421,232.285z"/>
			</g>
			<g style="opacity:0.3;enable-background:new    ;">
				<path style="fill:#FFFFFF;" d="M163.222,232.285h-8.4c-0.673,0-1.218-0.545-1.218-1.218v-3.963c0-0.673,0.545-1.218,1.218-1.218
					h8.4c0.673,0,1.218,0.545,1.218,1.218v3.963C164.44,231.74,163.895,232.285,163.222,232.285z"/>
			</g>
			<g style="opacity:0.2;enable-background:new    ;">
				<rect x="74.596" y="209.222" width="5.418" height="11.606"/>
			</g>
			<g style="opacity:0.2;enable-background:new    ;">
				<rect x="80.982" y="209.222" width="5.418" height="11.606"/>
			</g>
			<g style="opacity:0.2;enable-background:new    ;">
				<rect x="87.368" y="209.222" width="5.418" height="11.606"/>
			</g>
			<g style="opacity:0.2;enable-background:new    ;">
				<rect x="93.755" y="209.222" width="5.418" height="11.606"/>
			</g>
			<g style="opacity:0.2;enable-background:new    ;">
				<rect x="100.141" y="209.222" width="5.418" height="11.606"/>
			</g>
			<g style="opacity:0.2;enable-background:new    ;">
				<rect x="106.527" y="209.222" width="5.418" height="11.606"/>
			</g>
			<g>
				<path style="fill:#263238;" d="M91.537,265.215H75.846c-0.673,0-1.218-0.545-1.218-1.218v-9.171
					c0-0.673,0.545-1.218,1.218-1.218h15.691c0.673,0,1.218,0.545,1.218,1.218v9.171C92.754,264.67,92.209,265.215,91.537,265.215z"
					/>
			</g>
			<g>
				<path style="fill:#263238;" d="M115.432,265.215H99.741c-0.673,0-1.218-0.545-1.218-1.218v-9.171
					c0-0.673,0.545-1.218,1.218-1.218h15.691c0.673,0,1.218,0.545,1.218,1.218v9.171C116.65,264.67,116.104,265.215,115.432,265.215
					z"/>
			</g>
			<g>
				<path style="fill:#263238;" d="M139.327,265.215h-15.691c-0.673,0-1.218-0.545-1.218-1.218v-9.171
					c0-0.673,0.545-1.218,1.218-1.218h15.691c0.673,0,1.218,0.545,1.218,1.218v9.171C140.545,264.67,140,265.215,139.327,265.215z"
					/>
			</g>
			<g>
				<path style="fill:#263238;" d="M163.222,265.215h-15.691c-0.673,0-1.218-0.545-1.218-1.218v-9.171
					c0-0.673,0.545-1.218,1.218-1.218h15.691c0.673,0,1.218,0.545,1.218,1.218v9.171C164.44,264.67,163.895,265.215,163.222,265.215
					z"/>
			</g>
			<g>
				<path style="fill:#263238;" d="M91.537,281.359H75.846c-0.673,0-1.218-0.545-1.218-1.218v-9.171
					c0-0.673,0.545-1.218,1.218-1.218h15.691c0.673,0,1.218,0.545,1.218,1.218v9.171C92.754,280.814,92.209,281.359,91.537,281.359z
					"/>
			</g>
			<g>
				<path style="fill:#263238;" d="M115.432,281.359H99.741c-0.673,0-1.218-0.545-1.218-1.218v-9.171
					c0-0.673,0.545-1.218,1.218-1.218h15.691c0.673,0,1.218,0.545,1.218,1.218v9.171
					C116.65,280.814,116.104,281.359,115.432,281.359z"/>
			</g>
			<g>
				<path style="fill:#263238;" d="M139.327,281.359h-15.691c-0.673,0-1.218-0.545-1.218-1.218v-9.171
					c0-0.673,0.545-1.218,1.218-1.218h15.691c0.673,0,1.218,0.545,1.218,1.218v9.171C140.545,280.814,140,281.359,139.327,281.359z"
					/>
			</g>
			<g>
				<path style="fill:#263238;" d="M163.222,281.359h-15.691c-0.673,0-1.218-0.545-1.218-1.218v-9.171
					c0-0.673,0.545-1.218,1.218-1.218h15.691c0.673,0,1.218,0.545,1.218,1.218v9.171
					C164.44,280.814,163.895,281.359,163.222,281.359z"/>
			</g>
			<g>
				<path style="fill:#263238;" d="M91.537,297.503H75.846c-0.673,0-1.218-0.545-1.218-1.218v-9.171
					c0-0.672,0.545-1.218,1.218-1.218h15.691c0.673,0,1.218,0.545,1.218,1.218v9.171C92.754,296.958,92.209,297.503,91.537,297.503z
					"/>
			</g>
			<g>
				<path style="fill:#263238;" d="M115.432,297.503H99.741c-0.673,0-1.218-0.545-1.218-1.218v-9.171
					c0-0.672,0.545-1.218,1.218-1.218h15.691c0.673,0,1.218,0.545,1.218,1.218v9.171
					C116.65,296.958,116.104,297.503,115.432,297.503z"/>
			</g>
			<g>
				<path style="fill:#263238;" d="M139.327,297.503h-15.691c-0.673,0-1.218-0.545-1.218-1.218v-9.171
					c0-0.672,0.545-1.218,1.218-1.218h15.691c0.673,0,1.218,0.545,1.218,1.218v9.171C140.545,296.958,140,297.503,139.327,297.503z"
					/>
			</g>
			<g>
				<path style="fill:#263238;" d="M91.537,313.647H75.846c-0.673,0-1.218-0.545-1.218-1.218v-9.171
					c0-0.673,0.545-1.218,1.218-1.218h15.691c0.673,0,1.218,0.545,1.218,1.218v9.171C92.754,313.102,92.209,313.647,91.537,313.647z
					"/>
			</g>
			<g>
				<path style="fill:#263238;" d="M115.432,313.647H99.741c-0.673,0-1.218-0.545-1.218-1.218v-9.171
					c0-0.673,0.545-1.218,1.218-1.218h15.691c0.673,0,1.218,0.545,1.218,1.218v9.171
					C116.65,313.102,116.104,313.647,115.432,313.647z"/>
			</g>
			<g>
				<path style="fill:#263238;" d="M139.327,313.647h-15.691c-0.673,0-1.218-0.545-1.218-1.218v-9.171
					c0-0.673,0.545-1.218,1.218-1.218h15.691c0.673,0,1.218,0.545,1.218,1.218v9.171C140.545,313.102,140,313.647,139.327,313.647z"
					/>
			</g>
			<g>
				<path style="fill:#263238;" d="M163.172,285.897h-15.59c-0.701,0-1.269,0.568-1.269,1.268v16.144v3.341v5.728
					c0,0.701,0.568,1.268,1.269,1.268h15.59c0.701,0,1.268-0.568,1.268-1.268v-5.728v-3.341v-16.144
					C164.44,286.464,163.872,285.897,163.172,285.897z"/>
			</g>
		</g>
		<g style="opacity:0.4;enable-background:new    ;">
			<rect x="74.596" y="172.433" style="fill:#FFFFFF;" width="89.844" height="22.067"/>
		</g>
		<g>
			<path style="fill:#263238;" d="M94.815,192.244v1.411h-0.799v-1.411c-1.224-0.063-2.386-0.487-3.035-1.087l0.462-0.974
				c0.587,0.537,1.561,0.937,2.573,0.999v-2.898c-1.374-0.338-2.823-0.775-2.823-2.473c0-1.236,0.887-2.311,2.823-2.473v-1.424
				h0.799v1.411c0.937,0.038,1.874,0.312,2.535,0.762l-0.412,0.999c-0.674-0.425-1.424-0.662-2.123-0.7v2.91
				c1.399,0.35,2.898,0.762,2.898,2.473C97.712,191.007,96.788,192.082,94.815,192.244z M94.015,187.098V184.4
				c-1.112,0.137-1.599,0.699-1.599,1.361C92.416,186.536,93.116,186.86,94.015,187.098z M96.488,189.846
				c0-0.799-0.749-1.112-1.674-1.361v2.686C95.976,191.058,96.488,190.52,96.488,189.846z"/>
			<path style="fill:#263238;" d="M101.414,183.413v8.744h-1.237V184.5h-1.973v-1.087H101.414z"/>
			<path style="fill:#263238;" d="M109.31,189.583c0,1.474-1.086,2.673-3.31,2.673c-1.249,0-2.473-0.4-3.21-1.062l0.575-0.987
				c0.587,0.55,1.561,0.937,2.635,0.937c1.312,0,2.061-0.599,2.061-1.548c0-0.925-0.662-1.524-2.161-1.524h-0.7v-0.874l2.198-2.698
				h-4.209v-1.087h5.771v0.85l-2.286,2.823C108.423,187.248,109.31,188.234,109.31,189.583z"/>
			<path style="fill:#263238;" d="M110.451,191.37c0-0.5,0.387-0.85,0.849-0.85c0.45,0,0.824,0.35,0.824,0.85
				c0,0.499-0.375,0.861-0.824,0.861C110.838,192.231,110.451,191.869,110.451,191.37z"/>
			<path style="fill:#263238;" d="M119.421,189.583c0,1.474-1.087,2.673-3.31,2.673c-1.249,0-2.473-0.4-3.21-1.062l0.574-0.987
				c0.587,0.55,1.561,0.937,2.635,0.937c1.312,0,2.061-0.599,2.061-1.548c0-0.925-0.662-1.524-2.161-1.524h-0.7v-0.874l2.198-2.698
				H113.3v-1.087h5.771v0.85l-2.286,2.823C118.534,187.248,119.421,188.234,119.421,189.583z"/>
			<path style="fill:#263238;" d="M127.094,187.672c0,2.986-1.686,4.584-4.134,4.584c-0.824,0-1.612-0.163-2.174-0.513l0.474-0.974
				c0.462,0.3,1.05,0.412,1.686,0.412c1.774,0,2.898-1.112,2.898-3.297v-0.312c-0.512,0.762-1.437,1.149-2.523,1.149
				c-1.736,0-2.985-1.036-2.985-2.648c0-1.686,1.349-2.76,3.085-2.76C125.77,183.313,127.094,184.887,127.094,187.672z
				 M125.558,186.011c0-0.899-0.725-1.686-2.086-1.686c-1.137,0-1.924,0.662-1.924,1.699c0,1.024,0.762,1.686,1.986,1.686
				C124.733,187.71,125.558,186.973,125.558,186.011z"/>
			<path style="fill:#263238;" d="M134.406,191.07v1.087h-6.283v-0.849l3.56-3.435c0.924-0.899,1.099-1.449,1.099-1.999
				c0-0.899-0.637-1.449-1.861-1.449c-0.937,0-1.699,0.299-2.236,0.949l-0.849-0.737c0.674-0.837,1.836-1.324,3.198-1.324
				c1.824,0,2.998,0.937,2.998,2.435c0,0.85-0.25,1.612-1.437,2.748l-2.673,2.573H134.406z"/>
			<path style="fill:#263238;" d="M135.533,191.37c0-0.5,0.387-0.85,0.849-0.85c0.45,0,0.824,0.35,0.824,0.85
				c0,0.499-0.375,0.861-0.824,0.861C135.92,192.231,135.533,191.869,135.533,191.37z"/>
			<path style="fill:#263238;" d="M138.245,187.785c0-2.848,1.524-4.472,3.572-4.472c2.036,0,3.56,1.624,3.56,4.472
				c0,2.848-1.524,4.472-3.56,4.472C139.77,192.257,138.245,190.633,138.245,187.785z M144.129,187.785
				c0-2.236-0.949-3.36-2.311-3.36c-1.374,0-2.324,1.124-2.324,3.36c0,2.236,0.949,3.36,2.324,3.36
				C143.179,191.145,144.129,190.021,144.129,187.785z"/>
			<path style="fill:#263238;" d="M146.581,187.785c0-2.848,1.524-4.472,3.572-4.472c2.036,0,3.56,1.624,3.56,4.472
				c0,2.848-1.524,4.472-3.56,4.472C148.105,192.257,146.581,190.633,146.581,187.785z M152.464,187.785
				c0-2.236-0.949-3.36-2.311-3.36c-1.374,0-2.323,1.124-2.323,3.36c0,2.236,0.949,3.36,2.323,3.36
				C151.515,191.145,152.464,190.021,152.464,187.785z"/>
			<path style="fill:#263238;" d="M154.917,187.785c0-2.848,1.524-4.472,3.572-4.472c2.036,0,3.56,1.624,3.56,4.472
				c0,2.848-1.524,4.472-3.56,4.472C156.441,192.257,154.917,190.633,154.917,187.785z M160.801,187.785
				c0-2.236-0.95-3.36-2.311-3.36c-1.374,0-2.324,1.124-2.324,3.36c0,2.236,0.95,3.36,2.324,3.36
				C159.851,191.145,160.801,190.021,160.801,187.785z"/>
		</g>
	</g>
</g>
<g id="Character_1">
	<g>
		<g>
			<g>
				<rect x="207.318" y="328.456" style="fill:#407BFF;" width="58.91" height="27.516"/>
				<rect x="207.318" y="328.456" style="opacity:0.6;fill:#FFFFFF;enable-background:new    ;" width="58.91" height="27.516"/>
				<polygon style="opacity:0.2;enable-background:new    ;" points="266.228,332.576 224.083,332.576 266.228,333.812 				"/>
				<polygon style="opacity:0.2;enable-background:new    ;" points="216.115,336.661 255.122,336.188 216.115,337.893 				"/>
				<path style="opacity:0.2;enable-background:new    ;" d="M266.228,341.993c-0.943,0.06-40.908,0.884-40.908,0.884l40.908,1.567
					V341.993z"/>
				<polygon style="opacity:0.2;enable-background:new    ;" points="216.115,347.842 247.156,348.508 216.115,349.194 				"/>
				<polygon style="opacity:0.2;enable-background:new    ;" points="266.228,351.039 236.169,352.137 266.228,352.137 				"/>
			</g>
			<polygon style="fill:#407BFF;" points="216.115,329.69 216.115,354.738 268.845,354.738 268.845,356.956 130.692,356.956 
				130.692,327.472 268.845,327.472 268.845,329.69 			"/>
			<polygon style="opacity:0.2;fill:#FFFFFF;enable-background:new    ;" points="216.115,329.69 216.115,354.738 268.845,354.738 
				268.845,356.956 130.692,356.956 130.692,327.472 268.845,327.472 268.845,329.69 			"/>
			<polygon style="opacity:0.2;enable-background:new    ;" points="216.115,329.69 216.115,354.738 268.845,354.738 
				268.845,356.956 212.24,356.956 212.24,327.472 268.845,327.472 268.845,329.69 			"/>
			<rect x="158.161" y="337.209" style="opacity:0.6;fill:#FFFFFF;enable-background:new    ;" width="44.165" height="10.01"/>
			<circle style="opacity:0.6;fill:#FFFFFF;enable-background:new    ;" cx="146.018" cy="342.214" r="5.985"/>
			<path style="opacity:0.2;enable-background:new    ;" d="M150.248,343.503c-0.712,2.336-3.182,3.653-5.519,2.941
				c-2.336-0.712-3.653-3.183-2.941-5.519c0.712-2.336,3.182-3.653,5.519-2.941C149.643,338.696,150.96,341.167,150.248,343.503z"/>
		</g>
		<g>
			<g>
				<rect x="218.772" y="357.941" style="fill:#407BFF;" width="58.91" height="27.516"/>
				<rect x="218.772" y="357.941" style="opacity:0.6;fill:#FFFFFF;enable-background:new    ;" width="58.91" height="27.516"/>
				<polygon style="opacity:0.2;enable-background:new    ;" points="277.682,362.061 235.537,362.061 277.682,363.297 				"/>
				<polygon style="opacity:0.2;enable-background:new    ;" points="227.569,366.145 266.576,365.672 227.569,367.377 				"/>
				<path style="opacity:0.2;enable-background:new    ;" d="M277.682,371.477c-0.943,0.06-40.909,0.884-40.909,0.884l40.909,1.567
					V371.477z"/>
				<polygon style="opacity:0.2;enable-background:new    ;" points="227.569,377.327 258.61,377.992 227.569,378.679 				"/>
				<polygon style="opacity:0.2;enable-background:new    ;" points="277.682,380.523 247.623,381.622 277.682,381.622 				"/>
			</g>
			<polygon style="fill:#263238;" points="227.569,359.175 227.569,384.222 280.299,384.222 280.299,386.441 142.146,386.441 
				142.146,356.956 280.299,356.956 280.299,359.175 			"/>
			<polygon style="opacity:0.2;enable-background:new    ;" points="227.569,359.175 227.569,384.222 280.299,384.222 
				280.299,386.441 223.694,386.441 223.694,356.956 280.299,356.956 280.299,359.175 			"/>
			<rect x="169.615" y="366.694" style="opacity:0.6;fill:#FFFFFF;enable-background:new    ;" width="44.165" height="10.01"/>
			<path style="opacity:0.6;fill:#FFFFFF;enable-background:new    ;" d="M163.458,371.698c0,3.306-2.68,5.986-5.985,5.986
				c-3.306,0-5.986-2.68-5.986-5.986c0-3.306,2.68-5.986,5.986-5.986C160.778,365.713,163.458,368.393,163.458,371.698z"/>
			<path style="opacity:0.2;enable-background:new    ;" d="M161.702,372.987c-0.712,2.336-3.183,3.653-5.519,2.941
				c-2.336-0.712-3.653-3.183-2.941-5.519c0.712-2.336,3.182-3.653,5.519-2.941C161.097,368.18,162.414,370.651,161.702,372.987z"/>
		</g>
		<g>
			<g>
				<rect x="210.57" y="387.391" style="fill:#407BFF;" width="58.91" height="27.516"/>
				<rect x="210.57" y="387.391" style="opacity:0.6;fill:#FFFFFF;enable-background:new    ;" width="58.91" height="27.516"/>
				<polygon style="opacity:0.2;enable-background:new    ;" points="269.48,391.511 227.335,391.511 269.48,392.747 				"/>
				<polygon style="opacity:0.2;enable-background:new    ;" points="219.367,395.595 258.374,395.122 219.367,396.827 				"/>
				<path style="opacity:0.2;enable-background:new    ;" d="M269.48,400.927c-0.943,0.06-40.908,0.884-40.908,0.884l40.908,1.567
					V400.927z"/>
				<polygon style="opacity:0.2;enable-background:new    ;" points="219.367,406.777 250.408,407.442 219.367,408.129 				"/>
				<polygon style="opacity:0.2;enable-background:new    ;" points="269.48,409.973 239.421,411.072 269.48,411.072 				"/>
			</g>
			<polygon style="fill:#407BFF;" points="219.367,388.625 219.367,413.672 272.097,413.672 272.097,415.891 133.945,415.891 
				133.945,386.407 272.097,386.407 272.097,388.625 			"/>
			<polygon style="opacity:0.2;enable-background:new    ;" points="219.367,388.625 219.367,413.672 272.097,413.672 
				272.097,415.891 215.492,415.891 215.492,386.407 272.097,386.407 272.097,388.625 			"/>
			<rect x="161.413" y="396.144" style="opacity:0.6;fill:#FFFFFF;enable-background:new    ;" width="44.165" height="10.01"/>
			<path style="opacity:0.6;fill:#FFFFFF;enable-background:new    ;" d="M155.256,401.149c0,3.306-2.68,5.986-5.986,5.986
				c-3.306,0-5.986-2.68-5.986-5.986c0-3.306,2.68-5.986,5.986-5.986C152.576,395.163,155.256,397.843,155.256,401.149z"/>
			<path style="opacity:0.2;enable-background:new    ;" d="M153.5,402.437c-0.712,2.336-3.183,3.653-5.519,2.941
				c-2.336-0.712-3.653-3.182-2.941-5.519c0.712-2.336,3.182-3.653,5.518-2.941C152.895,397.631,154.212,400.101,153.5,402.437z"/>
		</g>
		<g id="_x3C_Group_x3E__116_">
			<g>
				<g>
					<path style="fill:#FF8B7B;" d="M197.712,257.615c-0.249,4.779-0.667,9.474-1.259,14.224c-0.296,2.374-0.641,4.751-1.062,7.158
						c-0.222,1.211-0.441,2.428-0.74,3.683c-0.132,0.614-0.333,1.304-0.5,1.949c-0.083,0.321-0.236,0.743-0.355,1.107l-0.194,0.564
						l-0.059,0.162l-0.137,0.321c-0.097,0.222-0.197,0.417-0.291,0.576c-0.399,0.699-0.786,1.153-1.141,1.536
						c-0.364,0.394-0.696,0.687-1.026,0.971c-0.649,0.544-1.264,0.961-1.864,1.342c-1.198,0.756-2.345,1.353-3.488,1.914
						c-2.282,1.108-4.551,2-6.821,2.842c-4.551,1.66-9.108,2.982-13.801,4.075c-1.365,0.318-2.729-0.531-3.047-1.896
						c-0.272-1.167,0.31-2.334,1.337-2.846l0.043-0.021c4.144-2.066,8.333-4.165,12.369-6.295c2.017-1.065,3.996-2.178,5.834-3.318
						c0.912-0.568,1.793-1.158,2.525-1.739c0.363-0.287,0.688-0.577,0.919-0.809c0.103-0.111,0.201-0.219,0.223-0.267
						c0.038-0.052,0.011-0.066-0.108,0.117l-0.097,0.181l-0.049,0.119c-0.009,0.022,0.006-0.034,0.008-0.047l0.06-0.278
						c0.04-0.201,0.089-0.331,0.131-0.584c0.079-0.502,0.179-0.947,0.249-1.489c0.149-1.049,0.29-2.151,0.42-3.259
						c0.237-2.24,0.437-4.524,0.638-6.817l1.121-13.831l0.002-0.02c0.227-2.804,2.685-4.893,5.489-4.666
						C195.789,252.495,197.852,254.875,197.712,257.615z"/>
				</g>
				<path style="fill:#FF8B7B;" d="M164.37,294.275l-6.79,0.376l2.715,7.691c0,0,6.107-1.087,6.054-4.426L164.37,294.275z"/>
				<path style="fill:#FF8B7B;" d="M152.828,299.879l1.406,2.535c0.56,1.009,1.768,1.465,2.855,1.076l3.206-1.147l-2.715-7.691
					l-3.79,1.999C152.621,297.267,152.187,298.723,152.828,299.879z"/>
				<path style="fill:#407BFF;" d="M184.229,252.908c9.745,0.825,15.78-0.211,14.795,10.377
					c-0.985,10.588-2.111,14.186-2.111,14.186h-12.243c0,0-1.63-19.36-1.63-21.189C183.039,254.453,184.229,252.908,184.229,252.908
					z"/>
				<path style="opacity:0.7;fill:#FFFFFF;enable-background:new    ;" d="M199.025,263.288c-0.075,0.822-0.15,1.601-0.224,2.337
					c-0.437,4.098-0.875,6.947-1.227,8.826c-0.395,2.145-0.662,3.02-0.662,3.02h-12.241c0,0-0.064-0.8-0.171-2.081
					c-0.427-5.037-1.462-17.651-1.462-19.113c0-1.825,1.195-3.372,1.195-3.372C193.977,253.737,200.007,252.702,199.025,263.288z"/>
				<polygon style="fill:#407BFF;" points="184.106,275.421 199.867,274.296 197.053,280.065 184.106,280.065 				"/>
				<polygon style="fill:#407BFF;" points="199.868,274.291 197.051,280.065 184.105,280.065 184.105,275.422 184.5,275.39 
					191.16,274.921 197.574,274.451 				"/>
				<polygon style="opacity:0.6;fill:#FFFFFF;" points="199.868,274.291 197.051,280.065 184.105,280.065 184.105,275.422 
					184.5,275.39 191.16,274.921 197.574,274.451 				"/>
				<path style="opacity:0.2;enable-background:new    ;" d="M199.868,274.291l-2.817,5.774h-2.316
					c-0.993-0.64-1.793-1.537-2.423-2.593c-0.47-0.779-0.854-1.633-1.153-2.551c-2.145-6.286-0.929-15.09-0.929-15.09
					c3.127,0.651,6.168,2.935,8.57,5.795c-0.437,4.098-0.875,6.947-1.227,8.826L199.868,274.291z"/>
			</g>
			<g>
				<polygon style="fill:#E4897B;" points="189.95,400.123 182.403,400.604 176.448,386.604 183.995,386.123 				"/>
				<polygon style="opacity:0.2;enable-background:new    ;" points="183.995,386.123 176.448,386.604 179.525,393.825 
					187.072,393.344 				"/>
			</g>
			<path style="fill:#263238;" d="M179.559,398.332l7.484-3.547c0.253-0.118,0.554-0.046,0.726,0.174l3.814,4.91
				c0.337,0.442,0.251,1.073-0.191,1.41c-0.059,0.045-0.123,0.083-0.191,0.114c-2.44,1.108-4.274,1.795-7.314,3.236
				c-1.873,0.888-7.43,3.761-10.016,4.986c-2.586,1.225-4.133-1.169-3.187-1.906c4.258-3.285,7.152-6.412,8.026-8.496
				C178.87,398.821,179.174,398.506,179.559,398.332z"/>
			<path style="fill:#407BFF;" d="M178.034,400.378c-0.403,0.232-0.873,0.319-1.332,0.247c-0.321-0.081-0.577-0.323-0.677-0.639
				c-0.087-0.171-0.064-0.378,0.058-0.526c0.515-0.676,3.084-0.396,3.37-0.359c0.064,0.002,0.12,0.046,0.137,0.108
				c0.021,0.064,0.001,0.134-0.05,0.177C179.077,399.772,178.572,400.104,178.034,400.378z M176.512,399.536
				c-0.068,0.025-0.127,0.07-0.17,0.128c-0.039,0.019-0.06,0.096-0.012,0.217c0.068,0.208,0.234,0.37,0.445,0.432
				c0.84-0.014,1.642-0.347,2.246-0.93C178.183,399.273,177.331,399.325,176.512,399.536z"/>
			<g>
				<path style="fill:#407BFF;" d="M196.348,291.878c-0.053-7.123-1.14-28.896-12.122-38.971c0,0,2.324-2.749,6.833-5.628
					c4.197-2.688,10.293-5.489,18.167-6.287c4.362-0.442,5.177-0.26,10.614,0.902c0,0,12.452,14.867,13.34,49.984H196.348z"/>
				<path style="opacity:0.7;fill:#FFFFFF;enable-background:new    ;" d="M233.175,291.879h-36.829
					c-0.01-1.078-0.043-2.487-0.128-4.141c-0.149-2.913-0.469-6.606-1.131-10.544c-1.44-8.602-4.471-18.42-10.853-24.279
					c0,0,2.316-2.753,6.819-5.635c4.205-2.689,10.298-5.485,18.174-6.286c4.365-0.448,5.176-0.267,10.608,0.896
					c0,0,1.547,1.857,3.596,5.795c1.11,2.124,2.369,4.866,3.596,8.26c0.502,1.366,0.993,2.839,1.462,4.429
					c1.249,4.109,2.391,8.954,3.244,14.567C232.492,279.958,233.015,285.603,233.175,291.879z"/>
			</g>
			<path style="fill:#407BFF;" d="M179.505,399.413l-0.07,0.033c-0.798-0.044-2.671-0.817-2.854-1.526
				c-0.061-0.245,0.059-0.499,0.288-0.607c0.21-0.135,0.468-0.174,0.708-0.105c0.988,0.242,1.976,1.942,2.025,2.025
				c0.026,0.053,0.023,0.116-0.007,0.167C179.567,399.413,179.536,399.418,179.505,399.413z M177.083,397.5l-0.07,0.033
				c-0.188,0.089-0.152,0.206-0.141,0.249c0.111,0.437,1.381,1.092,2.242,1.269c-0.374-0.682-0.947-1.234-1.642-1.582
				C177.342,397.432,177.204,397.443,177.083,397.5z"/>
			<path style="fill:#263238;" d="M234.309,301.52l-1.25-14.724l-36.766,2.592l-1.637,12.362c0,0-43.007-1.69-48.27,9.778
				c-8.096,17.64,29.932,79.092,29.932,79.092l9.67-1.141c0,0-21.345-60.621-18.646-63.142c1.862-1.738,41.42-1.339,41.42-1.339
				S236.815,325.101,234.309,301.52z"/>
			<path style="opacity:0.4;fill:#FFFFFF;enable-background:new    ;" d="M208.758,324.999c0,0-10.8-0.107-21.376,0.032
				c-9.669,0.139-19.156,0.48-20.042,1.302c-0.267,0.246-0.299,1.035-0.149,2.273v0.011c1.409,11.472,18.793,60.862,18.793,60.862
				l-9.669,1.142c0,0-38.024-61.449-29.924-79.089c5.261-11.472,48.269-9.776,48.269-9.776l1.633-12.369l36.765-2.593l1.249,14.727
				C236.814,325.106,208.758,324.999,208.758,324.999z"/>
			<g>
				<polygon style="fill:#407BFF;" points="175.521,392.853 187.734,390.902 186.562,387.579 173.275,390.348 				"/>
				<polygon style="opacity:0.5;fill:#FFFFFF;" points="175.521,392.853 187.734,390.902 186.562,387.579 173.275,390.348 				"/>
			</g>
			<g>
				<g>
					<polygon style="fill:#263238;" points="220.023,288.581 220.216,293.276 196.357,293.173 196.304,289.713 					"/>
					<polygon style="fill:#263238;" points="221.4,288.516 233.237,287.951 233.49,293.334 221.4,293.282 					"/>
				</g>
				<path style="fill:#FFFFFF;" d="M203.606,293.334l4.633,0.229c0.462,0.023,0.843-0.294,0.843-0.707v-3.306
					c0-0.414-0.381-0.73-0.843-0.707l-4.633,0.23c-0.369,0.018-0.664,0.326-0.664,0.687v2.887
					C202.942,293.008,203.237,293.316,203.606,293.334z"/>
			</g>
			<g>
				<polygon style="fill:#E4897B;" points="205.157,400.838 197.604,400.469 193.259,385.889 200.812,386.259 				"/>
				<polygon style="opacity:0.2;enable-background:new    ;" points="200.812,386.259 193.259,385.889 195.505,393.41 
					203.058,393.779 				"/>
			</g>
			<path style="fill:#263238;" d="M196.515,399.406l7.34-3.835c0.248-0.128,0.552-0.067,0.732,0.146l4.003,4.757
				c0.354,0.428,0.293,1.062-0.136,1.416c-0.057,0.047-0.12,0.088-0.186,0.122c-2.395,1.202-4.201,1.96-7.182,3.518
				c-1.837,0.96-7.278,4.048-9.814,5.373c-2.536,1.325-4.176-1.007-3.259-1.78c4.127-3.448,6.897-6.686,7.689-8.802
				C195.845,399.922,196.137,399.595,196.515,399.406z"/>
			<path style="fill:#407BFF;" d="M195.071,401.51c-0.393,0.247-0.86,0.353-1.321,0.299c-0.324-0.068-0.59-0.3-0.701-0.612
				c-0.093-0.168-0.079-0.375,0.037-0.528c0.488-0.695,3.067-0.516,3.354-0.491c0.064-0.001,0.122,0.041,0.141,0.102
				c0.023,0.063,0.006,0.134-0.043,0.179C196.089,400.863,195.597,401.216,195.071,401.51z M193.517,400.728
				c-0.067,0.028-0.124,0.075-0.164,0.135c-0.038,0.02-0.057,0.098-0.004,0.217c0.076,0.206,0.249,0.361,0.461,0.415
				c0.838-0.047,1.628-0.41,2.208-1.017C195.176,400.4,194.327,400.485,193.517,400.728z"/>
			<path style="fill:#407BFF;" d="M196.503,400.488l-0.069,0.036c-0.799-0.013-2.701-0.712-2.911-1.414
				c-0.071-0.243,0.04-0.501,0.264-0.618c0.204-0.144,0.461-0.192,0.704-0.133c0.997,0.203,2.05,1.864,2.102,1.944
				c0.028,0.052,0.028,0.115-0.001,0.167C196.565,400.486,196.534,400.492,196.503,400.488z M194.008,398.671l-0.069,0.036
				c-0.184,0.096-0.143,0.212-0.131,0.255c0.128,0.432,1.423,1.037,2.29,1.181c-0.4-0.667-0.994-1.196-1.703-1.517
				C194.265,398.593,194.127,398.609,194.008,398.671z"/>
			<g>
				<polygon style="fill:#407BFF;" points="192.23,391.177 204.545,392.31 204.233,388.801 190.674,388.194 				"/>
				<polygon style="opacity:0.5;fill:#FFFFFF;" points="192.23,391.177 204.545,392.31 204.233,388.801 190.674,388.194 				"/>
			</g>
			<path style="opacity:0.2;enable-background:new    ;" d="M187.382,325.031c-9.669,0.139-19.156,0.48-20.042,1.302
				c-0.267,0.246-0.299,1.035-0.149,2.273c-6.615-21.963,26.733-21.963,26.733-21.963
				C196.922,311.563,193.081,319.257,187.382,325.031z"/>
			<g>
				<path style="fill:#263238;" d="M233.181,296.729c0,0,5.43,18.599-3.348,26.809c-8.778,8.21-36.842,4.433-36.842,4.433
					l9.957,61.863h-10.667c0,0-26.085-59.066-20.2-73.473c5.885-14.408,46.862-11.399,46.862-11.399L233.181,296.729z"/>
				<path style="opacity:0.4;fill:#FFFFFF;enable-background:new    ;" d="M233.181,296.729c0,0,5.43,18.599-3.348,26.809
					c-8.778,8.21-36.842,4.433-36.842,4.433l9.957,61.863h-10.667c0,0-26.085-59.066-20.2-73.473
					c5.885-14.408,46.862-11.399,46.862-11.399L233.181,296.729z"/>
			</g>
			<path style="fill:#407BFF;" d="M200.156,241.251c4.976-1.628,12.113,0,12.113,0l-6.836,12.95l-4.976-2.533l-1.785,3.396
				c0,0-5.414-5.267-4.686-7.874C194.632,244.878,200.156,241.251,200.156,241.251z"/>
			<path style="fill:#E4897B;" d="M195.124,246.274c-0.548,0.524-1.138,0.917-1.138,0.917s2.48,4.42,8.096,3.544
				c5.607-0.884,7.228-9.266,7.228-9.266s-3.659,0.041-5.288-0.704c-1.629-0.737-5.042-5.779-5.042-5.779l-1.023,0.884l-6.352,5.493
				c0,0,4.535,2.587,4.428,3.561C195.991,245.357,195.566,245.865,195.124,246.274z"/>
			<path style="opacity:0.2;enable-background:new    ;" d="M231.734,274.942c-5.699,12.657-21.28,14.61-19.466,11.857
				c2.006-3.063,4.194-24.492,4.194-24.492s6.969-2.871,12.027-1.932C229.738,264.484,230.88,269.329,231.734,274.942z"/>
			<path style="opacity:0.2;enable-background:new    ;" d="M196.032,244.923c-0.041,0.434-0.467,0.941-0.909,1.351
				c4.756-0.974,3.356-10.372,3.356-10.372s-0.188-0.016-0.524-0.033l-6.352,5.493C191.604,241.362,196.139,243.949,196.032,244.923
				z"/>
			<g>
				<path style="fill:#263238;" d="M177.107,225.554c0,0-0.106,7.817,5.321,10.727c5.427,2.91,3.075-14.419,3.075-14.419
					L177.107,225.554z"/>
				<path style="fill:#E4897B;" d="M180.799,239.504c0.368,0.843,0.769,1.629,1.195,2.341c0.139,0.221,0.27,0.434,0.417,0.63
					c0.049,0.066,0.098,0.131,0.147,0.196c1.514,2.014,3.684,3.258,5.959,3.651c0.376,0.066,0.761,0.107,1.138,0.131
					c3.094,0.147,6.205-1.26,7.956-4.42c0.066-0.098,0.115-0.196,0.164-0.295c2.235-4.314,0.958-8.087-0.68-14.644
					c-0.336-1.416-0.982-2.726-1.924-3.839c-3.274-3.913-9.102-4.428-12.999-1.154C177.393,226.038,178.359,233.97,180.799,239.504z
					"/>
				<path style="fill:#263238;" d="M187.881,231.966c0.199,0.508,0.024,1.034-0.325,1.143c-0.349,0.109-0.754-0.235-0.921-0.757
					c-0.167-0.521-0.016-1.037,0.325-1.143C187.301,231.104,187.711,231.437,187.881,231.966z"/>
				<path style="fill:#263238;" d="M181.951,233.827c0.2,0.508,0.016,1.037-0.325,1.143c-0.34,0.106-0.754-0.235-0.921-0.756
					c-0.167-0.521-0.016-1.037,0.325-1.143C181.37,232.965,181.793,233.33,181.951,233.827z"/>
				<path style="fill:#DE5753;" d="M183.916,233.494c-0.121,1.8-0.491,3.575-1.098,5.274c0.893,0.292,1.87,0.175,2.669-0.32
					L183.916,233.494z"/>
				<path style="fill:#263238;" d="M188.495,228.173c-0.099,0.069-0.227,0.08-0.336,0.029c-0.729-0.377-1.593-0.388-2.332-0.029
					c-0.152,0.091-0.349,0.042-0.44-0.109c-0.091-0.152-0.042-0.349,0.11-0.44c0,0,0.001,0,0.001-0.001
					c0.922-0.477,2.018-0.478,2.94-0.001c0.161,0.073,0.233,0.263,0.16,0.424c-0.001,0.002-0.002,0.005-0.003,0.007
					C188.568,228.098,188.535,228.138,188.495,228.173z"/>
				<path style="fill:#263238;" d="M187.022,240.478L187.022,240.478c1.292-0.969,2.029-2.507,1.977-4.122
					c-0.01-0.093-0.093-0.162-0.186-0.154c-0.091,0.005-0.161,0.083-0.155,0.173c0,0.004,0.001,0.008,0.001,0.013
					c0.018,1.494-0.669,2.908-1.853,3.819c-0.074,0.053-0.091,0.156-0.038,0.23c0.004,0.005,0.008,0.01,0.011,0.014
					c0.053,0.074,0.156,0.091,0.23,0.038C187.013,240.486,187.018,240.482,187.022,240.478z"/>
				<path style="fill:#263238;" d="M178.666,232.023c-0.065,0.008-0.13-0.004-0.188-0.035c-0.137-0.113-0.156-0.315-0.043-0.452
					c0.001-0.002,0.003-0.004,0.005-0.005c0.657-0.808,1.666-1.245,2.705-1.172c0.176,0.023,0.3,0.184,0.277,0.359
					c0,0,0,0.001,0,0.001c-0.027,0.174-0.186,0.296-0.36,0.277l0,0c-0.822-0.034-1.611,0.323-2.128,0.963
					C178.859,232.018,178.761,232.042,178.666,232.023z"/>
				<path style="fill:#263238;" d="M200.741,236.822L200.741,236.822c-0.852,0.678-2.136,0.166-2.257-0.917
					c-0.236-2.124-0.857-3.938-1.401-3.947c-0.95-0.017-0.733,1.047-0.733,1.047c-2.251-1.011-4.609-4.406-4.314-7.072
					c0.211-1.911-1.886-3.05-3.579-2.219c0,0,6.555-4.721,8.426-3.298c1.871,1.423,4.39,6.223,4.419,12.345
					C201.309,234.43,201.077,235.758,200.741,236.822z"/>
				<path style="fill:#E4897B;" d="M201.566,231.497c-0.257,1.682-1.171,3.193-2.541,4.202c-1.823,1.323-3.516-0.121-3.67-2.252
					c-0.118-1.895,0.659-4.922,2.815-5.382C200.327,227.604,201.856,229.428,201.566,231.497z"/>
				<path style="fill:#263238;" d="M191.604,222.633c0,0-10.235,7.669-15.864,4.631c-5.629-3.038,0-9.371,0-9.371
					s0.141,2.825,1.97,2.257c0,0-1.287-2.679,1.467-3.805c0,0-0.539,1.97,1.46,1.97c1.998,0,4.61-3.377,10.13-3.237
					c5.52,0.141,9.481,5.153,7.906,8.584C197.096,227.094,191.604,222.633,191.604,222.633z"/>
			</g>
			<g>
				<path style="fill:#407BFF;" d="M207.039,240.264l-6.583,10.676l-5.807-5.338c0,0-3.032,4.181,3.823,10.683l2.038-4.159
					l5.556,2.939l6.203-13.814L207.039,240.264z"/>
				<path style="opacity:0.6;fill:#FFFFFF;" d="M207.039,240.264l-6.583,10.676l-5.807-5.338c0,0-3.032,4.181,3.823,10.683
					l2.038-4.159l5.556,2.939l6.203-13.814L207.039,240.264z"/>
			</g>
			<g>
				<g>
					<path style="fill:#FF8B7B;" d="M228.9,258.594c-0.056,4.535-0.295,8.96-0.796,13.483c-0.238,2.264-0.548,4.515-0.979,6.864
						c-0.106,0.588-0.245,1.196-0.373,1.79c-0.14,0.608-0.324,1.261-0.489,1.886l-0.362,1.077l-0.204,0.569
						c-0.082,0.202-0.171,0.401-0.267,0.597c-0.09,0.173-0.179,0.326-0.274,0.487c-0.747,1.174-1.411,1.737-2.025,2.28
						c-1.218,1.012-2.323,1.645-3.415,2.26c-1.091,0.601-2.159,1.123-3.225,1.613c-2.144,0.947-4.258,1.796-6.398,2.543
						c-4.27,1.526-8.551,2.751-12.956,3.774c-1.365,0.317-2.729-0.533-3.046-1.898c-0.271-1.167,0.31-2.333,1.338-2.845l0.042-0.02
						c3.887-1.938,7.814-3.913,11.62-5.895c1.893-1.014,3.78-2.011,5.544-3.09c0.887-0.524,1.75-1.062,2.537-1.61
						c0.782-0.537,1.517-1.128,1.952-1.573c0.2-0.194,0.319-0.425,0.141-0.195c-0.029,0.04-0.048,0.075-0.074,0.125
						c-0.041,0.069-0.075,0.142-0.103,0.218c-0.005-0.013,0.027-0.151,0.039-0.219l0.114-0.504l0.207-1.341l0.177-1.466
						c0.231-2.005,0.337-4.139,0.476-6.261l0.615-12.891l0.003-0.062c0.134-2.81,2.52-4.979,5.33-4.845
						C226.795,253.574,228.93,255.867,228.9,258.594z"/>
				</g>
				<path style="fill:#FF8B7B;" d="M196.533,292.053l-6.79,0.377l2.716,7.691c0,0,6.107-1.087,6.054-4.425L196.533,292.053z"/>
				<path style="fill:#FF8B7B;" d="M184.991,297.657l1.406,2.535c0.56,1.009,1.768,1.465,2.855,1.076l3.206-1.147l-2.716-7.691
					l-3.79,1.999C184.784,295.045,184.35,296.501,184.991,297.657z"/>
				<path style="fill:#407BFF;" d="M218.908,241.696c9.745,0.825,12.196,8.779,11.211,19.367
					c-0.985,10.588-1.044,14.186-1.044,14.186h-12.243c0,0-0.563-19.359-0.563-21.189S218.908,241.696,218.908,241.696z"/>
				<path style="opacity:0.7;fill:#FFFFFF;enable-background:new    ;" d="M218.908,241.696c9.745,0.825,12.196,8.779,11.211,19.367
					c-0.985,10.588-1.044,14.186-1.044,14.186h-12.243c0,0-0.563-19.359-0.563-21.189S218.908,241.696,218.908,241.696z"/>
				<polygon style="fill:#407BFF;" points="216.269,273.199 232.031,272.073 229.216,277.843 216.269,277.843 				"/>
				<polygon style="fill:#407BFF;" points="216.269,273.199 232.031,272.073 229.216,277.843 216.269,277.843 				"/>
				<polygon style="opacity:0.6;fill:#FFFFFF;" points="216.269,273.199 232.031,272.073 229.216,277.843 216.269,277.843 				"/>
			</g>
			<g>
				<path style="fill:#407BFF;" d="M144.836,300.708v2.669c0,0.684,0.806,0.965,1.482,0.965h53.332c0.685,0,1.509-0.28,1.509-0.965
					v-2.669H144.836z"/>
				<path style="opacity:0.4;fill:#FFFFFF;enable-background:new    ;" d="M144.836,300.708v2.669c0,0.684,0.806,0.965,1.482,0.965
					h53.332c0.685,0,1.509-0.28,1.509-0.965v-2.669H144.836z"/>
				<path style="opacity:0.2;enable-background:new    ;" d="M144.836,300.708v2.669c0,0.684,0.806,0.965,1.482,0.965h35.176
					c0.684,0,1.497-0.28,1.497-0.965v-2.669H144.836z"/>
				<path style="fill:#407BFF;" d="M135.912,273l6.349,28.798c0.206,0.948,1.13,1.637,2.061,1.637h34.681
					c0.924,0,1.517-0.861,1.303-1.809l-6.341-28.578c-0.214-0.94-1.13-1.409-2.061-1.409h-34.681
					C136.292,271.638,135.706,272.06,135.912,273z"/>
				<path style="opacity:0.4;fill:#FFFFFF;enable-background:new    ;" d="M135.912,273l6.349,28.798
					c0.206,0.948,1.13,1.637,2.061,1.637h33.502c0.932,0,1.517-0.861,1.311-1.809l-6.349-28.578c-0.206-0.94-1.13-1.409-2.061-1.409
					h-33.502C136.292,271.638,135.706,272.06,135.912,273z"/>
				<path style="opacity:0.2;enable-background:new    ;" d="M153.012,287.637v0.008c0,2.466,2.644,4.469,4.581,4.469
					c1.938,0,3.086-2.004,2.534-4.469c-0.553-2.416-2.481-4.387-4.377-4.461c0.553,2.465-0.631,4.461-2.561,4.461
					C153.148,287.645,153.012,287.645,153.012,287.637z"/>
			</g>
		</g>
	</g>
</g>
<g id="Character_2">
	<g>
		<g>
			<g>
				<path style="fill:#B97864;" d="M308.206,222.108l2.479,7.874c0.824,2.625,1.638,5.252,2.486,7.834
					c0.42,1.291,0.853,2.572,1.305,3.806c0.223,0.618,0.448,1.223,0.676,1.783c0.115,0.286,0.226,0.538,0.334,0.78l0.143,0.298
					c0.027,0.047,0.052,0.104,0.057,0.127c-0.077,0.042,0.155,0.399,0.483,0.709c0.327,0.326,0.76,0.694,1.246,1.036
					c0.949,0.697,2.112,1.432,3.179,2.145l-0.893,3.864c-1.628,0.039-3.118-0.09-4.714-0.513c-0.787-0.213-1.598-0.478-2.438-0.907
					c-0.832-0.443-1.734-0.936-2.64-2.018c-0.216-0.246-0.359-0.495-0.524-0.738l-0.363-0.614c-0.208-0.378-0.403-0.748-0.574-1.096
					c-0.348-0.705-0.662-1.382-0.954-2.054c-0.58-1.348-1.11-2.674-1.625-4.001c-1.017-2.655-1.956-5.305-2.841-7.97
					c-0.878-2.671-1.721-5.327-2.493-8.045L308.206,222.108z"/>
			</g>
			<path style="fill:#407BFF;" d="M296.449,219.508c-1.288,3.343,7.568,16.765,7.568,16.765l9.984-5.516
				c0,0-4.199-11.947-8.33-13.999C302.163,215.015,298.09,215.249,296.449,219.508z"/>
			<path style="opacity:0.6;fill:#FFFFFF;" d="M296.449,219.508c-1.288,3.343,7.568,16.765,7.568,16.765l9.984-5.516
				c0,0-4.199-11.947-8.33-13.999C302.163,215.015,298.09,215.249,296.449,219.508z"/>
		</g>
		<path style="fill:#B97964;" d="M270.875,394.518l4.113,2.418c0,0,1.993-2.836,6.251-7.409v-0.008
			c1.192-1.26,2.444-2.657,3.747-4.156c2.606-2.989,5.424-6.404,8.379-10.074c0.868-1.081,1.754-2.188,2.648-3.313
			c10.295-12.952,21.425-28.178,25.589-38.473c1.294-3.202,1.924-5.918,1.644-7.953c-0.843-6.148-3.236-15.405-5.969-24.346
			c-4.156-13.667-8.831-26.62-8.831-26.62l-11.487,19.458c0,0,3.525,8.405,6.736,17.355c3.159,8.788,6.012,18.112,4.956,20.539
			c-0.102,0.238-0.23,0.519-0.375,0.818c-1.908,3.951-7.187,12.901-13.182,22.788c-0.604,0.996-1.218,2.001-1.831,3.006
			c-3.219,5.28-6.566,10.704-9.665,15.686c-1.209,1.959-2.384,3.849-3.5,5.637C274.817,388.361,270.875,394.518,270.875,394.518z"/>
		<path style="opacity:0.2;enable-background:new    ;" d="M296.246,371.977c-5.433,6.829-10.653,13.029-14.536,17.542
			c-0.554-2.776-1.116-6.063-1.558-9.648c4.488-7.204,9.98-16.094,14.97-24.329C295.08,359.902,295.241,366.349,296.246,371.977z"/>
		<path style="fill:#B97964;" d="M275.746,315.672c1.422,9.699,3.449,18.487,4.769,23.724c0.792,3.142,1.328,4.999,1.328,4.999
			c-0.076,9.784,0.707,20.267,1.754,29.838c0.434,3.9,0.903,7.647,1.388,11.13c1.788,12.892,3.67,22.149,3.67,22.149l4.896-0.639
			l-0.187-31.584l-0.102-16.742l-0.136-22.779l-0.051-3.968l-0.238-17.321l-0.349-25.547l-17.031-7.664
			C273.174,290.977,274.025,303.989,275.746,315.672z"/>
		<path style="opacity:0.2;enable-background:new    ;" d="M321.32,315.831c-4.352,3.006-10.227,4.811-14.247,5.782
			c-0.928-3.176-2.129-6.744-3.381-10.219c-3.21-8.95-6.736-17.355-6.736-17.355l11.487-19.458c0,0,4.675,12.952,8.831,26.62
			C318.799,306.174,320.213,311.25,321.32,315.831z"/>
		<path style="opacity:0.2;enable-background:new    ;" d="M292.98,325.198c-6.378-0.17-11.598-0.596-15.83-1.141
			c-0.494-2.665-0.979-5.484-1.405-8.388c-1.72-11.683-2.572-24.695-0.29-34.403l17.031,7.664l0.349,25.547L292.98,325.198z"/>
		<path style="fill:#263238;" d="M322.144,314.138c-10.653,6.259-41.988,8.914-41.988,8.914l-5.126-14.408l0.559,14.252h-1.518
			c0,0-11.452-38.741,3.761-64.136l27.25-2.103l2.98,14.034C308.061,270.69,315.74,290.806,322.144,314.138z"/>
		<path style="fill:#2E353A;" d="M302.163,413.788c-0.804-0.482-1.69-0.812-2.612-0.975l0,0c0,0-3.009-2.242-5.397-9.941
			l-3.581-0.41c-1.242-0.121-2.428,0.547-2.967,1.673c-0.076,0.153-0.128,0.316-0.155,0.485c-0.058,0.87-0.06,1.742-0.005,2.612
			c0.031,2.716,1.178,8.659,1.178,8.659l0.624-0.089l-0.523-5.467c-0.169-1.857,1.549,0.106,2.235,2.034
			c0.686,1.928,1.844,3.92,5.9,3.445C301.588,415.237,303.519,414.775,302.163,413.788z"/>
		<path style="fill:#B97964;" d="M293.164,400.141c0,0,1.277,3.487,2.98,7.319s3.406,5.354,3.406,5.354s-2.958,0.961-4.555-0.894
			c-1.597-1.855-4.328-8.554-7.391-7.784c0,0,0.224-0.8,0.683-1.558C288.747,401.818,293.164,400.141,293.164,400.141z"/>
		<path style="fill:#2E353A;" d="M272.159,410.76c-0.172-0.921-0.512-1.803-1.001-2.602l0,0c0,0-0.315-3.74,3.868-10.629
			l-2.066-2.954c-0.733-1.01-2.019-1.455-3.219-1.114c-0.165,0.044-0.322,0.113-0.466,0.205c-0.69,0.533-1.344,1.11-1.96,1.727
			c-2.013,1.823-5.703,6.621-5.703,6.621l0.48,0.409l3.748-4.015c1.278-1.357,0.947,1.23-0.042,3.022
			c-0.989,1.792-1.713,3.978,1.33,6.702C270.693,411.289,272.319,412.429,272.159,410.76z"/>
		<path style="fill:#B97964;" d="M276.415,394.977c0,0-1.764,3.267-3.505,7.082c-1.741,3.815-1.752,6.099-1.752,6.099
			s-2.68-1.579-2.349-4.004c0.331-2.425,3.538-8.91,0.931-10.693c0,0,0.748-0.362,1.62-0.521
			C272.232,392.78,276.415,394.977,276.415,394.977z"/>
		<g>
			<g>
				<polygon style="fill:#263238;" points="277.587,255.974 277.432,260.085 305.594,258.99 305.778,254.128 				"/>
				<polygon style="opacity:0.2;fill:#FFFFFF;enable-background:new    ;" points="277.587,255.974 277.432,260.085 305.594,258.99 
					305.778,254.128 				"/>
			</g>
			
				<rect x="285.731" y="254.609" transform="matrix(0.9999 -0.0133 0.0133 0.9999 -3.4152 3.8403)" style="fill:#263238;" width="1.396" height="7.109"/>
			
				<rect x="302.958" y="253.372" transform="matrix(0.9999 -0.0133 0.0133 0.9999 -3.3974 4.07)" style="fill:#263238;" width="1.396" height="7.109"/>
			<g>
				<path style="fill:#FFFFFF;" d="M298.836,254.867c-0.337-0.313-0.792-0.477-1.255-0.438l-3.327,0.262
					c-0.861,0.068-1.515,0.77-1.522,1.634l-0.016,2.123c-0.003,0.462,0.189,0.907,0.527,1.221c0.303,0.282,0.703,0.439,1.113,0.443
					c0.048,0,0.096-0.002,0.144-0.006l3.327-0.269c0.859-0.069,1.512-0.771,1.518-1.634l0.016-2.116
					C299.366,255.627,299.174,255.182,298.836,254.867z M297.76,258.989l-3.326,0.269c-0.228,0.02-0.443-0.057-0.61-0.212
					c-0.166-0.154-0.257-0.365-0.255-0.592l0.016-2.123c0.003-0.418,0.32-0.759,0.737-0.792l3.326-0.262
					c0.024-0.001,0.047-0.003,0.071-0.003c0.2,0.001,0.389,0.077,0.537,0.215c0.166,0.154,0.256,0.365,0.255,0.591l-0.003,0.322
					c-0.043-0.007-0.085-0.021-0.13-0.017l-0.931,0.065c-0.31,0.022-0.546,0.293-0.524,0.603c0.022,0.31,0.293,0.546,0.603,0.524
					l0.931-0.065c0.016-0.001,0.028-0.01,0.044-0.012l-0.005,0.697C298.492,258.616,298.176,258.956,297.76,258.989z"/>
			</g>
		</g>
		<g>
			<path style="fill:#407BFF;" d="M269.935,219.963c0.605,1.54,0.359,2.127,0.857,3.507c0.552,1.478,1.059,2.866,1.513,4.184
				c1.095,3.098,1.949,5.777,2.635,8.154c2.101,7.344,2.457,21.461,2.457,21.461l28.337-1.982
				c1.966-26.267-2.541-39.239-2.541-39.239s-0.712-0.062-1.852-0.143c-2.163-0.151-5.875-0.374-9.257-0.347
				c-4.006,0.124-7.985,0.507-11.928,1.13C277.477,217.087,273.187,217.787,269.935,219.963z"/>
			<g style="opacity:0.6;">
				<path style="fill:#FFFFFF;" d="M269.935,219.963c0.605,1.54,0.359,2.127,0.857,3.507c0.552,1.478,1.059,2.866,1.513,4.184
					c1.095,3.098,1.949,5.777,2.635,8.154c2.101,7.344,2.457,21.461,2.457,21.461l28.337-1.982
					c1.966-26.267-2.541-39.239-2.541-39.239s-0.712-0.062-1.852-0.143c-2.163-0.151-5.875-0.374-9.257-0.347
					c-4.006,0.124-7.985,0.507-11.928,1.13C277.477,217.087,273.187,217.787,269.935,219.963z"/>
			</g>
		</g>
		<g>
			<path style="fill:#B97964;" d="M290.583,221.667c-6.228-2.616-7.404-5.912-7.404-5.912c5.168-2.73,3.621-10.371,3.621-10.371
				l7.37,3.605c-0.56,1.228-0.946,2.281-1.211,3.188c-1.366,4.701,0.754,5.338,0.754,5.338
				C294.369,220.449,290.583,221.667,290.583,221.667z"/>
			<path style="opacity:0.2;enable-background:new    ;" d="M294.169,208.989c-0.56,1.228-0.946,2.281-1.211,3.188
				c-3.506-1.907-6.159-6.793-6.159-6.793L294.169,208.989z"/>
		</g>
		<polygon style="fill:#407BFF;" points="281.938,216.423 286.326,226.011 291.061,221.973 296.073,224.043 295.494,215.601 
			292.466,213.239 291.061,221.361 284.381,213.609 		"/>
		<polygon style="opacity:0.4;fill:#FFFFFF;" points="281.938,216.423 286.326,226.011 291.061,221.973 296.073,224.043 
			295.494,215.601 292.466,213.239 291.061,221.361 284.381,213.609 		"/>
		<g>
			<path style="fill:#263238;" d="M307.149,185.81c0,0,3.23,0.057,3.813,3.946c0.583,3.888-1.952,4.309-1.952,4.309
				s1.288,4.264-2.973,4.036c-4.261-0.228-20.082-0.613-20.082-0.613s-2.713-1.613-2.777-3.967
				c-0.064-2.355,1.697-3.764,1.697-3.764s-3.056-3.171,0.945-6.275C289.822,180.376,307.149,185.81,307.149,185.81z"/>
			<path style="fill:#263238;" d="M296.073,178.883c0,0,2.559-2.439-0.243-5.649c0,0,1.135-4.231-2.802-5.397
				c-3.937-1.167-5.997,1.458-5.997,1.458s-3.524-3.791-6.491-1.312c-2.967,2.479-1.071,6.139-1.071,6.139s-4.754,0.187-3.252,4.095
				c1.503,3.908,4.324,3.471,4.324,3.471s-1.845,1.458,0,3.499c1.845,2.041,7.277,0,7.277,0L296.073,178.883z"/>
			<path style="fill:#263238;" d="M300.461,189.756c0,0,0.909,8.149,0.134,11.14c1.915,3.259,7.089-4.587,8.415-10.476
				C302.692,190.702,300.461,189.756,300.461,189.756z"/>
			<path style="fill:#B97964;" d="M287.452,191.343c-1.796,6.827-2.702,9.679-0.455,14.228c3.38,6.843,12.159,7.556,15.958,1.403
				c3.42-5.538,5.783-15.773,0.111-20.596C297.477,181.625,289.248,184.515,287.452,191.343z"/>
			<path style="fill:#263238;" d="M285.552,187.146c0,0,0.264,6.528-0.52,8.862c1.339,2.698,5.893-3.247,7.279-7.853
				C293.345,183.984,285.552,187.146,285.552,187.146z"/>
			<path style="fill:#407BFF;" d="M287.262,177.813c-2.012,1.612-2.658,4.149-1.442,5.668s3.833,1.443,5.846-0.169
				c2.012-1.612,2.658-4.149,1.442-5.668C291.892,176.125,289.275,176.201,287.262,177.813z"/>
			<path style="fill:#263238;" d="M307.149,185.81c-0.391-3.44-6.256-8.077-13.893-7.552c-6.883,0.473-10.87,8.319-6.647,10.16
				c4.224,1.841,10.815-0.621,10.815-0.621L307.149,185.81z"/>
			<path style="fill:#B97964;" d="M283.935,196.439c-0.052,1.463,0.576,2.813,1.409,3.68c1.254,1.304,2.796,0.404,3.213-1.259
				c0.376-1.496,0.177-3.978-1.45-4.662C285.505,193.525,283.995,194.767,283.935,196.439z"/>
			<path style="fill:#263238;" d="M297.643,196.81c-0.18,0.545-0.037,1.082,0.32,1.199c0.356,0.117,0.79-0.229,0.97-0.774
				c0.18-0.545,0.037-1.082-0.32-1.199C298.257,195.919,297.823,196.266,297.643,196.81z"/>
			<path style="fill:#263238;" d="M303.802,198.842c-0.18,0.545-0.037,1.082,0.319,1.199c0.356,0.117,0.791-0.229,0.97-0.774
				c0.18-0.545,0.037-1.082-0.319-1.199C304.416,197.95,303.981,198.297,303.802,198.842z"/>
			<path style="fill:#263238;" d="M304.605,198.046l1.433,0.054C306.038,198.1,305.029,198.901,304.605,198.046z"/>
			<path style="fill:#A24E3F;" d="M301.207,198.991c0,0,0.151,2.651,0.796,4.118c-0.941,0.434-2.063-0.276-2.063-0.276
				L301.207,198.991z"/>
			<path style="fill:#263238;" d="M296.355,203.895c-1.737-0.978-2.176-2.56-2.196-2.637c-0.02-0.075,0.025-0.151,0.099-0.171
				c0.074-0.02,0.151,0.024,0.171,0.099c0.006,0.021,0.583,2.078,2.981,2.868c0.077,0.024,0.113,0.104,0.089,0.177
				c-0.024,0.074-0.103,0.113-0.177,0.089C296.963,204.201,296.641,204.056,296.355,203.895z"/>
			<path style="fill:#263238;" d="M295.383,193.033c-0.043-0.024-0.08-0.06-0.106-0.106c-0.076-0.135-0.029-0.305,0.106-0.382
				c1.596-0.902,2.958-0.215,3.016-0.185c0.139,0.086,0.19,0.24,0.119,0.376c-0.07,0.137-0.239,0.192-0.376,0.122
				c-0.047-0.024-1.159-0.573-2.483,0.175C295.57,193.083,295.465,193.08,295.383,193.033z"/>
			<path style="fill:#263238;" d="M306.904,196.931c-0.04-0.023-0.075-0.056-0.101-0.098c-0.801-1.309-2.071-1.36-2.084-1.36
				c-0.156-0.005-0.276-0.134-0.272-0.288c0.004-0.155,0.133-0.276,0.288-0.272c0.065,0.002,1.59,0.063,2.545,1.628
				c0.081,0.132,0.039,0.305-0.093,0.385C307.099,196.981,306.99,196.979,306.904,196.931z"/>
			<path style="fill:#263238;" d="M298.446,196.015l1.433,0.054C299.879,196.069,298.87,196.87,298.446,196.015z"/>
			<path style="fill:#263238;" d="M303.598,180.997c0,0,5.032-0.739,6.344,3.038c1.312,3.777-5.527,7.228-7.939,5.721
				c0,0-5.328,4.563-8.682,0.362c0,0-3.276,1.821-5.502-0.898C285.594,186.5,298.42,175.931,303.598,180.997z"/>
		</g>
		<g>
			
				<rect x="296.92" y="219.038" transform="matrix(0.788 0.6156 -0.6156 0.788 202.5112 -135.4549)" style="fill:#263238;" width="2.08" height="14.634"/>
			<path style="fill:#263238;" d="M312.279,208.925c-0.147-0.115-0.724-0.566-0.871-0.681c-2.318-1.811-6.35-0.522-9.007,2.878
				c-2.656,3.4-2.931,7.625-0.613,9.436c0.147,0.115,0.724,0.566,0.871,0.681c2.318,1.811,6.35,0.522,9.007-2.878
				C314.323,214.96,314.597,210.736,312.279,208.925z M304.143,212.484c2.055-2.631,5.098-3.877,6.978-2.975
				c1.331,1.606,0.857,4.86-1.198,7.491c-2.055,2.63-5.098,3.877-6.978,2.975C301.615,218.368,302.088,215.115,304.143,212.484z
				 M311.203,217.119c-0.129,0.19-0.264,0.377-0.408,0.562c-0.144,0.184-0.293,0.361-0.446,0.532
				c0.152-0.172,0.302-0.347,0.446-0.532C310.939,217.496,311.073,217.308,311.203,217.119z M303.716,211.274
				c-0.151,0.171-0.3,0.346-0.443,0.529c-0.143,0.183-0.276,0.37-0.406,0.558c0.128-0.189,0.263-0.375,0.406-0.558
				C303.415,211.62,303.563,211.444,303.716,211.274z"/>
			<path style="opacity:0.2;fill:#FFFFFF;" d="M312.279,208.925c-2.318-1.811-6.35-0.522-9.007,2.878
				c-2.656,3.4-2.931,7.625-0.613,9.436c2.318,1.811,6.35,0.522,9.007-2.878C314.323,214.96,314.597,210.736,312.279,208.925z
				 M303.339,220.368c-1.802-1.408-1.434-5.019,0.804-7.884c2.238-2.865,5.652-4.096,7.455-2.688
				c1.803,1.409,1.435,5.019-0.804,7.884C308.556,220.546,305.142,221.776,303.339,220.368z"/>
		</g>
		<g>
			<path style="opacity:0.2;enable-background:new    ;" d="M280.235,232.263c0,0,2.769,9.116-3.815,11.608
				C269.836,246.364,280.235,232.263,280.235,232.263z"/>
			<g>
				<path style="fill:#B97864;" d="M279.106,227.363l-0.497,10.313c-0.067,1.689-0.096,3.392-0.037,4.895
					c0.043,0.701,0.105,1.376,0.141,1.456c0.001,0.047-0.056-0.093-0.391-0.334c-0.323-0.246-0.849-0.293-0.962-0.257
					c-0.26,0.093,0.322-0.001,0.832-0.299c0.548-0.296,1.164-0.713,1.782-1.174c1.239-0.937,2.474-2.069,3.694-3.235
					c2.419-2.356,4.816-4.931,7.109-7.497l3.254,2.267c-1.804,3.189-3.763,6.192-6.051,9.105c-1.144,1.457-2.368,2.872-3.802,4.247
					c-0.722,0.689-1.503,1.361-2.454,2.001c-0.484,0.319-1.01,0.634-1.649,0.918c-0.641,0.278-1.401,0.551-2.429,0.624
					c-0.994,0.096-2.42-0.197-3.462-0.956c-1.064-0.75-1.618-1.662-1.989-2.408c-0.706-1.537-0.813-2.654-1.009-3.694
					c-0.279-2.015-0.362-3.85-0.419-5.692c-0.091-3.674,0.043-7.231,0.352-10.863L279.106,227.363z"/>
			</g>
			<path style="fill:#B97964;" d="M290.693,230.873l3.783-5.103l3.429,6.595c0,0-3.469,1.935-6.355,1.292L290.693,230.873z"/>
			<polygon style="fill:#B97964;" points="299.185,224.567 300.818,229.939 297.906,232.365 294.476,225.77 			"/>
			<path style="fill:#407BFF;" d="M270.558,219.583c-2.914,2.084-2.898,18.164-2.898,18.164l11.372,0.883
				c0,0,3.063-12.288,0.74-16.273C277.801,218.973,274.271,216.929,270.558,219.583z"/>
			<path style="opacity:0.6;fill:#FFFFFF;" d="M270.558,219.583c-2.914,2.084-2.898,18.164-2.898,18.164l11.372,0.883
				c0,0,3.063-12.288,0.74-16.273C277.801,218.973,274.271,216.929,270.558,219.583z"/>
		</g>
		<g>
			<path style="fill:#407BFF;" d="M315.71,241.466c0,0,0.501-9.732,10.889-11.372l-1.203,1.968l2.296-1.357l-10.498,13.167
				L315.71,241.466z"/>
			<path style="opacity:0.8;fill:#FFFFFF;" d="M315.71,241.466c0,0,0.501-9.732,10.889-11.372l-1.203,1.968l2.296-1.357
				l-10.498,13.167L315.71,241.466z"/>
			<path style="fill:#407BFF;" d="M299.256,230.664l3.61-0.118l17.282,5.866L304.4,260.472l-15.497-3.871
				c-1.062-0.265-1.584-1.465-1.055-2.424l6.259-11.32c0.124-0.224,0.122-0.496-0.004-0.719l-0.854-1.508
				c-0.168-0.298-0.173-0.661-0.012-0.962l4.2-7.874C297.798,231.12,298.491,230.689,299.256,230.664z"/>
			<polygon style="fill:#407BFF;" points="320.147,236.411 329.989,230.093 313.805,254.128 304.4,260.472 			"/>
			<polygon style="opacity:0.2;enable-background:new    ;" points="320.147,236.411 329.989,230.093 313.805,254.128 
				304.4,260.472 			"/>
		</g>
		<path style="fill:#B97964;" d="M321.824,245.658l-4.159-1.786l-2.446,5.053l1.429,2.492c0,0,0.546,1.941,2.667,1.246
			c1.046-0.342,2.29-2.487,2.618-3.537C322.193,248.298,321.824,245.658,321.824,245.658z"/>
	</g>
</g>
</svg>
