<svg xmlns="http://www.w3.org/2000/svg" xmlns:xlink="http://www.w3.org/1999/xlink" width="500" zoomAndPan="magnify" viewBox="0 0 375 374.999991" height="500" preserveAspectRatio="xMidYMid meet" version="1.0"><path fill="#38a648" d="M 161.511719 157.464844 C 161.511719 171.929688 173.28125 183.699219 187.746094 183.699219 C 196.632812 183.699219 204.496094 179.253906 209.242188 172.472656 L 187.742188 172.472656 L 187.742188 151.648438 L 227.203125 151.648438 C 228.933594 145.128906 229.871094 138.285156 229.902344 131.226562 L 187.742188 131.226562 C 173.277344 131.230469 161.511719 143 161.511719 157.464844 Z M 161.511719 157.464844 " fill-opacity="0.79" fill-rule="nonzero"/><path fill="#38a648" d="M 140.6875 157.464844 C 140.6875 131.515625 161.796875 110.40625 187.742188 110.40625 L 227.289062 110.40625 L 207.28125 90.402344 C 196.316406 79.433594 178.539062 79.433594 167.574219 90.402344 L 120.019531 137.957031 C 109.054688 148.921875 109.054688 166.699219 120.019531 177.664062 L 153.917969 211.558594 C 164.234375 210.949219 174.027344 208.402344 182.941406 204.277344 C 159.242188 201.867188 140.6875 181.792969 140.6875 157.464844 Z M 140.6875 157.464844 " fill-opacity="0.79" fill-rule="nonzero"/><path fill="#17b5a4" d="M 169.007812 139.128906 C 174.179688 145.679688 180.535156 151.257812 187.742188 155.542969 L 187.742188 151.652344 L 234.800781 151.652344 L 234.800781 163.949219 C 245 162.085938 254.402344 157.953125 262.46875 152.097656 C 261.398438 146.914062 258.855469 141.976562 254.835938 137.957031 L 248.113281 131.234375 L 187.742188 131.234375 C 180.410156 131.230469 173.773438 134.257812 169.007812 139.128906 Z M 169.007812 139.128906 " fill-opacity="0.79" fill-rule="nonzero"/><path fill="#17b5a4" d="M 187.742188 110.40625 L 227.289062 110.40625 L 207.285156 90.402344 C 196.320312 79.433594 178.542969 79.433594 167.574219 90.402344 L 154.664062 103.3125 C 155.222656 109.320312 156.5625 115.105469 158.578125 120.558594 C 166.601562 114.207031 176.738281 110.40625 187.742188 110.40625 Z M 187.742188 110.40625 " fill-opacity="0.79" fill-rule="nonzero"/><path fill="#00a4c3" d="M 227.289062 110.40625 L 226.234375 109.351562 C 226.160156 109.351562 226.085938 109.347656 226.011719 109.347656 C 221.664062 109.347656 217.402344 109.714844 213.253906 110.40625 Z M 227.289062 110.40625 " fill-opacity="0.79" fill-rule="nonzero"/><path fill="#00a4c3" d="M 187.742188 204.523438 C 171.714844 204.523438 157.539062 196.464844 149.035156 184.195312 C 149.015625 184.910156 149.003906 185.632812 149.003906 186.351562 C 149.003906 194.796875 150.367188 202.921875 152.878906 210.523438 L 167.574219 225.21875 C 178.542969 236.183594 196.320312 236.183594 207.285156 225.21875 L 212.855469 219.648438 L 212.855469 197.246094 C 205.582031 201.851562 196.972656 204.523438 187.742188 204.523438 Z M 187.742188 204.523438 " fill-opacity="0.79" fill-rule="nonzero"/><path fill="#00a4c3" d="M 254.839844 137.957031 L 248.113281 131.230469 L 187.742188 131.230469 C 173.277344 131.230469 161.507812 143 161.507812 157.464844 C 161.507812 171.933594 173.277344 183.699219 187.742188 183.699219 C 196.628906 183.699219 204.492188 179.253906 209.242188 172.476562 L 187.742188 172.476562 L 187.742188 151.648438 L 234.800781 151.648438 L 234.800781 197.699219 L 254.835938 177.664062 C 265.804688 166.699219 265.804688 148.921875 254.839844 137.957031 Z M 254.839844 137.957031 " fill-opacity="0.79" fill-rule="nonzero"/><path fill="#414042" d="M 161.511719 157.464844 C 161.511719 161.535156 162.441406 165.390625 164.105469 168.832031 C 164.058594 168.195312 164.027344 167.550781 164.027344 166.898438 C 164.027344 152.433594 175.796875 140.664062 190.261719 140.664062 L 257.214844 140.664062 C 256.492188 139.726562 255.703125 138.816406 254.839844 137.957031 L 248.117188 131.230469 L 187.742188 131.230469 C 173.277344 131.230469 161.511719 143 161.511719 157.464844 Z M 161.511719 157.464844 " fill-opacity="0.24" fill-rule="nonzero"/></svg>