<svg xmlns="http://www.w3.org/2000/svg" version="1.1" xmlns:xlink="http://www.w3.org/1999/xlink" xmlns:svgjs="http://svgjs.dev/svgjs" width="1500" height="1500" viewBox="0 0 1500 1500"><g transform="matrix(1,0,0,1,-0.7499999999998863,-0.7499999999998863)"><svg viewBox="0 0 280 280" data-background-color="#ffffff" preserveAspectRatio="xMidYMid meet" height="1500" width="1500" xmlns="http://www.w3.org/2000/svg" xmlns:xlink="http://www.w3.org/1999/xlink"><g id="tight-bounds" transform="matrix(1,0,0,1,0.13999999999998636,0.13999999999998636)"><svg viewBox="0 0 279.72 279.72" height="279.72" width="279.72"><g><svg viewBox="0 0 279.72 279.72" height="279.72" width="279.72"><g><svg viewBox="0 0 279.72 279.72" height="279.72" width="279.72"><g id="textblocktransform"><svg viewBox="0 0 279.72 279.72" height="279.72" width="279.72" id="textblock"><g><svg viewBox="0 0 279.72 279.72" height="279.72" width="279.72"><g transform="matrix(1,0,0,1,57.446704652707865,57.446704652707865)"><svg viewBox="0 0 164.8265906945843 164.8265906945843" height="164.8265906945843" width="164.8265906945843"><g id="icon-0"><circle r="82" cx="82.41329534729215" cy="82.41329534729215" fill="#91abbb" data-fill-palette-color="accent"></circle><svg version="1.1" xmlns:rdf="http://www.w3.org/1999/02/22-rdf-syntax-ns#" xmlns:cc="http://creativecommons.org/ns#" xmlns:sodipodi="http://sodipodi.sourceforge.net/DTD/sodipodi-0.dtd" xmlns:dc="http://purl.org/dc/elements/1.1/" xmlns:inkscape="http://www.inkscape.org/namespaces/inkscape" xmlns:svg="http://www.w3.org/2000/svg" xmlns="http://www.w3.org/2000/svg" xmlns:xlink="http://www.w3.org/1999/xlink" x="24.72398860418764" y="24.723988604187646" viewBox="0 21 100 57.999999999999986" enable-background="new 0 21 100 58" xml:space="preserve" height="115.378613486209" width="115.378613486209" class="icon-xg-0" data-fill-palette-color="quaternary" id="xg-0"><path d="M98.031 36.094c-1.045-0.875-2.308-1.508-3.844-2.031l-33.75-11.5C57.365 21.515 53.689 21 50 21c-3.689 0-7.366 0.515-10.438 1.562l-33.75 11.5c-1.536 0.523-2.799 1.156-3.844 2.031S0 38.276 0 39.875s0.924 2.938 1.969 3.812 2.308 1.477 3.844 2l33.75 11.5c6.144 2.095 14.731 2.095 20.875 0l33.75-11.5c1.536-0.523 2.799-1.125 3.844-2S100 41.474 100 39.875 99.076 36.969 98.031 36.094zM92.438 40.594l-33.719 11.5c-4.473 1.524-12.966 1.524-17.438 0l-33.719-11.5c-0.724-0.247-1.244-0.498-1.625-0.719 0.381-0.221 0.903-0.473 1.625-0.719l33.719-11.5C43.517 26.894 46.762 26.5 50 26.5c3.238 0 6.482 0.394 8.719 1.156l33.719 11.5c0.723 0.246 1.244 0.498 1.625 0.719C93.682 40.096 93.162 40.347 92.438 40.594z" fill="#ffffff" data-fill-palette-color="quaternary"></path><path d="M76.25 64.062v2.094c0 0.398-0.217 1.002-1.281 1.906s-2.888 1.904-5.25 2.75c-4.725 1.692-11.574 2.812-19.188 2.812h-1.062c-7.613 0-14.46-1.119-19.188-2.812-2.363-0.846-4.186-1.846-5.25-2.75s-1.281-1.508-1.281-1.906v-2.094-6.75l-5.375-1.844v8.594 2.094c0 2.419 1.352 4.468 3.156 6s4.163 2.726 6.938 3.719c5.549 1.986 12.869 3.125 21 3.125h1.062c8.131 0 15.453-1.138 21-3.125 2.773-0.994 5.134-2.187 6.938-3.719s3.156-3.582 3.156-6v-2.094-8.594l-5.375 1.844V64.062z" fill="#ffffff" data-fill-palette-color="quaternary"></path></svg></g></svg></g><g id="text-0"><path d="M32.942 95.173v0c-0.947 2.515-2.362 4.502-4.244 5.961-1.883 1.459-4.063 2.319-6.542 2.58-2.487 0.265-5.104-0.12-7.85-1.154v0c-2.739-1.031-4.961-2.476-6.664-4.332-1.706-1.851-2.776-3.979-3.21-6.384-0.441-2.407-0.161-4.942 0.841-7.605v0c1.14-3.028 2.821-5.274 5.042-6.737 2.212-1.46 4.713-2.002 7.501-1.626v0l-1.402 3.724c-1.752-0.249-3.356 0.121-4.813 1.111-1.45 0.992-2.572 2.54-3.364 4.644v0c-0.742 1.969-0.948 3.851-0.62 5.645 0.335 1.796 1.171 3.407 2.509 4.834 1.338 1.427 3.146 2.569 5.423 3.426v0c2.284 0.86 4.397 1.201 6.338 1.024 1.942-0.177 3.618-0.806 5.028-1.886 1.417-1.078 2.476-2.55 3.18-4.418v0c1.082-2.874 1.061-5.358-0.063-7.45-1.13-2.095-3.119-3.797-5.967-5.104v0l-2.927 7.776-2.541-0.957 4.171-11.076 14.386 5.417-1.113 2.954-4.528-1.397c1.198 1.564 1.955 3.212 2.271 4.942 0.315 1.73 0.035 3.76-0.842 6.088z" fill="#0074d9" data-fill-palette-color="primary"></path><path d="M50.749 46.946l-10.513 12.413-2.228-1.887 10.512-12.413z" fill="#0074d9" data-fill-palette-color="primary"></path><path d="M85.876 35.112v0c-2.437 1.414-4.852 2.093-7.245 2.039-2.393-0.054-4.632-0.765-6.716-2.131-2.094-1.369-3.883-3.334-5.369-5.896v0c-1.469-2.532-2.277-5.046-2.426-7.543-0.155-2.494 0.337-4.796 1.474-6.906 1.134-2.116 2.92-3.881 5.357-5.294v0c2.846-1.651 5.56-2.314 8.142-1.989 2.572 0.323 4.816 1.561 6.731 3.715v0l-3.3 1.914c-1.274-1.322-2.769-2.11-4.486-2.366-1.714-0.25-3.567 0.203-5.56 1.358v0c-1.773 1.028-3.088 2.334-3.945 3.917-0.854 1.589-1.198 3.358-1.034 5.307 0.164 1.949 0.863 3.989 2.098 6.118v0c1.238 2.135 2.663 3.757 4.273 4.867 1.611 1.11 3.316 1.686 5.116 1.728 1.803 0.048 3.591-0.442 5.363-1.471v0c1.992-1.156 3.311-2.531 3.955-4.125 0.648-1.588 0.721-3.251 0.221-4.989v0l3.299-1.914c0.888 2.679 0.832 5.211-0.169 7.598-1.007 2.391-2.933 4.411-5.779 6.063z" fill="#0074d9" data-fill-palette-color="primary"></path><path d="M121.667 22.129v0c-1.671 0.312-3.112 0.288-4.323-0.072-1.204-0.361-2.163-0.963-2.878-1.806-0.715-0.843-1.175-1.813-1.38-2.912v0c-0.382-2.049 0.105-3.771 1.462-5.168 1.351-1.395 3.373-2.345 6.069-2.847v0l5.408-1.009-0.045-0.243c-0.327-1.752-1.029-2.991-2.106-3.717-1.085-0.732-2.396-0.955-3.932-0.669v0c-1.321 0.246-2.398 0.789-3.231 1.628-0.834 0.839-1.254 1.911-1.262 3.217v0l-3.467 0.646c-0.135-1.474 0.128-2.789 0.791-3.944 0.656-1.154 1.569-2.113 2.738-2.875 1.169-0.762 2.468-1.276 3.896-1.542v0c2.797-0.522 5.042-0.166 6.736 1.065 1.694 1.232 2.772 3.085 3.233 5.558v0l2.298 12.322-3.032 0.565-0.873-3.561c-0.355 1.238-1.001 2.355-1.938 3.353-0.943 0.999-2.331 1.669-4.164 2.011zM121.657 19.161v0c1.294-0.241 2.343-0.786 3.147-1.633 0.804-0.847 1.346-1.851 1.625-3.012 0.284-1.169 0.316-2.346 0.094-3.532v0l-0.008-0.041-5.124 0.956c-1.995 0.372-3.339 0.978-4.033 1.819-0.694 0.841-0.945 1.773-0.754 2.798v0c0.195 1.044 0.735 1.812 1.621 2.302 0.886 0.49 2.03 0.605 3.432 0.343z" fill="#0074d9" data-fill-palette-color="primary"></path><path d="M154.963 20.666l-3.387-0.627 3.711-20.039 3.063 0.567-0.296 2.957c0.847-0.959 1.864-1.635 3.052-2.028 1.188-0.393 2.456-0.465 3.805-0.216v0c1.591 0.295 2.896 0.871 3.915 1.729 1.026 0.859 1.727 2.007 2.102 3.443v0c0.926-1.083 2.067-1.862 3.423-2.336 1.357-0.474 2.746-0.579 4.168-0.315v0c2.4 0.444 4.18 1.52 5.342 3.227 1.162 1.707 1.466 4.054 0.914 7.039v0l-2.171 11.718-3.356-0.621 2.103-11.354c0.384-2.076 0.256-3.714-0.387-4.914-0.641-1.206-1.743-1.954-3.307-2.243v0c-1.611-0.298-3.065 0.081-4.363 1.137-1.296 1.05-2.159 2.734-2.587 5.052v0l-1.923 10.384-3.398-0.629 2.103-11.354c0.384-2.076 0.256-3.714-0.387-4.914-0.634-1.205-1.733-1.952-3.297-2.242v0c-1.591-0.295-3.035 0.086-4.331 1.143-1.296 1.05-2.159 2.734-2.588 5.053v0z" fill="#0074d9" data-fill-palette-color="primary"></path><path d="M198.368 43.977l-2.901-1.858 15.861-24.775 2.624 1.679-1.541 3.018c1.086-0.477 2.358-0.721 3.814-0.732 1.456-0.012 2.981 0.492 4.574 1.512v0c1.703 1.09 2.938 2.435 3.706 4.033 0.767 1.598 1.067 3.304 0.9 5.117-0.164 1.808-0.801 3.577-1.91 5.31v0c-1.109 1.732-2.446 3.045-4.011 3.939-1.569 0.9-3.242 1.327-5.019 1.28-1.777-0.047-3.517-0.615-5.22-1.706v0c-1.409-0.902-2.477-1.992-3.204-3.272-0.727-1.28-1.047-2.624-0.959-4.032v0zM210.552 38.066v0c1.155 0.739 2.342 1.116 3.56 1.132 1.225 0.019 2.4-0.291 3.526-0.93 1.129-0.645 2.107-1.614 2.935-2.907v0c0.828-1.293 1.298-2.587 1.411-3.882 0.109-1.289-0.101-2.486-0.631-3.591-0.524-1.101-1.364-2.021-2.519-2.76v0c-1.155-0.739-2.344-1.118-3.569-1.137-1.225-0.019-2.4 0.291-3.525 0.929-1.129 0.645-2.107 1.614-2.936 2.907v0c-0.828 1.293-1.298 2.587-1.411 3.883-0.109 1.289 0.101 2.486 0.632 3.59 0.53 1.104 1.372 2.026 2.527 2.766z" fill="#0074d9" data-fill-palette-color="primary"></path><path d="M236.284 66.102v0c-1.497-1.892-2.11-3.85-1.84-5.873 0.266-2.028 1.59-3.984 3.972-5.869v0l9.346-7.393 2.137 2.702-9.056 7.163c-3.328 2.632-3.912 5.314-1.752 8.046v0c1.106 1.398 2.518 2.156 4.237 2.273 1.718 0.127 3.501-0.541 5.35-2.004v0l8.283-6.551 2.143 2.71-15.984 12.643-1.939-2.452 2.718-2.464c-1.402 0.305-2.778 0.2-4.129-0.314-1.355-0.519-2.517-1.392-3.486-2.617z" fill="#0074d9" data-fill-palette-color="primary"></path><path d="M254.756 100.125v0c-0.839-2.292-0.956-4.406-0.351-6.342 0.603-1.943 1.845-3.405 3.727-4.387v0l1.213 3.312c-0.922 0.571-1.593 1.422-2.011 2.554-0.418 1.131-0.358 2.431 0.179 3.898v0c0.5 1.365 1.157 2.263 1.971 2.695 0.815 0.432 1.618 0.503 2.411 0.212v0c1.159-0.424 1.778-1.125 1.857-2.103 0.08-0.978-0.004-2.283-0.25-3.916v0c-0.171-1.105-0.252-2.244-0.243-3.415 0.012-1.165 0.244-2.225 0.698-3.179 0.454-0.954 1.26-1.644 2.418-2.068v0c1.667-0.61 3.264-0.487 4.789 0.371 1.523 0.851 2.676 2.345 3.459 4.483v0c0.745 2.034 0.846 3.888 0.305 5.56-0.543 1.666-1.714 2.945-3.512 3.837v0l-1.17-3.196c0.925-0.485 1.535-1.182 1.829-2.093 0.294-0.911 0.225-1.958-0.208-3.143v0c-0.424-1.159-0.996-1.964-1.717-2.416-0.72-0.452-1.476-0.533-2.268-0.243v0c-0.772 0.283-1.229 0.91-1.37 1.882-0.141 0.971-0.111 2.209 0.089 3.712v0c0.176 1.279 0.273 2.521 0.291 3.726 0.015 1.199-0.219 2.274-0.703 3.224-0.484 0.951-1.421 1.681-2.812 2.19v0c-1.709 0.655-3.367 0.524-4.972-0.391-1.603-0.91-2.819-2.497-3.649-4.764z" fill="#0074d9" data-fill-palette-color="primary"></path><path d="M9.926 139.488c0-1.851 1.501-3.352 3.352-3.352 1.851 0 3.352 1.501 3.353 3.352 0 1.851-1.501 3.352-3.353 3.353-1.851 0-3.352-1.501-3.352-3.353z" fill="#0074d9" data-fill-palette-color="primary"></path><path d="M268.786 139.488c0-1.851 1.501-3.352 3.352-3.352 1.851 0 3.352 1.501 3.353 3.352 0 1.851-1.501 3.352-3.353 3.353-1.851 0-3.352-1.501-3.352-3.353z" fill="#0074d9" data-fill-palette-color="primary"></path></g><g id="text-1"><path d="M11.059 169.864l-0.368-1.824 14.464-2.918 0.368 1.824z" fill="#0074d9" data-fill-palette-color="primary"></path><path d="M8.314 178.942v0c-0.183-0.646-0.288-1.254-0.314-1.824-0.033-0.568 0.018-1.078 0.154-1.529 0.142-0.454 0.355-0.835 0.637-1.143 0.29-0.31 0.665-0.531 1.127-0.662v0c0.442-0.125 0.906-0.108 1.394 0.054 0.481 0.163 0.954 0.435 1.418 0.816v0l0.089-0.026c0.083-0.309 0.242-0.592 0.475-0.85 0.226-0.257 0.551-0.445 0.972-0.565v0c0.448-0.127 0.872-0.116 1.271 0.035 0.399 0.15 0.733 0.337 1.004 0.559v0l0.079-0.022c0.191-0.432 0.487-0.858 0.888-1.278 0.409-0.415 0.931-0.713 1.563-0.893v0c0.574-0.163 1.121-0.204 1.643-0.124 0.52 0.073 0.996 0.245 1.429 0.514 0.426 0.271 0.793 0.623 1.101 1.055 0.308 0.433 0.538 0.916 0.689 1.451v0c0.082 0.29 0.136 0.567 0.161 0.83 0.018 0.266 0.02 0.511 0.006 0.736v0l1.039 3.66-1.365 0.388-0.615-2.167c-0.175 0.313-0.427 0.606-0.756 0.877-0.327 0.278-0.712 0.48-1.154 0.606v0c-0.567 0.161-1.107 0.204-1.62 0.128-0.513-0.075-0.973-0.24-1.38-0.495-0.409-0.262-0.766-0.602-1.07-1.022-0.304-0.42-0.532-0.896-0.684-1.43v0c-0.073-0.257-0.116-0.534-0.129-0.83-0.011-0.289 0.004-0.575 0.046-0.857v0c-0.211-0.14-0.434-0.247-0.669-0.323-0.227-0.071-0.485-0.065-0.776 0.017v0c-0.33 0.094-0.567 0.3-0.711 0.619-0.145 0.319-0.114 0.841 0.092 1.566v0l0.575 2.028c0.348 1.227 0.411 2.203 0.19 2.928-0.222 0.726-0.774 1.214-1.658 1.465v0c-0.488 0.138-0.988 0.148-1.499 0.03-0.504-0.12-0.99-0.364-1.457-0.73-0.461-0.368-0.88-0.855-1.259-1.46-0.383-0.597-0.692-1.307-0.926-2.132zM17.682 176.284v0c0.086 0.303 0.227 0.573 0.422 0.81 0.187 0.232 0.419 0.423 0.697 0.572 0.276 0.143 0.585 0.229 0.929 0.26 0.342 0.024 0.707-0.019 1.096-0.13v0c0.778-0.221 1.321-0.606 1.628-1.156 0.299-0.555 0.36-1.142 0.183-1.763v0c-0.176-0.62-0.537-1.088-1.082-1.403-0.55-0.307-1.215-0.35-1.992-0.129v0c-0.389 0.11-0.723 0.266-1.001 0.466-0.276 0.207-0.493 0.446-0.651 0.719-0.16 0.266-0.257 0.55-0.293 0.853-0.044 0.297-0.023 0.598 0.064 0.901zM9.624 178.849v0c0.144 0.508 0.334 0.949 0.568 1.324 0.243 0.38 0.501 0.684 0.772 0.914 0.28 0.234 0.571 0.394 0.874 0.479 0.309 0.083 0.598 0.087 0.868 0.01v0c0.495-0.14 0.784-0.415 0.868-0.824 0.082-0.415 0.024-0.969-0.172-1.661v0l-0.517-1.82c-0.056-0.198-0.106-0.422-0.149-0.674-0.048-0.243-0.068-0.49-0.06-0.742v0c-0.384-0.297-0.751-0.489-1.104-0.574-0.345-0.087-0.67-0.088-0.973-0.001v0c-0.567 0.161-0.939 0.559-1.115 1.193-0.176 0.634-0.13 1.426 0.14 2.376z" fill="#0074d9" data-fill-palette-color="primary"></path><path d="M16.237 187.017l-0.65-1.733 10.233-3.841 0.538 1.434-1.418 0.697 0.025 0.068c0.68 0.309 1.284 0.671 1.814 1.087 0.53 0.416 0.929 0.984 1.199 1.702v0c0.405 1.078 0.364 1.994-0.122 2.748-0.488 0.747-1.39 1.368-2.706 1.861v0l-6.488 2.436-0.647-1.723 6.258-2.349c0.969-0.364 1.608-0.779 1.915-1.246 0.314-0.469 0.345-1.041 0.092-1.715v0c-0.2-0.533-0.509-0.955-0.926-1.267-0.421-0.303-0.989-0.617-1.704-0.942v0z" fill="#0074d9" data-fill-palette-color="primary"></path><path d="M21.11 198.729l-0.772-1.682 9.934-4.559 0.771 1.682zM32.713 192.409v0c-0.149-0.324-0.172-0.645-0.069-0.964 0.103-0.319 0.31-0.549 0.621-0.693v0c0.324-0.149 0.637-0.157 0.939-0.023 0.302 0.133 0.528 0.361 0.677 0.685v0c0.152 0.33 0.179 0.653 0.082 0.969-0.096 0.316-0.307 0.548-0.63 0.696v0c-0.311 0.143-0.622 0.149-0.93 0.02-0.309-0.13-0.539-0.36-0.69-0.69z" fill="#0074d9" data-fill-palette-color="primary"></path><path d="M24.326 205.456v0c-0.274-0.514-0.425-0.989-0.455-1.424-0.029-0.435 0.037-0.835 0.199-1.201 0.162-0.366 0.417-0.704 0.765-1.013 0.345-0.3 0.756-0.577 1.235-0.832v0l5.346-2.846-0.759-1.425 1.226-0.652 0.901 1.453 2.812-1.24 0.729 1.371-2.705 1.44 1.382 2.596-1.325 0.705-1.382-2.596-5.364 2.856c-0.593 0.316-0.995 0.669-1.206 1.061-0.211 0.392-0.168 0.866 0.129 1.423v0c0.09 0.169 0.216 0.339 0.376 0.51 0.161 0.171 0.316 0.317 0.467 0.439v0l-1.066 0.974c-0.232-0.218-0.467-0.462-0.704-0.731-0.24-0.276-0.441-0.565-0.601-0.868z" fill="#0074d9" data-fill-palette-color="primary"></path><path d="M27.657 210.748l-0.939-1.596 9.422-5.54 0.938 1.595zM38.56 203.285v0c-0.181-0.307-0.236-0.625-0.166-0.951 0.07-0.327 0.253-0.578 0.548-0.752v0c0.307-0.181 0.618-0.22 0.932-0.119 0.314 0.102 0.562 0.306 0.743 0.613v0c0.184 0.313 0.244 0.632 0.18 0.956-0.064 0.324-0.25 0.576-0.557 0.757v0c-0.295 0.174-0.603 0.212-0.923 0.113-0.32-0.098-0.572-0.304-0.757-0.617z" fill="#0074d9" data-fill-palette-color="primary"></path><path d="M30.918 215.661l-1.042-1.53 9.032-6.155 0.863 1.266-1.213 1.013 0.04 0.06c0.733 0.139 1.407 0.348 2.02 0.626 0.613 0.279 1.136 0.736 1.568 1.37v0c0.649 0.952 0.826 1.851 0.533 2.699-0.298 0.842-1.027 1.658-2.188 2.449v0l-5.727 3.903-1.037-1.521 5.523-3.764c0.855-0.583 1.377-1.138 1.566-1.664 0.194-0.531 0.089-1.093-0.317-1.688v0c-0.32-0.47-0.72-0.807-1.199-1.012-0.481-0.195-1.107-0.365-1.879-0.511v0z" fill="#0074d9" data-fill-palette-color="primary"></path><path d="M35.933 230.59v0c-0.432-0.515-0.776-1.026-1.034-1.535-0.262-0.505-0.424-0.991-0.486-1.459-0.056-0.472-0.018-0.907 0.114-1.303 0.137-0.402 0.39-0.757 0.757-1.066v0c0.352-0.295 0.783-0.469 1.294-0.522 0.505-0.048 1.048 0.006 1.628 0.164v0l0.071-0.059c-0.05-0.316-0.022-0.639 0.084-0.971 0.102-0.327 0.32-0.631 0.657-0.913v0c0.357-0.3 0.748-0.463 1.174-0.489 0.426-0.026 0.807 0.007 1.144 0.1v0l0.063-0.053c-0.003-0.472 0.093-0.982 0.287-1.529 0.203-0.547 0.557-1.032 1.061-1.455v0c0.457-0.383 0.939-0.645 1.448-0.785 0.504-0.146 1.009-0.184 1.514-0.116 0.5 0.073 0.979 0.244 1.437 0.512 0.458 0.269 0.866 0.616 1.222 1.041v0c0.194 0.231 0.356 0.462 0.487 0.692 0.125 0.235 0.228 0.458 0.307 0.669v0l2.446 2.914-1.087 0.912-1.448-1.725c-0.031 0.357-0.141 0.727-0.33 1.11-0.185 0.388-0.453 0.729-0.805 1.025v0c-0.452 0.379-0.927 0.639-1.426 0.78-0.499 0.141-0.986 0.179-1.462 0.113-0.48-0.071-0.945-0.236-1.395-0.494-0.449-0.258-0.853-0.6-1.209-1.025v0c-0.172-0.205-0.324-0.439-0.457-0.704-0.128-0.259-0.231-0.526-0.309-0.801v0c-0.249-0.041-0.497-0.048-0.743-0.021-0.236 0.028-0.469 0.139-0.701 0.333v0c-0.263 0.22-0.394 0.506-0.395 0.856-0.001 0.35 0.24 0.814 0.725 1.392v0l1.355 1.614c0.82 0.977 1.277 1.841 1.372 2.594 0.095 0.753-0.21 1.424-0.913 2.015v0c-0.389 0.326-0.84 0.54-1.356 0.641-0.51 0.097-1.053 0.074-1.628-0.07-0.571-0.147-1.153-0.419-1.746-0.816-0.594-0.388-1.166-0.91-1.717-1.566zM43.391 224.33v0c0.203 0.242 0.442 0.43 0.717 0.566 0.266 0.135 0.555 0.214 0.87 0.236 0.31 0.017 0.628-0.03 0.954-0.142 0.322-0.118 0.637-0.307 0.947-0.567v0c0.62-0.52 0.957-1.094 1.011-1.722 0.045-0.629-0.139-1.19-0.553-1.683v0c-0.414-0.494-0.935-0.773-1.562-0.837-0.628-0.055-1.251 0.178-1.871 0.698v0c-0.31 0.26-0.551 0.538-0.723 0.834-0.167 0.302-0.267 0.609-0.299 0.923-0.037 0.308-0.009 0.607 0.082 0.897 0.082 0.289 0.224 0.555 0.427 0.797zM37.089 229.968v0c0.339 0.404 0.693 0.73 1.061 0.976 0.377 0.247 0.737 0.42 1.078 0.518 0.351 0.099 0.682 0.125 0.993 0.079 0.316-0.05 0.581-0.166 0.797-0.346v0c0.394-0.331 0.545-0.699 0.454-1.107-0.095-0.412-0.374-0.894-0.837-1.445v0l-1.216-1.449c-0.132-0.158-0.269-0.342-0.412-0.554-0.143-0.202-0.263-0.419-0.359-0.652v0c-0.472-0.114-0.886-0.138-1.242-0.072-0.351 0.062-0.647 0.194-0.888 0.397v0c-0.452 0.379-0.628 0.894-0.529 1.545 0.099 0.651 0.466 1.354 1.1 2.11z" fill="#0074d9" data-fill-palette-color="primary"></path><path d="M49.912 238.029l-1.244-1.139 9.963-10.883 1.661 1.521-3.233 7.719c-0.206 0.499-0.419 0.996-0.64 1.491-0.225 0.5-0.444 0.997-0.655 1.491v0l0.069 0.063c0.474-0.254 0.945-0.52 1.413-0.798 0.463-0.273 0.932-0.536 1.406-0.789v0l7.381-3.921 1.676 1.534-9.963 10.883-1.297-1.187 5.485-5.991c0.444-0.485 0.958-1 1.54-1.546 0.577-0.549 1.106-1.051 1.586-1.503v0l-0.068-0.063-3.128 1.681-7.221 3.761-0.91-0.833 3.11-7.524 1.399-3.264-0.068-0.063c-0.409 0.518-0.864 1.086-1.366 1.705-0.496 0.624-0.967 1.178-1.411 1.664v0z" fill="#0074d9" data-fill-palette-color="primary"></path><path d="M62.704 248.92l-1.471-1.123 6.637-8.685 1.47 1.124zM69.988 237.897v0c-0.283-0.216-0.454-0.489-0.512-0.819-0.059-0.33 0.016-0.631 0.224-0.903v0c0.216-0.283 0.489-0.437 0.818-0.461 0.329-0.024 0.636 0.072 0.919 0.288v0c0.289 0.221 0.464 0.493 0.527 0.817 0.063 0.324-0.014 0.628-0.23 0.911v0c-0.208 0.272-0.479 0.423-0.812 0.453-0.333 0.03-0.644-0.065-0.934-0.286z" fill="#0074d9" data-fill-palette-color="primary"></path><path d="M67.578 252.24l-1.542-1.023 6.043-9.108 1.276 0.847-0.741 1.397 0.06 0.039c0.732-0.148 1.434-0.208 2.107-0.181 0.673 0.027 1.329 0.253 1.97 0.677v0c0.96 0.637 1.463 1.403 1.51 2.298 0.042 0.892-0.326 1.923-1.102 3.094v0l-3.832 5.775-1.534-1.018 3.696-5.569c0.572-0.862 0.846-1.573 0.822-2.132-0.02-0.565-0.33-1.046-0.93-1.444v0c-0.474-0.315-0.972-0.476-1.493-0.484-0.519 0.001-1.163 0.08-1.933 0.235v0z" fill="#0074d9" data-fill-palette-color="primary"></path><path d="M80.11 259.986v0c-1.223-0.649-1.964-1.601-2.222-2.855-0.255-1.26 0.045-2.696 0.9-4.307v0c0.414-0.781 0.904-1.426 1.468-1.933 0.564-0.508 1.156-0.877 1.775-1.107 0.616-0.24 1.238-0.344 1.866-0.314 0.634 0.034 1.226 0.197 1.777 0.489v0c0.557 0.296 0.99 0.649 1.299 1.062 0.306 0.418 0.579 0.912 0.82 1.483v0l0.795-1.697 1.971-3.715 1.653 0.877-7.508 14.152-1.353-0.719 0.466-1.207-0.064-0.034c-0.581 0.173-1.19 0.261-1.828 0.264-0.641 0.009-1.246-0.137-1.815-0.439zM81.192 258.802v0c0.448 0.238 0.93 0.354 1.445 0.348 0.515-0.006 1.089-0.129 1.72-0.368v0l2.679-5.05c-0.216-0.588-0.471-1.057-0.766-1.408-0.295-0.351-0.642-0.632-1.042-0.844v0c-0.381-0.202-0.788-0.306-1.221-0.31-0.435 0.002-0.866 0.096-1.29 0.282-0.422 0.195-0.824 0.478-1.207 0.849-0.386 0.377-0.726 0.841-1.018 1.392v0c-0.62 1.169-0.872 2.199-0.756 3.091 0.122 0.895 0.608 1.568 1.456 2.018z" fill="#0074d9" data-fill-palette-color="primary"></path><path d="M91.069 265.134v0c-0.721-0.302-1.349-0.718-1.885-1.248-0.54-0.539-0.969-1.109-1.289-1.711v0l1.334-0.79c0.291 0.546 0.621 1.026 0.99 1.441 0.375 0.417 0.866 0.753 1.473 1.008v0c0.664 0.278 1.224 0.335 1.68 0.17 0.462-0.163 0.786-0.466 0.972-0.908v0c0.111-0.265 0.137-0.522 0.077-0.77-0.057-0.254-0.162-0.499-0.316-0.735-0.154-0.236-0.347-0.465-0.58-0.69-0.224-0.228-0.453-0.454-0.686-0.678v0c-0.307-0.278-0.608-0.571-0.902-0.88-0.294-0.309-0.536-0.637-0.725-0.984-0.183-0.344-0.301-0.71-0.354-1.096-0.05-0.378 0.016-0.781 0.196-1.211v0c0.167-0.398 0.404-0.741 0.711-1.029 0.307-0.288 0.661-0.496 1.064-0.624 0.403-0.128 0.85-0.175 1.341-0.14 0.491 0.035 1.005 0.165 1.542 0.39v0c0.638 0.268 1.177 0.624 1.615 1.068 0.438 0.444 0.784 0.905 1.037 1.383v0l-1.259 0.743c-0.236-0.411-0.506-0.777-0.811-1.099-0.304-0.321-0.677-0.574-1.12-0.759v0c-0.632-0.265-1.158-0.315-1.576-0.149-0.416 0.16-0.707 0.436-0.872 0.828v0c-0.098 0.234-0.123 0.461-0.074 0.682 0.052 0.23 0.156 0.452 0.312 0.666 0.153 0.22 0.34 0.44 0.56 0.659 0.229 0.215 0.467 0.437 0.712 0.667v0c0.302 0.29 0.604 0.588 0.908 0.893 0.303 0.306 0.551 0.636 0.743 0.992 0.195 0.35 0.316 0.727 0.361 1.133 0.049 0.415-0.024 0.856-0.22 1.324v0c-0.175 0.417-0.42 0.771-0.736 1.062-0.307 0.288-0.673 0.506-1.1 0.654-0.426 0.148-0.903 0.205-1.431 0.169-0.534-0.038-1.098-0.182-1.692-0.431z" fill="#0074d9" data-fill-palette-color="primary"></path><path d="M95.966 270.888v0l-0.064-1.169c0.704-0.055 1.303-0.245 1.797-0.571 0.499-0.317 0.843-0.762 1.033-1.334v0c-0.05-0.003-0.123-0.022-0.22-0.057v0c-0.342-0.122-0.599-0.33-0.771-0.624-0.174-0.288-0.19-0.632-0.047-1.032v0c0.136-0.381 0.368-0.633 0.695-0.756 0.337-0.127 0.679-0.129 1.028-0.005v0c0.452 0.161 0.746 0.47 0.882 0.925 0.127 0.46 0.077 1.01-0.151 1.649v0c-0.327 0.917-0.856 1.627-1.589 2.13-0.739 0.501-1.603 0.782-2.593 0.844z" fill="#0074d9" data-fill-palette-color="primary"></path><path d="M111.851 271.785v0c-1.006-0.244-1.893-0.66-2.659-1.248-0.767-0.588-1.385-1.285-1.853-2.089v0l1.397-1.005c0.382 0.664 0.88 1.243 1.494 1.738 0.612 0.501 1.288 0.841 2.027 1.02v0c0.946 0.229 1.735 0.192 2.366-0.113 0.631-0.305 1.032-0.808 1.201-1.508v0c0.087-0.36 0.098-0.682 0.033-0.965-0.057-0.289-0.17-0.549-0.339-0.781-0.17-0.232-0.38-0.455-0.631-0.671-0.258-0.218-0.537-0.448-0.838-0.69v0l-1.83-1.396c-0.298-0.227-0.599-0.484-0.903-0.77-0.296-0.291-0.549-0.616-0.758-0.977-0.209-0.361-0.351-0.762-0.427-1.204-0.076-0.442-0.051-0.926 0.077-1.452v0c0.131-0.54 0.366-1.015 0.706-1.426 0.34-0.411 0.75-0.738 1.232-0.982 0.482-0.243 1.02-0.395 1.613-0.455 0.592-0.054 1.217-0.001 1.877 0.159v0c0.859 0.208 1.613 0.564 2.259 1.067 0.647 0.503 1.163 1.079 1.548 1.73v0l-1.275 0.939c-0.331-0.525-0.733-0.975-1.206-1.351-0.475-0.369-1.045-0.634-1.712-0.796v0c-0.806-0.196-1.497-0.166-2.074 0.089-0.577 0.255-0.944 0.709-1.103 1.362v0c-0.086 0.353-0.091 0.666-0.016 0.938 0.082 0.274 0.217 0.529 0.407 0.765 0.188 0.243 0.405 0.469 0.651 0.677 0.241 0.199 0.493 0.395 0.757 0.585v0l1.828 1.364c0.363 0.278 0.697 0.571 1.003 0.878 0.311 0.315 0.564 0.655 0.758 1.02 0.187 0.363 0.309 0.763 0.365 1.2 0.056 0.437 0.021 0.918-0.107 1.444v0c-0.137 0.566-0.38 1.072-0.727 1.517-0.346 0.438-0.774 0.793-1.285 1.064-0.517 0.27-1.101 0.438-1.752 0.506-0.643 0.063-1.344 0.002-2.104-0.183z" fill="#0074d9" data-fill-palette-color="primary"></path><path d="M121.775 273.478l-1.83-0.278 2.405-15.838 1.83 0.278-0.656 4.32-0.409 2.216c0.597-0.415 1.203-0.753 1.818-1.014 0.615-0.26 1.302-0.333 2.061-0.217v0c1.139 0.173 1.918 0.655 2.338 1.447 0.414 0.791 0.515 1.881 0.305 3.27v0l-1.041 6.852-1.82-0.277 1.004-6.607c0.155-1.023 0.104-1.783-0.153-2.28-0.256-0.503-0.74-0.809-1.452-0.918v0c-0.563-0.085-1.082-0.022-1.558 0.19-0.47 0.22-1.021 0.563-1.654 1.028v0z" fill="#0074d9" data-fill-palette-color="primary"></path><path d="M135.09 275.165v0c-0.91-0.052-1.654-0.365-2.233-0.941-0.572-0.568-0.829-1.348-0.773-2.34v0c0.068-1.198 0.651-2.084 1.748-2.661 1.097-0.576 2.823-0.924 5.178-1.044v0c0.019-0.342 0.004-0.679-0.045-1.012-0.05-0.332-0.149-0.633-0.299-0.902-0.15-0.263-0.367-0.481-0.653-0.656-0.278-0.174-0.644-0.274-1.095-0.299v0c-0.63-0.036-1.228 0.05-1.797 0.258-0.568 0.208-1.076 0.45-1.524 0.727v0l-0.645-1.324c0.525-0.3 1.163-0.583 1.912-0.849 0.749-0.259 1.569-0.364 2.459-0.313v0c1.328 0.076 2.269 0.538 2.825 1.387 0.549 0.848 0.785 1.953 0.707 3.315v0l-0.381 6.693-1.53-0.087-0.08-1.313-0.061-0.003c-0.552 0.408-1.134 0.746-1.747 1.013-0.62 0.274-1.275 0.391-1.966 0.351zM135.718 273.718v0c0.52 0.03 1.02-0.065 1.499-0.285 0.479-0.22 0.996-0.554 1.551-1.004v0l0.173-3.038c-0.924 0.071-1.702 0.171-2.334 0.299-0.625 0.129-1.136 0.296-1.533 0.5-0.396 0.204-0.688 0.445-0.875 0.722-0.188 0.285-0.292 0.598-0.311 0.941v0c-0.036 0.63 0.123 1.088 0.478 1.376 0.361 0.295 0.812 0.458 1.352 0.489z" fill="#0074d9" data-fill-palette-color="primary"></path><path d="M146.42 279.656l-1.85 0.064-0.534-15.527 1.531-0.053 0.197 1.248 0.072-0.002c0.479-0.435 1.011-0.813 1.597-1.135 0.579-0.315 1.191-0.483 1.834-0.506v0c0.706-0.024 1.334 0.084 1.884 0.326 0.543 0.242 1.005 0.6 1.385 1.074 0.373 0.474 0.667 1.05 0.882 1.729 0.208 0.672 0.327 1.436 0.357 2.292v0c0.032 0.932-0.066 1.765-0.294 2.5-0.228 0.735-0.553 1.363-0.975 1.886-0.414 0.529-0.901 0.933-1.46 1.212-0.56 0.28-1.155 0.431-1.785 0.453v0c-0.514 0.018-1.025-0.078-1.532-0.287-0.508-0.202-1.025-0.489-1.553-0.862v0l0.117 1.909zM148.889 273.676v0c0.452-0.016 0.867-0.129 1.244-0.341 0.37-0.218 0.689-0.514 0.957-0.887 0.261-0.379 0.461-0.842 0.6-1.389 0.139-0.54 0.197-1.149 0.174-1.827v0c-0.021-0.596-0.091-1.142-0.211-1.639-0.12-0.49-0.302-0.905-0.547-1.247-0.245-0.348-0.556-0.612-0.933-0.791-0.37-0.179-0.811-0.26-1.325-0.242v0c-0.466 0.016-0.931 0.159-1.395 0.429-0.457 0.27-0.948 0.653-1.472 1.151v0l0.197 5.734c0.508 0.401 0.997 0.679 1.469 0.835 0.472 0.155 0.886 0.227 1.242 0.214z" fill="#0074d9" data-fill-palette-color="primary"></path><path d="M159.088 274.201l-1.841 0.192-1.132-10.871 1.841-0.192zM156.823 261.184v0c-0.355 0.037-0.666-0.044-0.935-0.244-0.269-0.199-0.421-0.47-0.457-0.81v0c-0.037-0.355 0.056-0.654 0.279-0.898 0.223-0.244 0.511-0.384 0.866-0.421v0c0.361-0.038 0.676 0.04 0.944 0.233 0.268 0.193 0.421 0.466 0.458 0.82v0c0.035 0.341-0.058 0.637-0.28 0.888-0.222 0.251-0.514 0.395-0.875 0.432z" fill="#0074d9" data-fill-palette-color="primary"></path><path d="M164.912 273.272l-1.824 0.313-1.854-10.771 1.51-0.26 0.419 1.524 0.071-0.012c0.431-0.61 0.9-1.136 1.408-1.578 0.508-0.442 1.141-0.728 1.897-0.858v0c1.135-0.195 2.027 0.016 2.676 0.635 0.642 0.62 1.083 1.622 1.321 3.007v0l1.175 6.83-1.814 0.312-1.133-6.587c-0.176-1.02-0.464-1.725-0.865-2.115-0.402-0.397-0.958-0.534-1.667-0.412v0c-0.561 0.096-1.033 0.32-1.418 0.671-0.377 0.357-0.792 0.856-1.245 1.498v0z" fill="#0074d9" data-fill-palette-color="primary"></path><path d="M180.577 274.902v0c-0.647 0.18-1.256 0.281-1.826 0.304-0.568 0.03-1.077-0.025-1.528-0.163-0.453-0.145-0.832-0.36-1.14-0.644-0.308-0.291-0.527-0.668-0.655-1.131v0c-0.123-0.443-0.102-0.907 0.062-1.394 0.166-0.48 0.44-0.951 0.824-1.413v0l-0.024-0.089c-0.308-0.085-0.591-0.245-0.848-0.48-0.255-0.228-0.442-0.553-0.559-0.976v0c-0.125-0.449-0.11-0.873 0.042-1.271 0.153-0.398 0.341-0.731 0.566-1v0l-0.022-0.079c-0.431-0.194-0.855-0.492-1.273-0.895-0.413-0.412-0.707-0.935-0.883-1.569v0c-0.159-0.575-0.198-1.123-0.115-1.644 0.077-0.519 0.251-0.994 0.523-1.425 0.274-0.424 0.628-0.789 1.062-1.095 0.435-0.305 0.919-0.532 1.454-0.681v0c0.291-0.081 0.568-0.133 0.832-0.156 0.266-0.017 0.511-0.017 0.736-0.001v0l3.666-1.017 0.379 1.367-2.17 0.602c0.312 0.177 0.603 0.43 0.873 0.761 0.276 0.329 0.476 0.715 0.598 1.157v0c0.158 0.568 0.197 1.108 0.119 1.621-0.078 0.513-0.246 0.972-0.504 1.378-0.264 0.408-0.607 0.762-1.028 1.064-0.421 0.302-0.9 0.527-1.434 0.675v0c-0.258 0.071-0.534 0.113-0.83 0.124-0.289 0.009-0.575-0.008-0.857-0.051v0c-0.141 0.21-0.25 0.432-0.327 0.667-0.072 0.226-0.068 0.485 0.012 0.776v0c0.092 0.33 0.296 0.569 0.615 0.715 0.318 0.147 0.84 0.119 1.567-0.083v0l2.031-0.563c1.229-0.341 2.205-0.398 2.929-0.172 0.724 0.226 1.209 0.781 1.455 1.666v0c0.136 0.489 0.143 0.988 0.021 1.499-0.123 0.504-0.37 0.988-0.739 1.453-0.371 0.459-0.86 0.875-1.467 1.25-0.599 0.38-1.311 0.684-2.137 0.913zM177.974 265.519v0c0.304-0.084 0.575-0.223 0.813-0.417 0.233-0.186 0.425-0.417 0.576-0.694 0.144-0.275 0.233-0.584 0.265-0.927 0.026-0.342-0.015-0.707-0.123-1.097v0c-0.216-0.779-0.599-1.324-1.147-1.635-0.553-0.302-1.14-0.367-1.761-0.194v0c-0.621 0.172-1.091 0.53-1.409 1.074-0.31 0.548-0.357 1.212-0.141 1.992v0c0.108 0.39 0.261 0.724 0.459 1.003 0.205 0.277 0.443 0.496 0.716 0.656 0.265 0.161 0.549 0.26 0.85 0.297 0.297 0.046 0.598 0.026 0.902-0.058zM180.491 273.592v0c0.509-0.141 0.951-0.328 1.328-0.56 0.381-0.241 0.687-0.497 0.918-0.767 0.236-0.279 0.397-0.569 0.484-0.871 0.085-0.308 0.09-0.598 0.015-0.868v0c-0.137-0.495-0.41-0.786-0.818-0.872-0.415-0.084-0.969-0.03-1.662 0.162v0l-1.823 0.506c-0.198 0.055-0.423 0.103-0.675 0.144-0.243 0.046-0.491 0.065-0.742 0.057v0c-0.3 0.382-0.493 0.749-0.581 1.1-0.089 0.345-0.092 0.669-0.007 0.973v0c0.158 0.568 0.553 0.942 1.186 1.122 0.633 0.18 1.425 0.138 2.377-0.126z" fill="#0074d9" data-fill-palette-color="primary"></path><path d="M193.253 265.283l-1.724 0.702-5.57-13.663 7.874-3.21 0.594 1.457-6.151 2.507 1.887 4.628 5.208-2.124 0.594 1.457-5.208 2.124z" fill="#0074d9" data-fill-palette-color="primary"></path><path d="M204.599 260.367v0c-1.045 0.532-1.965 0.597-2.762 0.195-0.803-0.399-1.523-1.224-2.161-2.476v0l-3.145-6.176 1.668-0.849 3.033 5.956c0.467 0.916 0.948 1.506 1.443 1.769 0.495 0.263 1.064 0.231 1.705-0.096v0c0.507-0.258 0.886-0.617 1.137-1.075 0.26-0.456 0.476-1.089 0.648-1.899v0l-3.522-6.918 1.649-0.84 4.96 9.74-1.365 0.695-0.912-1.451-0.065 0.033c-0.181 0.762-0.44 1.432-0.776 2.01-0.339 0.573-0.851 1.033-1.535 1.382z" fill="#0074d9" data-fill-palette-color="primary"></path><path d="M215.85 253.913v0c-0.494 0.308-0.957 0.492-1.389 0.552-0.432 0.059-0.836 0.02-1.212-0.117-0.376-0.137-0.731-0.368-1.063-0.694-0.323-0.324-0.628-0.715-0.914-1.175v0l-3.206-5.138-1.369 0.854-0.735-1.177 1.388-1-1.43-2.719 1.318-0.822 1.621 2.6 2.495-1.557 0.795 1.274-2.495 1.556 3.216 5.156c0.356 0.57 0.736 0.947 1.142 1.13 0.405 0.183 0.875 0.108 1.41-0.225v0c0.163-0.102 0.324-0.238 0.483-0.411 0.159-0.172 0.295-0.337 0.406-0.495v0l1.046 0.996c-0.201 0.247-0.429 0.498-0.682 0.752-0.259 0.258-0.534 0.478-0.825 0.66z" fill="#0074d9" data-fill-palette-color="primary"></path><path d="M222.207 249.511v0c-0.951 0.685-1.851 0.889-2.7 0.614-0.854-0.272-1.692-0.978-2.513-2.119v0l-4.05-5.624 1.519-1.093 3.905 5.424c0.601 0.834 1.166 1.344 1.696 1.528 0.53 0.185 1.087 0.066 1.671-0.354v0c0.462-0.332 0.782-0.744 0.96-1.236 0.188-0.49 0.305-1.149 0.351-1.976v0l-4.536-6.3 1.503-1.081 6.386 8.87-1.244 0.895-1.122-1.295-0.059 0.042c-0.063 0.78-0.217 1.482-0.46 2.106-0.248 0.618-0.683 1.151-1.307 1.599z" fill="#0074d9" data-fill-palette-color="primary"></path><path d="M230.956 242.27l-1.405 1.204-7.111-8.301 1.164-0.997 1.401 1.399 0.055-0.046c-0.16-0.766-0.17-1.474-0.033-2.125 0.143-0.655 0.454-1.188 0.933-1.598v0c0.328-0.281 0.672-0.48 1.031-0.598v0l0.784 1.468c-0.181 0.074-0.335 0.147-0.462 0.219-0.137 0.072-0.291 0.182-0.463 0.329v0c-0.354 0.303-0.598 0.761-0.733 1.373-0.14 0.616-0.05 1.396 0.271 2.34v0z" fill="#0074d9" data-fill-palette-color="primary"></path><path d="M238.815 235.225v0c-0.522 0.516-1.101 0.905-1.737 1.168-0.637 0.263-1.294 0.387-1.973 0.373-0.683-0.019-1.366-0.183-2.047-0.492-0.686-0.314-1.345-0.791-1.977-1.43v0c-0.636-0.644-1.107-1.315-1.413-2.015-0.296-0.7-0.459-1.387-0.489-2.06-0.02-0.674 0.085-1.308 0.317-1.903 0.236-0.6 0.579-1.121 1.027-1.565v0c0.488-0.482 1.011-0.83 1.569-1.045 0.559-0.215 1.124-0.291 1.696-0.229 0.581 0.062 1.162 0.249 1.742 0.563 0.585 0.309 1.149 0.739 1.693 1.289v0c0.14 0.141 0.272 0.28 0.398 0.417 0.125 0.136 0.224 0.266 0.295 0.387v0l-5.244 5.182c0.878 0.781 1.786 1.184 2.727 1.209 0.945 0.03 1.791-0.324 2.536-1.061v0c0.375-0.371 0.664-0.767 0.866-1.187 0.206-0.425 0.364-0.87 0.473-1.335v0l1.313 0.407c-0.129 0.552-0.324 1.111-0.584 1.676-0.255 0.57-0.651 1.121-1.188 1.651zM231.725 232.936v0l4.155-4.105c-0.781-0.79-1.539-1.226-2.276-1.308-0.741-0.077-1.416 0.185-2.026 0.788v0c-0.278 0.275-0.488 0.588-0.63 0.941-0.148 0.358-0.22 0.738-0.218 1.141 0.002 0.412 0.085 0.832 0.247 1.259 0.157 0.432 0.407 0.86 0.748 1.284z" fill="#0074d9" data-fill-palette-color="primary"></path><path d="M245.611 227.829v0c-0.509 0.593-1.098 1.063-1.767 1.41-0.678 0.348-1.353 0.582-2.025 0.701v0l-0.341-1.513c0.609-0.109 1.168-0.276 1.676-0.499 0.513-0.228 0.983-0.592 1.412-1.091v0c0.469-0.546 0.695-1.061 0.677-1.547-0.013-0.49-0.201-0.891-0.565-1.203v0c-0.218-0.188-0.455-0.291-0.709-0.311-0.259-0.024-0.525 0.001-0.796 0.075-0.271 0.074-0.55 0.188-0.835 0.34-0.286 0.143-0.571 0.291-0.856 0.444v0c-0.359 0.207-0.73 0.403-1.115 0.588-0.385 0.185-0.771 0.314-1.159 0.387-0.384 0.068-0.768 0.068-1.152 0-0.375-0.069-0.739-0.255-1.092-0.559v0c-0.328-0.281-0.581-0.612-0.761-0.992-0.18-0.38-0.268-0.782-0.266-1.205 0.002-0.423 0.095-0.863 0.279-1.319 0.184-0.456 0.466-0.905 0.845-1.348v0c0.451-0.525 0.955-0.928 1.513-1.208 0.557-0.28 1.102-0.468 1.634-0.562v0l0.32 1.427c-0.464 0.098-0.895 0.243-1.294 0.434-0.399 0.191-0.754 0.468-1.067 0.832v0c-0.447 0.52-0.655 1.005-0.626 1.455 0.024 0.445 0.197 0.807 0.519 1.083v0c0.192 0.165 0.401 0.259 0.627 0.281 0.235 0.021 0.478-0.01 0.729-0.092 0.257-0.078 0.523-0.188 0.799-0.331 0.275-0.152 0.56-0.31 0.854-0.473v0c0.369-0.198 0.745-0.394 1.129-0.589 0.384-0.194 0.775-0.329 1.173-0.402 0.393-0.078 0.789-0.077 1.189 0.005 0.41 0.081 0.807 0.286 1.191 0.616v0c0.343 0.295 0.605 0.637 0.786 1.027 0.18 0.38 0.274 0.796 0.284 1.247 0.01 0.451-0.083 0.923-0.279 1.414-0.201 0.496-0.511 0.989-0.931 1.478z" fill="#0074d9" data-fill-palette-color="primary"></path><path d="M247.481 218.022l-0.78 1.009-6.88-5.003-1.708-1.254 1.145-1.481 1.651 1.327zM250.832 221.404v0c-0.226 0.293-0.524 0.466-0.893 0.518-0.365 0.047-0.708-0.053-1.029-0.301v0c-0.347-0.268-0.544-0.585-0.591-0.95-0.043-0.371 0.049-0.703 0.276-0.996v0c0.222-0.288 0.516-0.455 0.881-0.501 0.365-0.047 0.722 0.064 1.069 0.332v0c0.32 0.247 0.504 0.554 0.55 0.918 0.047 0.365-0.041 0.692-0.263 0.98z" fill="#0074d9" data-fill-palette-color="primary"></path></g></svg></g></svg></g></svg></g></svg></g><defs></defs></svg><rect width="279.72" height="279.72" fill="none" stroke="none" visibility="hidden"></rect></g></svg></g></svg>