<?xml version="1.0" encoding="UTF-8"?>
<svg version="1.1" viewBox="0 0 2048 1239.6" xmlns="http://www.w3.org/2000/svg">
 <g transform="translate(1.8412e-6 172.73)">
  <g transform="matrix(1.0235 0 0 1.0235 -24.52 822.53)">
   <path transform="matrix(.71414 0 0 .71414 -53.906 -1342.1)" d="m1493.3 517.66-1384.3 561.72l715.12 357.56v-0.031l675.84 337.94 667.25-335.22v0.031l743.75-373.66zm673.94 956-667.25 335.22-675.84-337.94-51.719 485.34c524.32 375.38 997.28 309.37 1442 0z" fill="#313131"/>
   <g transform="matrix(-3.285 0 0 2.9265 1008.6 -1778.9)">
    <path d="m9.4062 399.53c-9.9975 0.71143-23.13 4.7948-24.781 16.25 0.38863 9.9419 12.136 13.028 20.375 12.719 10.181-0.96866 14.672-1.238 19.728 0.40147 50.216 14.241 150.65 42.724 150.65 42.724l3.7878 51.602s2.6613 45.321-4.1426 97.118c12.143 2.7217 19.109 1.6187 27.615-7.7632-2.0314-29.449-9.522-92.411-9.522-92.411l2.8863-60.922s-110.4-31.646-164.91-48.438c-1.6312-9.6658-13.597-11.867-21.688-11.281z" fill="#fff" stroke="#313131" stroke-linecap="round" stroke-linejoin="round" stroke-width="7.4181"/>
    <path transform="matrix(-.20368 0 0 .22862 266 256.43)" d="m375.53 1219.9c-33.723-7.2442-56.303-32.914-56.303-58.596s22.579-49.512 56.303-54.009c42.608-5.6812 86.373 20.423 86.373 59.822s-43.765 61.937-86.373 52.784" fill="#313131"/>
   </g>
  </g>
 </g>
</svg>
