<?xml version="1.0" encoding="UTF-8"?>
<svg viewBox="0 0 658.48346 688.86145" xmlns="http://www.w3.org/2000/svg" xmlns:xlink="http://www.w3.org/1999/xlink">
 <defs>
  <filter id="f">
   <feGaussianBlur stdDeviation="1.21892"/>
  </filter>
  <linearGradient id="m" x1="654.25" x2="474.45" y1="1748.2" y2="1759.1" gradientUnits="userSpaceOnUse">
   <stop offset="0"/>
   <stop stop-opacity="0" offset="1"/>
  </linearGradient>
  <linearGradient id="j">
   <stop stop-color="#fff" offset="0"/>
   <stop stop-color="#fff" stop-opacity="0" offset="1"/>
  </linearGradient>
  <linearGradient id="a" x1="-226.08" x2="-217.94" y1="291.44" y2="385.38" gradientTransform="matrix(.4207 -.17945 .17945 .4207 -195.34 -1501.7)" gradientUnits="userSpaceOnUse">
   <stop stop-color="#a0892c" offset="0"/>
   <stop stop-color="#28220b" offset=".20411"/>
   <stop stop-color="#d3bc5f" offset=".22671"/>
   <stop stop-color="#d2bb5e" stop-opacity=".41961" offset=".72643"/>
   <stop stop-color="#504416" offset=".85629"/>
   <stop stop-color="#504416" offset="1"/>
  </linearGradient>
  <linearGradient id="b" x1="-324.85" x2="-239.55" y1="45.07" y2="32.115" gradientTransform="matrix(.16231 .30966 -.30966 .16231 -234.91 -1201.1)" gradientUnits="userSpaceOnUse">
   <stop stop-color="#504416" offset="0"/>
   <stop stop-color="#e9ddaf" offset=".47144"/>
   <stop stop-color="#28220b" offset="1"/>
  </linearGradient>
  <linearGradient id="e" x1="-401.42" x2="-141.2" gradientUnits="userSpaceOnUse">
   <stop stop-color="#e8dcae" offset="0"/>
   <stop stop-color="#28220b" offset=".56034"/>
   <stop stop-color="#28220b" offset="1"/>
  </linearGradient>
  <linearGradient id="c" x1="-162.13" x2="-163.14" y1="397.95" y2="387.38" gradientTransform="matrix(.55639 -.23733 .23733 .55639 -217.77 -1556.9)" gradientUnits="userSpaceOnUse">
   <stop stop-color="#ff2a2a" offset="0"/>
   <stop stop-color="#500" offset=".96258"/>
   <stop stop-color="#ff2a2a" stop-opacity="0" offset="1"/>
  </linearGradient>
  <linearGradient id="d" x1="-159.7" x2="-157.19" y1="312.73" y2="383.82" gradientTransform="matrix(.55639 -.23733 .23733 .55639 -217.77 -1556.9)" gradientUnits="userSpaceOnUse">
   <stop stop-color="#500" offset="0"/>
   <stop stop-color="#f00" stop-opacity=".56078" offset=".33736"/>
   <stop stop-color="#f00" offset=".55427"/>
   <stop stop-color="#f00" stop-opacity="0" offset="1"/>
  </linearGradient>
  <linearGradient id="i">
   <stop stop-color="#c8beb7" offset="0"/>
   <stop stop-color="#c8beb7" stop-opacity="0" offset="1"/>
  </linearGradient>
  <linearGradient id="l" x1="-181.21" x2="-54.414" y1="334.08" y2="198.29" gradientUnits="userSpaceOnUse" xlink:href="#j"/>
  <linearGradient id="k" x1="498.18" x2="449.38" y1="122.55" y2="265.16" gradientTransform="matrix(.9597 .14289 -.14289 .9597 -554.66 12.061)" gradientUnits="userSpaceOnUse" xlink:href="#j"/>
  <linearGradient id="g" x1="-295.9" x2="-282.42" y1="-1497.3" y2="-1438.8" gradientUnits="userSpaceOnUse" xlink:href="#i"/>
  <linearGradient id="h" x1="-290.06" x2="-287.4" y1="-1496.9" y2="-1444.9" gradientUnits="userSpaceOnUse" xlink:href="#i"/>
 </defs>
 <g transform="matrix(2.9397 0 0 2.9397 1109.7 4395.5)">
  <g transform="translate(-121.83 -1685)">
   <path transform="matrix(-.04849 .65172 -.74323 -.06581 1163 102.51)" d="m582.99 1749.5c0 55.185-49.364 99.921-110.26 99.921s-110.26-44.736-110.26-99.921 49.364-99.921 110.26-99.921 110.26 44.736 110.26 99.921z" fill="#000080"/>
   <path transform="matrix(-.04849 .65172 -.74323 -.06581 1163 102.51)" d="m582.99 1749.5c0 55.185-49.364 99.921-110.26 99.921s-110.26-44.736-110.26-99.921 49.364-99.921 110.26-99.921 110.26 44.736 110.26 99.921z" fill="url(#m)"/>
   <path transform="matrix(-.04849 .65172 -.74323 -.06581 1163 102.51)" d="m582.99 1749.5c0 55.185-49.364 99.921-110.26 99.921s-110.26-44.736-110.26-99.921 49.364-99.921 110.26-99.921 110.26 44.736 110.26 99.921z"/>
   <path d="m-169.01642,226.87107c-.2609,0-.6736.0469-.8507.27936-.1707.22439-.3348.51596-.5197.69805-.1107.10912-.2268.41893-.5198.41893-.169,0-.7289-.0898-.8505,0-.2254.16651-.5432.32457-.6143.60505-.091.36027-.4013.30205-.6616.55846-.1469.14476-.4905.41174-.7087.46549-.2854.0701-.5359.13953-.8507.1396-.2395,0-.5722-.0569-.8033,0-.3773.093-.5749.43248-.8978.51196-.2937.0723-.4266.18798-.567.37236-.1814.23812-.603.37228-.8978.37228-.4528,0-.4725.0814-.8034.3258-.2351.17363-.6458.2327-.9451.2327-.4017,0-.971.0127-1.3231.18612-.2398.11818-.5576.16292-.6615.41897-.166.40865-.3051.4527-.7088.65167-.2349.11569-.7526.27563-.9451.46528-.1468.14471-.2284.65981-.4252.69823 .014.009.3096.26229.3779.27918 .2907.0715.6687.0465.9924.0465 .3912,0 .7327.0465 1.134.0465 .3452,0 .5502-.23271.8506-.23271 .4022,0 .8026-.00014 1.1814.0931 .3157.0776.6132.18616.9449.18616 .3515,0 .5495-.019.8507-.0931 .3822-.0942.6123-.0749.8033-.32574 .1682-.22082.3097-.35675.5198-.51204 .1679-.12398.8033-.79119.9451-.79126 .3522,0 .6096-.10343.9451-.18609 .2305-.0568.2395-.60443.4725-.55852 .1369.027.4178.36263.5671.3258 .1299-.032.2907-.0668.4252-.0464s.2435.12139.2836.27919c.078.31017.1695.30022.3307.51196 .079.10375.4715.56302.4253.74471-.056.22123-.1095.59209-.047.8377s.074.5191.1888.74472c.076.15082.2929.50179.331.65155 .074.29184.2386.28404.378.55853 .1658.32698.083.46945-.047.79118-.1118.27522-.2748.59375-.1892.93089 .017.0694.029.16301.048.23271 .053.20826.083.32101.1418.37227s.1409.0465.378.0465c.2788,0 .6631.001.8033.13956 .1894.18666.3781.2915.3781.55851 0,.19218-.1077.70471-.2836.79123-.1271.0627-.5198.39865-.5198.60502 0,.25922.047.5518.047.79122 0,.0524-.013.1356 0,.18623 .078.30901.1452.70469.2836.97734 .1088.21451.3531.40416.4725.69815 .1056.25976.1159.64714.2363.88434 .133.26208.2661.47768.378.69808 .1326.26116.2123.76764.4253.97745 .2509.24716.3512.4148.5671.69808 .1852.24327.4203.55367.6142.74467 .1722.16969.3478.38914.5672.60504 .4513.44457.7237.7055 1.2758.97741 .2827.13928.611.27761.8978.41887 .324.15964.598.37196.8505.55852 .2872.21214.5858.5189.9924.41885 .3524-.0869.8946-.0217 1.2286-.18622 .1097-.0541.2307-.0893.3308-.18607s.185-.2405.094-.41899c-.073-.14501-.2362-.38056-.2362-.60496 0-.38136-.094-.72455-.094-1.11696 0-.27802-.017-.49205.048-.74477 .051-.19978.065-.48819 0-.74461-.08-.31562-.015-.61785-.094-.93089-.066-.26001-.047-.59489-.047-.88423 0-.27126-.015-.49668.047-.74467 .074-.29157.047-.59561.047-.88431 0-.24755-.042-.52228.048-.69817s.2106-.61213.4725-.69818c.221-.0725.9923-.23702.9923-.51188 0-.30652-.029-.53539-.094-.79123-.074-.2941-.2705-.58394-.094-.93085 .2024-.3988.5986-.50694.8505-.83774 .1434-.18842.3917-.38587.6142-.60508 .1672-.16461.5344-.30772.6144-.4654 .1037-.20418.2363-.50818.2363-.74473 0-.16662.073-.75496-.094-.83775-.2446-.12038-.5198-.078-.5198-.37232 0-.19558.2143-.6482.1418-.79122-.1146-.22591-.2424-.42039-.6143-.51192-.2931-.0722-.6961-.12782-.9923-.18617-.1795-.0354-.5877-.0873-.6616-.23267-.084-.16588-.1662-.61725-.3308-.69824-.268-.13205-.5708-.13957-.8979-.13957-.082,0-1.1022-.2406-.7558-.32572 .3441-.0849.3338-.14613.4723-.41896 .078-.15478.2365-.41865.094-.60501-.1976-.25981-.4668-.36678-.6615-.55858-.2585-.25463-.8571-.37227-1.2286-.37227-.053,0-.09.0126-.1418,0-.2094-.0516-.4045-.25883-.5671-.41891-.2407-.23738-.6772-.3413-.9923-.41886-.2385-.0587-.3844-.2576-.6614-.32586-.2734-.0673-.5664-.0693-.8507-.13957-.3712-.0915-.7674-.16055-1.1341-.23279-.1362-.0267-1.0976-.097-1.0396-.32573 .035-.14003.218-.46538.4253-.46538 .2843,0 .6202.0547.8978,0 .3624-.0713.7342-.13973 1.1342-.13964 .3648,0 .7322.0233 1.0866.0931 .4433.0874.9342.0321 1.3705.13963 .3428.0844.8708.13961 1.2286.13961 .5039,0 1.0909-.0465 1.6066-.0465 .7882,0 1.4921-.18609 2.2683-.18609 .449,0 .6026-.26964.9451-.32579 .1735-.0285.3212-.0779.3779-.13972s.01-.12615-.2362-.18616c-.2964-.0729-.6382.0291-.9451-.0465-.2307-.0568-.5971-.13951-.8506-.13951-.3646,0-.6768-.0464-1.0396-.0464-.2595,0-.4938.0749-.7559.13956-.3455.0852-.6773,0-1.0396,0h-1.1342c-.5078,0-1.041-.093-1.5121-.093-.3071,0-.6074-.0464-.8505-.0464-.4828,0-1.0424-.001-1.4177-.18615-.35-.17245-.6038-.27673-.9923-.37241-.1797-.0443-.5963-.51203-.7561-.51203zm30.148.55852c-.5924.12153-1.2039.19169-1.7485.3259-.6888.16957-1.1135.48202-1.7483.32574-.4416-.10877-.8609-.14166-1.3231-.23275 .1499.1478.078.34044-.047.51196s-.33.30199-.4254.37236c-.014.0102-1.0895.12867-1.1341.13966-.2561.063-.1563.23278 0,.41886s.3959.35348.4727.37233c.5842.14395 1.3216.48796 1.8428.74466 .224.11035.3288.19745.3779.32582s.043.30906.094.51199c.1016.40048.1611.52141.5198.69812 .3137.15453 1.0178.18621 1.3703.18621 .5713,0 1.416.27871 1.8429.41882 .36.11816.8944.50861 1.1341.74468 .2489.2453.4864.39044.7561.74472 .3124.41014.6284.63519 1.0396.83769 .3554.17509.9111.16942 1.1341.27922 .4058.19993.899.51319 1.1813.79126 .3331.32811.5979.63521.8506.88432 .3284.32338.4072.68471.8033.97737 .4055.29965.7312.53386 1.0397.83779 .3578.35242.6775.52765.9923.83768 .2476.24395.4927.59835.8978.69818 .551.13569.9015-.21031 1.3703-.32578 .2298-.0567 1.0612.79536 1.1814.88435 .2788.20573.5478.61374.6615.83772 .1294.25496.5678.60577.7562.79121 .3641.35864.4506.43136.8978.65156 .1833.0902.3923.10517.5669.0466s.2952-.18569.3309-.32586c.098-.38896.2502-.59643.1417-1.02384-.064-.25187-.024-.53862.094-.74469s.3121-.3117.6615-.13963c.2497.12307.4085.52528.5198.74472 .1571.30955.3781.71893.3781,1.16344v1.07055c0,.16948 1.9875,1.25937 2.0319,1.30322 .2547.25078.5981.40823.8977.60498 .3299.21661.543.4303.9923.65162 .255.12552.3923.3583.4727.60502s.099.49307.047.69812c-.058.23004.1391.7553.047,1.11705-.071.2806-.1238.50302-.094.6516s.1511.21397.4724.37226c.4662.22959.6425.5938 1.1341.88433 .2572.15202.459,1.92782.6144,2.23406 .179.35271.38.82954.2835,1.21008-.1048.41299-.2835.71938-.2835,1.16356 0,.31656-.252.75996-.3308,1.07046-.075.2963-.2181.60913-.2836.83776s-.053.3793.2836.51195c.4378.17251 1.158.37233 1.6066.37233h1.4177c.2253,0 .4528.44556.6614.93086s.3842,1.00709.4254,1.2101c.087.43078.2019.61762.4726.88428 .3549.34974.8738.6504.9923,1.11701 .1351.53276.3217.66907.094,1.11702-.1107.21799-.8872.39035-1.1341.51195-.3546.17462-.9504.23834-1.465.37237-.2571.0671-.4908.16488-.6615.27923s-.2836.26553-.2836.46542c0,.45562.1863.64608.3782,1.02391 .2086.41127.4016.72896.6614,1.07048 .043.0557.091.13698.1419.18618 .2881.28389.2577.72651.5198,1.07044 .3612.47456.5394.87646.8032,1.39634 .254.50045.8275.88522 1.1341,1.48923 .1713.33757.4725.98031.4725,1.44288 0,.36491.1957.72365.2836,1.07047 .067.2645.3398.52138.6143.69817s.553.31061.8034.37228c.4422.10888.9551.0465 1.4176.0465 .4897,0 .7898-.13953 1.2286-.13953 .253,0 .6118-.64835.7561-.83781 .3157-.4147.4994-.6646.6143-1.11694 .062-.24396.1264-.4873.1417-.7448 .015-.25733-.034-.49924-.2363-.69805-.172-.16945-.2011-.33643-.189-.51205s.066-.34992.189-.5119c.066-.087.094-1.20227.094-1.25664s-.6001-.78803-.7088-.93083c-.2654-.3486-.3326-.79461-.5198-1.16356-.2019-.39787-.2363-.74709-.2363-1.25661v-1.16358c0-.53244-.2473-.70888-.5198-.97735-.2869-.28261-.2752-.52582-.378-.93088-.07-.27788-.037-.4408.048-.55846 .085-.11777.2496-.19615.4252-.32587 .2909-.21479.378-.66793.378-1.02384 0-.25693-.082-.51685-.094-.69817s.028-.32112.2364-.37231c.1914-.0473.4082.10788.5669.2792s.2659.38016.3308.46545c.2462.32337.2966.50992.6144.74465 .4268.31543 1.0496.47041 1.4175.65166 .389.19158.7448.38707 1.0397.60499 .3653.26999.6705.52086.8977.74462 .217.21379.2803.63182.4726.88434 .2015.26471.4278.32812.6615.55857 .2524.24853.3958.73309.5198.97734 .1375.27078.2331.37588.3308.37233s.2191-.13117.4253-.23269c.1304-.0642-.2031-1.03277-.2363-1.16358-.092-.36372-.6132-.88193-.756-1.16355-.1526-.30052-.1034-.42903 0-.41894s.2715.1279.3779.23275c.3127.30791.611.41212.8507.88431 .1038.20442.4985.49093.7089.69815 .3079.30341.2651.57973.3779,1.02399 .04.1571.1394.19466.2364.18605s.2168-.0867.3307-.18605c.2278-.19877.4621-.49175.5197-.60505 .1414-.27843.1836-.58904.2836-.88434 .1301-.38467.066-.7167-.047-1.02394s-.3043-.58638-.4254-.88431c-.108-.26633-.2753-.49866-.4253-.7447-.4543-.74587-.8306-1.44989-1.2285-2.23397-.019-.0383-.028-.0545-.047-.0932-9.3586-15.31294-24.3235-26.86659-42.1505-31.88136zm-46.1198,6.14356c-.2379,0-.6173.44372-.756.51206-.3043.1498-.622.49426-.8979.69804-.287.21207-.5297.40289-.8033.60505-.3122.23068-.5193.27932-.9924.27932-.4487.00011-.4587.20257-.8033.37235-.4029.19841-.7755.8294-.945,1.16347-.1599.3149-.3892.709-.5671.88431-.2163.21311-.6018.34284-.8506.46548-.2966.14599-.1889.72282-.1889,1.02391 0,.20119-.7965.23275-.8506.23275-.1085,0-.7364-.91147-.8034-.97744-.3342-.32928-.1603-.38849-.6615-.51199-.2714-.0668-.492-.044-.6143-.0931s-.1889-.18071-.1889-.51191c0-.35909.4363-.52296.6143-.6982 .2162-.2129.6418-.36266.8504-.46538 .304-.14981.4322-.42559.6616-.65163 .2849-.28061.3308-.60331.3308-1.02391 0-.13121-.6723-.40088-.8033-.46539-.3-.1478-.4906-.4743-.8506-.65163h-.047c-6.775,3.74907-12.8453,8.53711-18.0509,14.14881-.058.28751-.085.63328-.1891.83772-.1983.39098-.4768.46956-.7561.74475-.2091.20597-.3202.59097-.4725.79124-.2194.28803-.5521.40408-.8033.65152-.2435.23987-.2362.78537-.2362,1.1171 0,.3139.1409.42946.2835.41879s.2665-.15261.378-.3723c.138-.27193.8293-.69404 1.0868-.88432 .3534-.26109.8564-.43041 1.0396-.79121 .1656-.32608.3234-.5294.4253-.93082 .1354-.53345.4348-.76346.7088-1.30329 .097.30128.258.67292.5671.97746 .1413.13935.2074.34111.189.51199s-.1215.33241-.189.46532c-.1064.20966-.5343.52624-.7562.74476-.2687.26473-.4164.26201-.5668.55857-.1627.32005-.4325.40015-.5199.74458-.081.32179-.2491.56247-.3307.88424-.1166.45942-.04.73676-.3782,1.07055-.2297.22634-.3597.67273-.4253.93088-.1161.45791-.3248.57735-.6142.79112-.3154.23316-.4294.71413-.5199,1.07058-.1183.46641-.6817.97064-.8978,1.39625-.1855.36551-.3312.41972-.5197.79124-.131.25809-.1499.6836-.2363,1.02384-.095.37774-.3118.7351-.567,1.07045-.043.0558-.1391.0905-.189.13968-.2523.24856-.4253.82204-.4253,1.16355 0,.31789-.4354.877-.5198,1.21006-.1151.45312-.2053.82319-.3782,1.16351-.2132.42012-.4151.58523-.6143.97742l-.5197,1.02395c-.139.27402-.1417.66735-.1417,1.02399 0,.31347-.1109.80934-.189,1.11693-.086.34102 0,.81146 0,1.16361 0,.45621-.1657.7216-.4253.97735-.3044.29979-.499.47655-.6143.9309-.073.28758-.2683.66815-.4252.97727-.2078.4092-.233.64701-.5199,1.02399-.2163.28412-.3733.7259-.4726,1.11698-.1054.41557-.1396.74047-.3307,1.117s-.2339.64208-.3308,1.02391c-.093.3703-.252.63597-.378.88436-.1823.359-.1889.74411-.2835,1.11706-.1032.40672-.1417.895-.1417,1.30302 0,.35775-.1891.79474-.1891,1.21015 0,.42914-.046.78454-.1417,1.16358-.092.36553-.047.75618-.047,1.16356 0,.57915-.1418,1.13306-.1418,1.72205 0,.45282.1817.52925.2835.93085 .089.35377.054.77076.1417,1.1169 .043.16914.094.30691.094.51214 .1428.56281.5198.72922.5198,1.3031 0,.45117.048.65473.1417,1.02395 .091.36012 0,.83697 0,1.21009s-.1463.85572-.2362,1.2101c-.012.0478 0,.0903 0,.1396 0,.44519-.1418.91643-.1418,1.39623 0,.13666.2797.7837.378.97743 .1824.35928.2816.87621.3781,1.25676 .1427.5624.3036,1.04977.5198,1.58236 .172.42375.1926.75349.3779,1.20996 .1214.29863-.018.85751.048,1.1171 .092.36255.094.78728.094,1.16353 0,.42408.094.76006.094,1.16351s.051.75911.1416,1.11702c.1087.42833.047.74476.1891,1.0239 .2398.47249.4648.57467.5671.97746s.2434.77288.3308,1.11697c.1021.40277.5182.73894.6143,1.11706 .1319.51976.6098.98254.8505,1.5359 .149.34258.1511.76307.2836,1.02392 .1255.24729.706.46321.8977.60502 .1794.13248.1786.28148.2363.41888s.1541.25904.4253.32581c.3246.0799.5388.39793.756.55844 .2861.21145-.1495-.6822-.2362-1.02388-.097-.38648-.4921-.79222-.6615-1.07044-.1585-.26037-.022-.88111-.1418-1.11704-.1951-.38425-.3699-.71269-.4726-1.11698-.1093-.43034-.3166-.82849-.4252-1.25669-.1109-.43692-.279-.73552-.4726-1.11697-.2315-.45613-.5197-.62343-.5197-1.16358 0-.34682-.2703-.95107-.4253-1.2566-.1633-.32151-.094-.96884-.094-1.34976 0-.37399-.1419-.67963-.1419-1.07041 0-.46157-.128-.92347-.2362-1.34973-.099-.39214-.2362-.74281-.2362-1.16362 0-.31101.082-.41628.1416-.37232s.094.24759.094.51206c0,.28955.3988.59311.4726.88425 .1042.41039.177.83676.2835,1.25664 .083.33021-.091.80339 0,1.16363 .1046.41209.3309.65096.3309,1.11692 0,.38912.1416.67187.1416,1.02398 0,.25473.3138.7702.3781,1.02391 .1016.39948.1834.8151.2835,1.21009 .084.33426.2783.77051.378,1.16356 .081.31932.2835.71347.5198,1.02387 .2057.26999.2449.76149.3781,1.02391 .2115.41678.3132.66337.5197,1.07049 .1678.33024.291.58757.3781.93083 .098.38847.4413.91579.6143,1.25665 .1646.32435.3496.67938.4253.97738 .1117.44033.2204.94608.4253,1.34971l.4725.93089c.2063.40644.4763.70171.756.97739 .3418.33649.816.49898 1.2286.69804s.7449.42074.8505.83778c.091.36043.3897.7675.5199,1.02395 .1924.37913.554.7319.8506,1.02396 .7844.77273 1.4464,1.59649 2.4572,2.09442 .3424.16851.5698.26822.9924.37229 .4261.10496.7726.14781 1.134.32576s.7034.23277 1.1342.23277c.1713,0 .6041.39302.8978.46538 .2618.0644.6856-.0873 1.0395,0 .4866.11977.6405-.30773 1.1342-.18611 .457.11248 1.1574,1.14585 1.5593,1.44273 .3559.26299.7265.54021 1.1341.88431 .3727.31472.6318.49304 1.0868.60506 .3626.0894.565.13847.8506.27923 .3059.15064.8197.0465 1.1814.0465 .3466,0 .694.4974.8978.69819 .4843.47708 1.0543.74845 1.3703,1.16359 .2776.36467.4366.84886.7562,1.16353 .2874.28313.6905.63366 1.0395.97739 .2886.28433.6181.48032.7088.8376 .096.38241.5631.55661.8506.69824 .3169.15605.7441.25303 1.0395.32574 .2637.0649.6898.63762.8978.79128 .1587.11725.9733-.0931 1.2286-.0931 .3329,0 .7415.47732.9452.7447 .232.30473.3763.55846.8032.55846 .4399,0 .808-.19067 1.087-.46551 .2211-.21777.2833-.80909.2833-1.11691 0-.28615.7504.36673.8979.512 .2306.22714.5328.5713.7089.74462 .3323.32743.785.75511.9451,1.07048s.067.73804.2363,1.07048c.1885.37164.3423.58915.5669.88424 .2396.31459.2363.56818.2363,1.07048 0,.40403.094.723.094,1.117 0,.34452-.2988.47898-.378.79127-.094.37364-.2362.63455-.2362,1.11701 0,.33455-.6143.67087-.6143,1.16354 0,.37242.3789.93496.4724,1.30315 .1072.42249.2269.95882.4253,1.34977 .2288.45064.5835.39047.7088.88429 .1076.42395.1351.85792.2363,1.2566 .095.37553.3343.52583.4253.88432 .079.31204.3226.597.5199.79123 .2435.23991.6587.47635.9922.55848 .6042.1487.8278.38878 1.1341.79125 .2692.35345.4049.72961.8032,1.02396s.5713.32971.8506.60497c.064.0628.1142.0905.1891.13964 .3769.24755.481.56258.9451.79125 .3765.18549.699.49674 1.0395.69811 .4317.25516.657.43983 1.0869.65157 .37.18231.6543.53161.9923.69816 .3679.1812.6401.33081 1.0868.41884 .3618.0713.8257.20328 1.1341.27929 .4685.11538.9182.19617 1.2759.37231 .3361.16548.7039.55358.8978.74478 .2793.27502.747.4841 1.087.65145 .2565.12656.6106.34733.8505.46554 .4777.23528.6656.57308 1.0868.8842 .3244.23979.5461.53793.8033.79123 .3135.30891.5028.72808.7561.97729 .3021.29776.4284.6178.5198.97743 .1145.45148.4305.70856.6142,1.07059s.7025.56554.9451.88428c.2354.30898.6948.45158.9451.69809 .3286.32364.6167.42199.8978.79124 .2734.35886.566.46418.756.65161 .2687.26454.6574.39349.8978.51191 .072.0357.1169.0661.1891.0932 2.0004-.10083 3.9523-.25438 5.9068-.51206 .015-.037.083-.0491.094-.0931 .1244-.49075.7324-.87285.9922-1.25665 .2687-.39711.6949-.44407 1.0395-.51195 .41-.0808.5915-.34996.8978-.65156 .3125-.30792.6114-.60102.8978-.97739 .2827-.37127.3843-.62869.6144-.93081 .2723-.35768.3296-.69581.5198-1.07055 .2176-.42889.4477-.75573.8033-.93085 .4138-.20385.5328-.51513.8979-.60498 .488-.12032.6995-.31196 1.1339-.41894 .3521-.0867.9311-.91697 1.1342-1.11701 .2983-.29388.5014-.48765.8033-.88434 .1114-.14632.2016-.33811.3307-.46543 .099-.12304.1837-.20274.2837-.3258 .1676-.20644.1752-.87651.2361-1.11697 .086-.34204.2636-.79832.4254-1.11711 .1662-.32745.1116-.77798.2834-1.11692 .1915-.37687.3118-.7071.4727-1.02396 .1797-.35415.059-.76734.2362-1.11697 .1825-.35946.2915-.71377.4253-.97737 .1915-.37757.1221-.50217.6142-.74467 .2631-.12953.5334-.57171.7562-.79118 .2079-.2049.3238-.82413.4253-1.02395 .1771-.34914.6217-.65891.8505-.88438 .1809-.17825.3518-.57913.5197-.74461 .2012-.198.2325-.77602.2836-.97742 .081-.32112.059-.69729.1418-1.02392 .091-.35987-.2655-.63379-.4254-.79126-.3032-.29869-.5061-.68803-.8977-.97743-.3367-.24874-.5715-.37655-.7561-.55842-.2429-.23925-.6739-.3551-.9924-.51191-.2718-.13393-.5195-.18618-.945-.18618h-1.2286c-.431,0-.6581.0931-1.0396.0931-.4073,8e-005-.6798.0932-1.0868.0932h-1.1341c-.3391,0-.5948-.18619-.9923-.18619-.4072,0-.4438-.27226-.6616-.55853-.1951-.25627-.7123-.3258-1.0395-.3258-.4443,0-.8553-.0465-1.3704-.0465-.595,0-.6938.15543-1.1342.37237-.3115.1535-.6094.36761-.8033.55852-.2258.22239-.7242.35978-.9922.46543-.3525.13884-.8023.0818-1.1341,0-.2262-.0557-.2956-.20273-.3309-.37241s0-.38307 0-.60502c0-.43095.2574-.62575.5198-.88423 .1707-.16822.1418-.76224.1418-1.02395 0-.52006.057-.58529-.1418-.97738-.1709-.33663-.518-.46371-.7088-.6516-.2262-.22276-.3965-.62328-.6142-.83773-.2084-.20518-.4249-.60419-.5672-.88429s-.5419-.4298-.8033-.5586c-.325-.15996-.8197-.21337-1.0867-.27919-.3269-.0805-.7954,0-1.1342,0h-1.0868c-.4004,0-.7102.0931-1.0869.0931-.2822,0-.5543.1861-.9451.1861-.3079,0-.5929-.42184-.8033-.69811-.2756-.36199-.6137-.41819-.8505-.65156-.2528-.24909-.5581-.31693-.7561-.51196-.2344-.23104-.8772-.34399-1.1814-.41885-.4468-.11007-.821-.21824-1.134-.37236-.4313-.21236-.4476-.41621-.6616-.8378-.1821-.35878-.3308-.55685-.3308-.93076 0-.29631-.1837-.78077-.2835-.9774-.072-.1422-.1905-.29745-.2362-.37238-.1463-.28828-.02-.4476.048-.55847s.091-.16371-.189-.23269c-.034-.009-.6893.60217-.756.65162-.2988.22061-.5231.17523-.9452.27915-.6225.15336-.6883.12654-1.2285-.13961-.2248-.11062-.2619-.24215-.3308-.32577s-.1337-.13001-.4726-.0466c-.345.085-.6016.31955-.8978.46545-.3343.16467-.5075.20033-.8034.41883-.3055.22587-.8514.39635-1.134.60508-.2608.19264-.9525-.16658-1.087-.23265-.3543-.17473-.3639-.78276-.4252-1.0239-.082-.32598-.177-.36569-.2835-.27931s-.2357.32478-.3308.51195c-.1222.24072-.2996.30856-.4725.32577s-.3157-.0158-.4725-.0932c-.045-.0219.048-.97786.048-1.11691 0-.18147-.5954-.67947-.6616-.74472-.179-.17628-.2921-.13364-.378,0s-.1559.35362-.2362.51196c-.1841.36269-.1921.80599-.2836,1.25664-.077.38108-.094.7793-.094,1.16359 0,.26614-.2343.46338-.4253.65159-.1775.1749-.2064-.0677-.189-.41889s.096-.78151.048-1.02394c-.079-.39203-.2333-.73225-.3309-1.11695-.081-.31975-.065-.64023-.189-.88437-.1182-.23295-.3262-.039-.5198.23277s-.3946.64233-.4724.74464c-.3019.39649-.9514.76841-1.1814,1.07049-.1087.14271-.725.38028-.8979.46537-.3972.19559-.8969.77892-1.2286,1.02389-.3153.23313-.2834.89468-.2834,1.25672-.0001.4565.1552.39213-.094.88425-.1179.23204-.308.22096-.4727.13963s-.2679-.21733-.3307-.27922c-.2628-.25878-.4672-.37102-.8506-.46542-.4189-.10311-.7442.10164-1.0869.18603-.4631.11417-.8851.31114-1.323.41898-.3548.0874-.8684-.0161-1.1814-.0931-.2651-.0652-.5173-.41631-.7561-.6516-.3011-.29677-.4052-.39237-.7088-.79128-.2299-.30208-.3045-.5157-.6143-.74458-.3805-.28116-.4651-.12485-.6615-.51204-.1689-.33272-.2829-.55779-.4726-.74466s-.1416-.65364-.1416-1.02387c0-.36266-.094-.81965-.094-1.2101 0-.37657-.075-.76282-.1417-1.02395-.083-.32708-.047-.79134-.047-1.11705 0-.27399-.4726-.54683-.7089-.60494-.3916-.0964-.6684-.18619-1.2758-.18619h-1.4176-1.1341c-.2844,0-.3562-.0591-.5198-.13973-.065,0-.4253-.98191-.4253-1.1169 0-.40413-.094-.72296-.094-1.11708s-.072-.74917-.1419-1.02384c-.077-.30353-.052-.66876-.1417-1.02399-.081-.32184 0-.78325 0-1.11696 0-.40368.094-.59621.094-1.02395 0-.28644.047-.68735.047-1.02392 0-.43306-.2478-.75043-.6143-.93086-.3198-.15754-.7053-.0931-1.0867-.0931-.3905,0-.638.0988-.9924.18612-.4015.0989-.5988.54324-.756.69828-.2677.2636-.2913.682-.378,1.02388-.083.32691-.047.79128-.047,1.11705 0,.18242-.4148.70355-.4726.93071-.1048.41264-.6791.66032-.945.79125-.3942.19422-1.0732-.0397-1.3705-.18617-.2431-.1198-.6768-.81109-.8032-.97727-.2043-.26847-.4291-.46914-.6144-.65173-.2522-.24838-.4796-.38166-.7559-.74463-.215-.28227-.3707-.59047-.4726-.79125-.1792-.35288-.2289-.59051-.4254-.97738-.1779-.35072-.4118-.71814-.6143-1.1169-.2234-.44041-.2313-.64675-.5198-.93089-.2986-.29434-.378-.7048-.378-1.11709s-.1417-.84694-.1417-1.25665c0-.37383-.1417-.72608-.1417-1.11698v-1.11695c0-.34542.2362-.63028.2362-1.02395 0-.42951-.094-.61969-.094-1.02397 0-.48591.039-.72589.2363-1.21006 .1265-.31175.4905-.5473.6142-.79123 .1487-.29283.3056-.50974.5198-.79121 .2166-.28442.5492-.44974.8978-.55845s.7101-.19819 1.0396-.27924c.5125-.12625.9434-.0702 1.4176.0466 .5142.12666 1.0164.18616 1.5595.18616 .2616,0 .3872.12644.5197.23265s.2625.20308.5198.13966 .1891-.89745.1891-1.11699c0-.26347-.1045-.40177-.094-.51193s.129-.2032.3779-.32587c.436-.21457.5-.27923 1.0397-.27923 .477,0 .9231.0931 1.3703.0931 .265-6e-005 .6503.29695.8979.41884 .2411.11876.3912.11985.567.13968s.3365.085.5198.32576c.2514.33003.6107.55493.8506.79122 .262.25804.7624.39866.9923.51192 .1686.0832.1412.92846.1891,1.11705 .091.35954.3078.65249.4725.97737 .2303.45352.3381.94861.5198,1.39632 .1301.32038.252.63614.3781.88428 .1988.39184.3133.57321.6615.74464 .2866.14117.5828.15519.8978.23275 .3732.0919.6759-.23598.8506-.4655 .1346-.17688.098-.44279.048-.69805s-.1477-.5063-.2362-.65163c-.2796-.45892-.1958-.90414-.3781-1.44281-.1435-.42423-.4417-.82828-.6615-1.117s-.26-.7914-.4253-1.11698c-.1766-.34777-.2876-.62141-.378-.97746-.089-.3505-.1123-.72166-.189-1.02391-.1185-.46681.1571-.85279.4725-1.16348 .2339-.23037.2647-.39153.3308-.65165 .3776-.37204.58-.81664.8034-1.25655 .1905-.37558.2835-.68002.2835-1.11707 0-.22863.2143-.46776.4724-.69815s.5616-.45806.7089-.65156c.2744-.36045.6509-.72388.8505-1.11701 .1684-.33171.5019-.58102.6143-1.02392 .077-.30357.052-.66877.1419-1.02394l.2834-1.11698c.096-.38035.092-.70778 0-1.07052-.089-.35342-.2392-.70396-.3779-.97738-.1875-.36927-.447-.57964-.6617-.79126-.1692-.16673-.1416-.84944-.1416-1.11691 0-.23729.7226-.23275.945-.23275 .3449,0 .7538-.22046.9923-.27928 .2208-.0544.5286-.5757.6615-.83774 .1662-.32728.2792-.63419.3781-1.02399 .107-.42122-.094-.74646-.094-1.11691 0-.31813.3582-.66505.6143-.79121 .3684-.18152.5883-.3259 1.0397-.3259 .4373,0 .8061.0931 1.2286.0931 .505,0 .6176-.14631.8032-.51188 .1401-.27585.094-.78824.094-1.11706 0-.37703-.024-.74649-.094-1.02398-.057-.22597.045-.45648.094-.65155-.063-.25002.4556-1.00713.5197-1.07041 .2469-.2431.5191-.48828.8507-.65162 .284-.13989.6134-.37135.8978-.65155 .3064-.30189.5691-.65352.7562-.83776 .2766-.27265.3163-.54423.5669-.79124 .1182-.11636.064.85064 0,.97738-.092.18137-.044.309.048.46549s.2457.31627.2835.46534c.061.24212-.041.40451-.048.51201s.046.1862.3781.1862c.4659,0 .5844-.12713.7561-.46551 .1832-.36098.5116-.40117.8505-.65157 .2566-.18958.4017-.48862.6615-.7447 .3054-.30084.5161-.36716.8034-.74464 .2473-.32464.5771-.33074.9451-.51192 .5169-.25474.2802-.60426.8504-.74471 .352-.0867.5739-.3856.7089-.65154 .1411-.27803-.2362-.68039-.2362-.97742 0-.47443-.1303-.65199-.3781-.97734-.1338-.17562-.264-.20755-.378-.18624s-.1917.0957-.2835.18624c-.2253.22187-.3308.79105-.4726,1.07041-.1972.38831-.097.64244-.4252.88435-.2394.17672-.8706-.48017-1.0397-.60509-.2967-.21921-.7409-.27926-1.134-.27926-.2426,0-.3642.0918-.4725.13959s-.2149.0421-.3781-.27919c-.1305-.25725-.085-.80067-.1418-1.02395-.051-.20228-.1771-.28716-.2362-.37229s-.02-.21265.1889-.41893c.2741-.26988.4254-.15375.4254-.65167 0-.37503.3298-.65103.6143-.79112 .3692-.18188.1702-.4654.7088-.4654 .375,0 .7649-.1207.9923-.2327 .2147-.10593.3415-.25019.3307-.37234s-.1273-.18619-.378-.18619c-.4728,0-.7459.27923-1.2285.27923-.2984,0-.7768.3206-1.0396.37233-.3788.0747-.7401.0426-1.1341.13967-.4057.0998-.7198.40992-1.1342.51188-.3653.09-.822.67859-.8978.97742-.1181.46565-.5036.86837-.8506,1.21011s-.5148.35158-.8505.18616c-.045-.022.5081-.95431.6143-1.16353 .2444-.48138.3241-.78447.756-1.21016 .3281-.32297.6711-.52114.9452-.79118 .3218-.31699.4751-.64058.8977-.74464 .4308-.10605.9145-.0466 1.3705-.0466 .4326-.00011.7156-.18627 1.0867-.18627 .3455,0 .7342-.47233 1.0397-.69801 .3499-.25871.9193-.24636 1.3231-.32589 .4592-.0905.6497-.2094.8033-.51195 .1692-.33315.6159-.28071.8506-.51202 .1677-.16526.188-.34075.2363-.46538s.088-.21944.3306-.27923c.3721-.0915.7814-.0643 1.087-.13956 .3266-.0804.748,0 1.0868,0 .266,0 .442-.0395.5198-.13962s.094-.27183.094-.46543c0-.36361-.2131-.67532-.4725-.93088-.2978-.29337-.458-.57634-.6616-.9774-.1756-.34595-.336-.75494-.4725-1.02395-.1612-.31754-.2836-.69818-.4253-.97734-.1906-.37567-.5831-.57411-.8978-.65166-.3227-.0795-.7144-.42427-.8979-.60502-.2232-.2199-.4427-.4433-.6615-.60501-.3138-.23186-.4626-.25959-.6143-.55853-.1434-.28239-.3423-.53464-.5198-.88428-.1378-.27147-.3377-.43252-.4726-.69813-.1432-.28242-.042-.73307-.1417-.93086-.1357-.26729-.2371-.69953-.378-.97733-.159-.31327-.2599-.37212-.4253-.69827-.211-.41562.048-.65101-.2363-.93077-.2694-.26528-.2849-.48936-.6143-.65166-.2021-.0994-.2821-.19077-.3781-.23263s-.1981-.0189-.4252.0931c-.04.02-.3375.71131-.378.79119-.1716.33784-.412.40563-.7562.74464-.3173.31269-.5007.52111-.6615.83778-.1421.28008-.7124.0922-.8979.0465-.1712-.0421-.2031-.21329-.189-.41888s.043-.43627 0-.60514c-.081-.32181 0-.78319 0-1.11692 .0001-.15996.1774-.16409.3781-.18622s.4523-.073.5671-.18616c.142-.13996.2262-.21819.2363-.32582s-.055-.23992-.2363-.41882c-.2121-.20888-.7438-.12497-.9923-.18625-.5267-.12967-.7345-.0771-1.1342-.37229-.3537-.26127-.5596-.48275-.6616-.88427-.067-.26306-.63-.2133-.8977-.27927-.3775-.0931-.7684-.0931-1.1814-.0931-.3542-.00011-.6238.28152-.9924.3723-.2069.0511-.3812-.034-.5197-.0465s-.2523.0166-.3308.32577c-.104.4096-.2715.67444-.4252.97733-.1265.24905-.1418.6593-.1418,1.02399 0,.45352-.1248.53227 0,1.02392 .085.3344-.031.77574-.094,1.0239-.096.37909.095.73961 0,1.11706-.1226.48335-.2591.65294-.047,1.07049 .1967.38723.4034.47203.5198.93078 .093.36887-.1417.74726-.1417,1.11703 0,.31967-.4754.70179-.6143.8843-.1741.22863-.3781.61708-.3781.93077 0,.25518-.6152.44261-.756.51203-.3754.18486-.5756.49197-.8033.79118-.1771.23247-.1891.78541-.1891,1.07052 0,.36422-.094.73-.094,1.11697v1.11708c0,.37782.093.56413 0,.93076-.089.35255-.5212.5825-.7559.69816-.2212.109-.4322-.0119-.5671-.18619s-.2362-.42346-.2362-.55844v-1.21018c0-.31442-.094-.68607-.094-1.02384v-1.16364c0-.45546-.1452-.66465-.2364-1.02385-.058-.22661-.5805-.57179-.756-.7447-.2576-.25362-.607-.46181-.8979-.60509-.2392-.11772-.5845-.43611-.7561-.60501-.3604-.35515-.5819-.49475-.7559-.83779-.1801-.35466-.6504-.41886-1.0397-.41886-.4125,4e-005-.8162-.091-1.134-.32572-.2288-.16898-.2836-.73691-.2836-.97749 0-.46695-.057-.83927-.1418-1.25658-.07-.3426-.028-.81752.047-1.11696 .1064-.41974.569-.7484.7089-1.02396 .1954-.38529.8165-.66463 1.134-.97737 .3053-.30071.4693-.7422.8505-1.024 .483-.35685.9848-.62438 1.5122-.88432 .2788-.13723.3155-.52819.4253-.74457 .1966-.38745.3183-.73239.567-.97742l.8506-.83784c.2413-.23765.9176-.18611 1.0396-.18611 .1666,0 .4708.88082.5197.97742 .1036.2037.182.31652.3308.37229s.378.0395.5671,0c.3782-.0789.8137-.27546 1.3232-.41883 .2837-.0799.6229-.60929.8977-.74477 .2675-.13164.2835-.74697.2835-1.07043 0-.42462-.047-.6481-.047-1.02388 0-.21107-.6259-.44777-.7561-.512-.1825-.0899-.1995-.2965-.1418-.5119s.2008-.43053.2836-.51197c.2341-.23073.6392-.39013.9449-.46546 .4066-.10002.779-.0811 1.087-.23273 .3323-.16364.4206-.36774.6615-.60502 .3744-.36877.4121-.59918.5198-1.0239 .079-.31218.037-.79773.094-1.02388 .095-.37622.4595-.72744.6143-.93094 .1138-.1494.1608-.28049.2836-.37233s.2806-.13963.5671-.13963c.2727,0 .4497.0119.567.0932s.1861.22684.2836.41881c.1399.27591.048.78829.048,1.11709 0,.39528-.3119.5398-.5199.74462-.1881.1853.6592.57995.7562.65162 .1504.11109.067.35014-.094.60502s-.396.50077-.4253.55853c-.1232.24265-.4359.48613-.6143.83778-.2374.46765-.2843.53539-.9451.69812-.4285.10539-.7785.42988-1.0397.55841-.1865.092-.194.22186-.1417.37238s.1331.31732.1891.37233c.3275.32266.469.31332.8978.41889 .5094.12549.6905-.024.9923.37235 .2051.26931.2898.3846.4252.6516 .1925.37921.4147.60962.5199,1.02386 .047.1838.7484.25226.9923.37236 .3174.15634.8122.19053 1.0869.32585 .3478.17129.5077.27621.8978.37231 .315.0776.4182.23092.8032.3258 .23.0567.3723.0739.4727,0s.1381-.21849.1889-.41885c.043-.16638-.1429-.37261-.3308-.51193s-.3736-.20737-.4253-.2328c-.3958-.19496-.55-.26245-.8033-.51192-.2054-.20249-.2974-.37985-.2835-.51203s.134-.22503.2835-.37225c.1454-.14323.3017-.098.4727,0s.3626.26415.4251.32576c.1639.16135.3564.11659.5199,0s.2626-.33655.2836-.4189c.075-.29595.1416-.49056.1416-.93085 0-.46042-.3121-.53846-.1889-1.02396 .052-.20469-.1245-.35753-.3309-.46538s-.4487-.19185-.5669-.27929c-.3805-.28087-.564-.27284-.7562-.65155-.1384-.27276-.045-.4172.094-.46528s.3183-.0265.4253,0c.4297.1057.5078.3138.8032.60497 .3363.33125.3342.51356.7088.69812 .3613.17793.3602.46542.756.46542 .2517,0 .2836-.75064.2836-.97745 0-.39782-.189-.6923-.189-1.117 0-.16851.3991-.46006.4725-.60502 .1118-.22021.1007-.41276 0-.55853s-.2756-.27141-.378-.3723c-.2694-.26537-.5004-.38082-.6615-.69816-.1845-.36375-.5763-.52107-.8979-.8377-.049-.0958-.2095.004-.378.0465s-.3347.0312-.4253-.32575c-.086-.34276.1106-.80771.189-1.11709 .089-.35187.2922-.45226.3781-.79122 .067-.26575.2155-.34256.2835-.41878s.082-.16307-.048-.41896c-.09-.17894-.5745-.37597-.756-.46536-.3007-.1482-.4895-.38907-.6616-.55859-.1656-.16317-.094-.86782-.094-1.11698 0-.18631-.091-.33574-.2364-.41889s-.319-.11054-.4724-.18609c-.272-.13401-.5836-.13963-.9925-.13963-.3265,0-.8304-.0649-1.134-.1396-.3491-.0861-.8056.082-1.0396.1396-.3267.0805-.7954,0-1.134,0-.3875,0-.526-.14114-.8978-.23277-.2399-.059-.7925.41337-.9926.51192s-.2895.026-.3306-.13952-.048-.39779-.048-.55857v-1.11703c0-.15713-.1165-.24102-.2834-.27925s-.3749-.0465-.5199-.0465zm40.9692,4.5146c-.2013.041-.3711.20499-.4254.41883-.063.24847-.093.60247-.1417.79126-.015.0591-.9346-.11587-1.4649.0932-.2243.0884-.5459.22749-.756.27921-.2885.0709-.2022.27455-.1418.51198 .075.29678.9228.3552 1.1814.4189 .1809.0444.4242.37125.6142.55853s.5103.31881.7088.46535c.1544.11407.3174.45218.5198.65162 .2101.20706.5723.30373.8505.3723 .337.0831.5479-.0931.898-.0931 .2854,0 .5346.13957.8505.13957 .3272,0 .555-.13957.8505-.13957 .2407,0 .3385-.38244.4726-.55846 .1757-.23081.189-.58781.189-.88439 0-.27437-.091-.5456-.1418-.74469-.06-.23673-.5349-.3554-.6616-.60506-.1589-.31321-.1684-.39208-.5196-.65153-.2396-.17696-.6738-.37837-.8507-.46541-.2808-.13836-.4858-.25423-.7088-.41893-.1476-.10908-.3717-.13963-.6143-.13963h-.5198c-.07-.0173-.122-.0136-.1889,0zm16.6332,6.00397c-.3048.0393-.378.49125-.3779.88427 0,.39627-.5392.75901-.7089.88427-.2334.17238.9464.62869 1.0397.65168 .3988.0982.7301.4323 1.1341.51193 .2911.0575.7736.36997 1.134.51191 .2067.0815.2711.37999.3307.69819s.094.64181.094.8378c0,.4048 0,.82858.094,1.2101 .1007.39783.2147.5499.094,1.0238-.058.22653-.085.39943-.094.55856s.016.29515.1891.4654c.3104.30593 1.1846.14287 1.5593.51199s.6607.61311 1.0869,1.11701c.2186.25841-.02.72471.2834,1.02391 .2085.20539.8997.24395 1.1342.18622 .1651-.0408.2442-.96173.2835-1.11709 .05-.19477.3401-.29667.6616-.32577s.6908.0144.8505.0931c.2842.13993.3143.57693.2363.88428-.059.23156-.01.38392.094.51204s.2566.24275.4252.32582c.311.15308.727.10012.9451.0464 .3467-.0855.5023-.57031.6615-.88432 .1082-.21283.1543-.3732.1891-.51191s.059-.26172.2836-.37238c.3177-.15655.4657-.39898.3779-.74475-.095-.37658-.2027-.72497-.3779-1.07038-.2332-.45921-.7254-.62896-1.1342-.9308-.3121-.23086-.2802-.31326-.3781-.69816-.065-.25885-.5157-.46344-.8033-.60509-.2645-.1303-.438-.58798-.7559-.74468-.462-.22751-.9051-.29608-1.3231-.60494-.4252-.31408-.7985-.4269-1.2286-.74478-.4158-.30708-.7805-.67544-1.1341-1.02388-.349-.34359-.6903-.49368-.9451-.74464-.3129-.30826-.803-.48857-1.1341-.65163-.4281-.21071-.6683-.45874-1.0396-.60506-.4485-.17668-.7677-.22401-1.1814-.32582-.1414-.0347-.3003-.15881-.4251-.23267-.054-.0132-.098-.005-.142,0zm-41.2998,22.10745c-.1264.12456-.3599.0143-.5197.0931-.1715.0847-.245.40632-.2836.55858-.063.24986-.042.48272-.094.7447-.061.29765.03.77029.094,1.02384 .051.20076-.2762.4509-.3782.6516-.1047.2067-.2393.37636-.3779.55852-.1628.21386-.138.67933-.1891.93081-.061.29965-.076.53113-.1417.79128-.05.19718-.048.39206-.048.60506 0,.16107.3884.261.5199.3258 .1409.0693.2154-.0957.2835-.27926s.1248-.40219.2362-.51199c.2281-.2246.3463-.32579.6616-.32579 .2063,0 .4273-.0466.6615-.0466 .1311,0 .4.0806.5198.13959 .2275.11202.3663.22107.5198.37234 .1828.18008.129.39247.4253.46548 .2411.0592.3937.18617.6615.18617h.8034 .6143c.288,0 .2835-.18046.2835-.46553 0-.25037.036-.42438.094-.65152s-.051-.38647-.094-.55861c-.051-.2021-.3882-.42876-.5199-.5584-.2936-.28929-.616-.23949-.7087-.60518-.044-.16997.047-.42277.047-.60494s.048-.35928.048-.5585c0-.23823-.1518-.34579-.2362-.51194-.1042-.20527-.2985-.18613-.5199-.18617-.2079,0-.503-.0525-.7087-.0932-.2327-.0459-.3618-.0305-.5198-.18621-.1731-.17041-.3307-.14403-.3307-.41883 0-.14377-.1007-.30113-.1419-.46538-.05-.19526-.089-.2642-.2362-.37236-.087-.0649-.3265-.0466-.4253-.0466zm70.2665,1.76864c-.2414.0343-.2496.89729-.5198,1.16358-.2498.246-.5047.31083-.7088.5118-.3508.34563-.7734.6687-1.1342,1.02407-.3091.30454-.3598.90917-.5197,1.30321-.1145.28188 0,.89914 0,1.21011 0,.39533-.4607,1.01815-.6143,1.39614-.096.2373-.1774.34569-.3308.41893s-.3538.0754-.6143.13963c-.4232.10418-.7653.1907-1.1341.3724-.2693.13253-.4765.70566-.6143.97737-.1427.28126-.064.81048-.1417,1.11695-.1262.49692-.096,1.05863 0,1.53583 .079.3903.1414.74306.2363,1.11712 .1026.40433-.076.76445-.1419,1.02381-.099.39127-.2358.74322-.3307,1.11707-.096.3799.378.75941.378,1.16361 0,.42593.1109.81968 0,1.25663-.072.28417.065.69971.2363,1.11697s.4045.84847.4725,1.11697c.047.18497-.9791,1.41035-1.0868,1.67556-.1369.3369-.3359.78409-.567,1.16358s.047.81627.047,1.21009c0,.41041.094.86442.094,1.30319 0,.53909.094,1.09235.094,1.62901 0,.48264-.4974,1.16811-.6144,1.62888-.111.43758.01.99298.1891,1.34987 .135.26608-.1102.9453-.1891,1.2565-.133.52411.1417,1.11123.1417,1.62897v.23275c0,.71855.5961,1.67827.7561,2.46668 .087.43136-.1581.66965-.2363.97742-.1197.47183.1397.8294.2363,1.21006 .1566.61689.03,1.14944-.2363,1.67552-.1346.26546-.1374.4671-.094.69816s.1425.46702.2363.69815c.1813.44644.019,1.05221.1418,1.53589 .1045.41168-.048,1.16059-.048,1.62895 0,.33768-.1383.49718-.2363.69813s-.1511.42884-.048.83778c.024.0984.022.22733.048.32572 .087.34378.8145,1.06714 1.1341,1.30321 .223.16474.2883.34156.3307.51203s.048.34066.048.60506c0,.55842.062.89834.4251,1.25661 .2225.21908.6518.18867.898.512 .2021.26534.189,1.01018.189,1.34966 0,.41436.011.65236.1417.88429s.3718.4592.6617.74468c.1248.123.2531.20277.3779.32576 .2968.29233.35.81017.6616,1.117 .289.2848.7389.64317 1.1342.83781 .2383.11743.4868.036.7087-.0931s.4081-.30143.5671-.41892c.4657-.34397.8115-.6675 1.0395-1.11697 .3093-.6091.8544-1.27481.9923-1.95475 .053-.26153.1274-.43058.2836-.55852s.4006-.22055.6143-.32579c.3815-.18789.742-.59749.945-.93086 .2237-.36717.6258-.6139 1.0396-.51191 .3195.0788.5423.31089.7087.55842s.3152.49609.3782.74479c.1007.3982-.3079.88582-.4726,1.21-.2758.54348-.1466.95269-.5198,1.44281-.3332.43764-.5,1.07797-.7088,1.48935-.2819.55554-.2095,1.40402-.3307,2.00136-.054.26556-.2467.79346-.378,1.11699-.1532.37707-.3309,1.09397-.3309,1.48932 0,.52352-.5553.95398-.8032,1.44277-.2941.57933-.5141,1.1726-.7561,1.76865-.1832.45121-.4069.93143-.6616,1.3497-.2262.37163-.4174.75997-.5197,1.16358-.094.37186-.3439.67742-.5198,1.02391-.1666.32804-.1965.66615-.378,1.02395-.3373.66424-1.0899,1.81789-1.654,2.37362-.4862.47909-1.117,1.12987-1.3703,1.62893-.1663.32758-.2697.57807-.4254.88439-.2267.44686-.5295.94996-.8032,1.48931-.1914.37711-.5225.56368-.709.93091-.1932.38076-.281.53793-.3306.74459 10.8047-12.46937 17.3894-28.64234 17.3894-46.30934 0-9.01609-1.7667-17.60703-4.8671-25.55162-.316.0245-.8751.13962-1.2288.13962-.2275.00011-.3965.17308-.5196.3723s-.1959.44621-.2363.60512c-.112.44128-.088.94229.047,1.39625s.3616.86793.6143,1.11697c.1916.18867.3074.37185.2835.51192s-.1669.23277-.4725.23277c-.331,4e-005-.5242-.052-.6615-.13959s-.2092-.20604-.3781-.37238c-.3202-.31551-.6117-.58039-1.0397-.79116l-1.0394-.51201c-.243-.11968-.4496-.79246-.5671-1.02387-.1847-.3639-.3307-.73059-.3307-1.16368-.0001-.29419-.3048-.73951-.4254-.97732-.146-.28788-.3488-.59394-.5197-.93078-.1911-.37642-.366-.63105-.7089-.88428-.044-.0323-.06-.0516-.094-.0466zm-89.5934,38.76961c-.053.0226-.1173.0689-.1891.13961-.2091.20592-.1602.16581-.5197-.0466 .078,0 .9866,1.07659 1.1814,1.39628 .091.15043.3533.197.6143.18612s.5121-.0637.6616-.0931c.3345-.0659.4221-.26243.378-.46539s-.2203-.43418-.378-.51203c-.4098-.20185-.6901-.35607-1.1342-.46534-.3674-.0906-.4569-.20771-.6143-.13962zm.8506,3.11824c-.2795.0497-.7001.22413-.8506.37238-.1186.1168-.02.33548.094.55849 .1151.22299.2791.40998.3308.51202 .1449.28529 1.0035.37229 1.3232.37229 .2687,0 .3905-.11954.4252-.27923s-.01-.34999-.048-.512c-.074-.2915-.4394-.5725-.6143-.74465-.1778-.17534-.02-.04-.4252-.2793-.056-.0136-.1431-.0167-.2363,0zm-3.8276,2.51338c-.5403-.001-1.0474.0152-1.5593.41889-.6215.48953-1.374,1.3789-1.7957,1.53582 .093.22973.1679.42863.3308.51189s.4096.0775.6616-.0466c.4128-.20333.6876-.29204 1.0395-.46535 .3649-.17972.6459-.32579 1.0396-.32579 .5054,0 .8426.1725 1.2759.27922 .3275.0807.5772.1911.945.37231 .3826.18839.7332.34975 1.0396.65168 .2978.29316.8473.43961 1.1341.65147 .2947.2178.8384.45337 1.1342.74472 .1916.1889.5971.59656.8977.74473 .3175.15627.5884.12435.8506.0466s.5334-.18615.8978-.18623c.2659,0 .7165.026 1.1341.0465s.7834.0198.9451-.13963c.1006-.0989.2387-.23334.2835-.37228s0-.25688-.2835-.32571c-.3995-.0985-.7514-.21999-1.1813-.32592-.5949-.14645-.4066-.40955-.8979-.65154-.5564-.27411-.7213-.3521-1.3703-.51203-.4252-.10472-1.0698-.16917-1.4176-.51188-.3131-.30837-.4809-.86511-.8034-1.024-.5639-.27773-.9951-.66139-1.6538-.79121s-1.4612-.3258-2.1265-.32568h-.5198zm12.6169,4.23524c-.1073-.0102-.2239.0201-.331.0464-.4392.10822-1.5862.007-1.6538.13961-.075.12296-.171.24403-.2362.37234-.1519.29935-.1264.39633-.048.46545s.2282.0851.3781.23269c.056.0554.1895.23663.2363.4189s0,.37148-.1891.46541c-.043.0209-.9622.47807-.9451.51198 .1247.24538.2526.32571.8034.32571 .4583,0 .7737.0593 1.1814.13971 .2743.0541.8742.20367 1.1341.13966 .6144-.15136 1.0736-.31289 1.4648-.69819 .33-.32518.3352-.1756.945-.32576 .2111-.052.4638-.0427.6143-.0931s.2363-.15567.2363-.41892c0-.27944-.327-.65153-.7088-.65153-.3344,0-.7792.0119-1.0868-.1396-.4275-.21074-.4306-.57154-.9451-.69817-.2415-.0595-.5286-.20382-.8505-.23272zm5.3869,1.62893c-.1489-.0366-.2281.1758-.2363.41902s.07.50741.094.60496c.055.21602.8238.32573 1.0868.32573s.4735.008.5671-.0466 .066-.14947-.048-.37232c-.1595-.31432-.2529-.68304-.5669-.83779-.2594-.12764-.6152-.093-.8979-.0931zm4.2528.3258c-.077.0565-.1212.26145-.094.46546s.1344.38213.4725.46544c.3331.0821.8244.053 1.0396,0 .1747-.043.107-.18334-.048-.37242-.1541-.18893-.3585-.38602-.5197-.46526-.1935-.0954-.5629-.0932-.8033-.0932-.019-.0102-.025-.0161-.048,0zm-15.452.46546c-.063.004-.1739.0465-.2363.0465-.063-.0508-.7295-.0131-1.0396.13974-.2167.10659-.3581.21022-.4252.32569s-.07.27969.048.512c.1231.24239.1387.40243.1891.51195s.1462.16402.4253.23274c.4533.11158.8614.25064 1.2758.0465 .3203-.1578.4725-.61352.4726-.97739 0-.4491-.1276-.69466-.5199-.79129-.061-.0148-.126-.0503-.1889-.0465zm17.4367,1.6755c-.2417.0506-.1997.40832.048.65161 .2947.29031.6034.19153.8032.0931 .2177-.10724.1349-.28496-.047-.4189s-.4586-.22997-.4725-.2327c-.1425-.0701-.2503-.10995-.3308-.0932zm1.4647,2.04786c-.1268.0968-.5196.41416-.5196.6051 0,.18176.1922.18034.4252.13962s.482-.12096.5199-.13962c.2187-.10789-.1762-.44775-.3781-.6051-.01.003-.035-.005-.048,0zm.2837,1.67558c.01.0128.039.079.048.0931 .035-.0291.053-.0907.048-.0931s-.053-.0205-.094,0zm.048.0931c-.1668.13786-.6909.48827-.7559.74467-.055.21825.9227-.0356.945-.0464 .2194-.10811-.044-.47218-.1891-.69819zm1.9848.51192c-.021.22064-.2572.82246-.047.97746 .3094.22858.4506.16357.5198.0466s.062-.29683 0-.41882c-.1184-.23316-.2554-.38672-.4725-.60513z" fill="url(#l)"/>
   <path d="m-150.55 224.39c-19.152-2.6628-37.735 2.3243-52.186 12.831-5.2143 35.893 18.85 70.959 55.888 79.871 21.656 5.2105 43.187 0.38023 59.458-11.441 5.2228-35.898-18.845-70.958-55.888-79.871-2.4277-0.5841-4.8562-1.0534-7.2731-1.3894z" fill="url(#k)"/>
  </g>
  <path d="m-308.88-1304.1 131.08-65.387 10.485 6.2358 4.8636 6.5743 3.2699 7.666 0.48231 8.855-1.7984 4.4738-0.79928 1.9883-124.48 71.218-7.0104-1.952-9.6809-11.109-4.8537-12.344-3.1164-10.203z" fill="#fff"/>
  <path d="m-287.04-1261.9c-3.2132 1.6842-10.733-6.3278-16.796-17.895s-8.3735-22.31-5.1603-23.994 10.733 6.3277 16.796 17.895 8.3735 22.31 5.1603 23.994z" stroke="#fff" stroke-linecap="round" stroke-linejoin="round" stroke-width=".17481"/>
  <path d="m-308.03-1304 129.17-65.095c16.726-2.7574 27.467 26.736 17.919 34.708l-125.38 71.92c8.1255-7.1308-12.049-44.718-21.708-41.533z" fill="url(#a)" opacity=".55"/>
  <path d="m-286.29-1262.2c-3.8486 2.0172-11.884-5.7247-17.947-17.292s-7.8584-22.58-4.0099-24.597 11.884 5.7247 17.947 17.292 7.8584 22.58 4.0099 24.597z" fill="url(#b)"/>
  <g transform="matrix(.55639 -.23733 .23733 .55639 -163.06 -1580.2)">
   <path d="m-401.71 325.64 241.09-15.088c4.5445 1.1844 16.244 1.323 18.626 9.9436l-234.89 17.579c-0.95353-14.839-21.986-12.864-24.831-12.435z" fill="#008080"/>
   <path d="m-401.42 325.64 240.8-15.088c4.5445 1.1844 12.016-1.9239 19.421 10.045 0 0-93.489 7.0609-97.717 8.0786-3.1825 0.74576-4.2449 0.95002-6.9056 1.5131 1.7222-0.23485-12.092 1.356-12.092 1.356l-9.3489 0.4775c-4.4249 0.46936-6.6788-0.82528-11.575-0.48718l-104.64 8.3153c-4.9954-13.361-15.101-14.64-17.946-14.21z" fill="url(#e)"/>
  </g>
  <path d="m-241.35694-1337.8648c.31705-.2809 8.58206-4.2954 8.58206-4.2954s2.31602-.7689 5.75596,1.9813c4.75072,3.798 3.39817,2.846 3.39817,2.846s4.73307,4.8938 6.51844,8.7957c1.88831,3.7712 2.64448,5.3808 4.00022,10.7435 .6093,2.9413.69985,5.937.4698,8.0995-.40245,1.8028-.46494,4.1096-1.66281,5.6601-.32383.3929-.32183.5403-.32183.5403s13.05975.6196 12.81335.7247c-.12702.054-8.01396,1.9472-8.67175,2.5544-.76298.7043.29847,4.9298.29847,4.9298l-11.98758-3.9313c0,0 .33601-.302.58628-.6616 .7819-1.1235 1.95982-2.0456 2.58784-4.4106 .82161-3.0939.52004-7.3895-.23803-9.9456-.99669-3.3608-2.44094-7.2587-4.37797-10.9464-1.5821-3.012-6.01253-8.9751-8.45401-10.7731s-4.28659-2.6674-6.11989-2.7408c-.70845-.028-1.86378.1714-2.52777.5087-.25284.1284-.64896.3208-.64896.3208z" fill="#a00" stroke="#500" stroke-width=".12098"/>
  <path d="m-221.90686-1299.2869 7.28828-4.2157 12.24783.7733-7.76341,2.0759c0,0-.29499-.2088-.60721.5679s.0435,3.6624.17354,3.9673 .19478.6377.19478.6377z" fill="url(#c)"/>
  <path d="m-241.16-1338c0.31704-0.2809 8.582-4.2955 8.582-4.2955s2.316-0.7688 5.756 1.9814c4.7507 3.798 3.3982 2.846 3.3982 2.846s4.7331 4.8938 6.5184 8.7957c1.8883 3.7712 2.6445 5.3808 4.0002 10.744 0.6093 2.9412 0.69985 5.937 0.4698 8.0995-0.40245 1.8028-0.46494 4.1096-1.6628 5.6601-0.32383 0.3929-0.32183 0.5403-0.32183 0.5403s-2.1393 1.2143-2.6568 1.5541c-3.1344 1.8094-2.3889 1.29-3.9682 2.1985l-0.92242 0.525s0.33601-0.302 0.58628-0.6616c0.78191-1.1235 1.9598-2.0457 2.5878-4.4106 0.82163-3.0939 0.52004-7.3896-0.23802-9.9457-0.9967-3.3607-2.441-7.2586-4.378-10.946-1.5821-3.012-6.0125-8.975-8.454-10.773s-4.2866-2.6673-6.1199-2.7407c-0.70845-0.028-1.8638 0.1713-2.5278 0.5087-0.25283 0.1284-0.64895 0.3207-0.64895 0.3207z" fill="url(#d)"/>
  <path d="m-287.04-1261.9c-3.2132 1.6842-10.733-6.3278-16.796-17.895s-8.3735-22.31-5.1603-23.994 10.733 6.3277 16.796 17.895 8.3735 22.31 5.1603 23.994z" stroke="#fff" stroke-linecap="round" stroke-linejoin="round" stroke-width=".17481"/>
  <path d="m-308.03-1304 129.17-65.095c16.726-2.7574 27.467 26.736 17.919 34.708l-125.38 71.92c8.1255-7.1308-12.049-44.718-21.708-41.533z" fill="url(#a)" opacity=".55"/>
  <path d="m-286.29-1262.2c-3.8486 2.0172-11.884-5.7247-17.947-17.292s-7.8584-22.58-4.0099-24.597 11.884 5.7247 17.947 17.292 7.8584 22.58 4.0099 24.597z" fill="url(#b)"/>
  <g transform="matrix(.55639 -.23733 .23733 .55639 -163.06 -1580.2)">
   <path d="m-401.71 325.64 241.09-15.088c4.5445 1.1844 16.244 1.323 18.626 9.9436l-234.89 17.579c-0.95353-14.839-21.986-12.864-24.831-12.435z" fill="#008080"/>
   <path d="m-401.42 325.64 240.8-15.088c4.5445 1.1844 12.016-1.9239 19.421 10.045 0 0-93.489 7.0609-97.717 8.0786-3.1825 0.74576-4.2449 0.95002-6.9056 1.5131 1.7222-0.23485-12.092 1.356-12.092 1.356l-9.3489 0.4775c-4.4249 0.46936-6.6788-0.82528-11.575-0.48718l-104.64 8.3153c-4.9954-13.361-15.101-14.64-17.946-14.21z" fill="url(#e)"/>
  </g>
  <path d="m-241.35694-1337.8648c.31705-.2809 8.58206-4.2954 8.58206-4.2954s2.31602-.7689 5.75596,1.9813c4.75072,3.798 3.39817,2.846 3.39817,2.846s4.73307,4.8938 6.51844,8.7957c1.88831,3.7712 2.64448,5.3808 4.00022,10.7435 .6093,2.9413.69985,5.937.4698,8.0995-.40245,1.8028-.46494,4.1096-1.66281,5.6601-.32383.3929-.32183.5403-.32183.5403s13.05975.6196 12.81335.7247c-.12702.054-8.01396,1.9472-8.67175,2.5544-.76298.7043.29847,4.9298.29847,4.9298l-11.98758-3.9313c0,0 .33601-.302.58628-.6616 .7819-1.1235 1.95982-2.0456 2.58784-4.4106 .82161-3.0939.52004-7.3895-.23803-9.9456-.99669-3.3608-2.44094-7.2587-4.37797-10.9464-1.5821-3.012-6.01253-8.9751-8.45401-10.7731s-4.28659-2.6674-6.11989-2.7408c-.70845-.028-1.86378.1714-2.52777.5087-.25284.1284-.64896.3208-.64896.3208z" fill="#a00" stroke="#500" stroke-width=".12098"/>
  <path d="m-221.90686-1299.2869 7.28828-4.2157 12.24783.7733-7.76341,2.0759c0,0-.29499-.2088-.60721.5679s.0435,3.6624.17354,3.9673 .19478.6377.19478.6377z" fill="url(#c)"/>
  <path d="m-241.16-1338c0.31704-0.2809 8.582-4.2955 8.582-4.2955s2.316-0.7688 5.756 1.9814c4.7507 3.798 3.3982 2.846 3.3982 2.846s4.7331 4.8938 6.5184 8.7957c1.8883 3.7712 2.6445 5.3808 4.0002 10.744 0.6093 2.9412 0.69985 5.937 0.4698 8.0995-0.40245 1.8028-0.46494 4.1096-1.6628 5.6601-0.32383 0.3929-0.32183 0.5403-0.32183 0.5403s-2.1393 1.2143-2.6568 1.5541c-3.1344 1.8094-2.3889 1.29-3.9682 2.1985l-0.92242 0.525s0.33601-0.302 0.58628-0.6616c0.78191-1.1235 1.9598-2.0457 2.5878-4.4106 0.82163-3.0939 0.52004-7.3896-0.23802-9.9457-0.9967-3.3607-2.441-7.2586-4.378-10.946-1.5821-3.012-6.0125-8.975-8.454-10.773s-4.2866-2.6673-6.1199-2.7407c-0.70845-0.028-1.8638 0.1713-2.5278 0.5087-0.25283 0.1284-0.64895 0.3207-0.64895 0.3207z" fill="url(#d)"/>
  <path d="m-374.76-1461 87.538-28.036 88.264 27.527-87.537 28.036z"/>
  <path d="m-367.03-1461.6 80.264 25.056 79.554-25.476-80.264-25.056-79.555 25.476z" fill="url(#g)"/>
  <path d="m-358.34-1462.2 71.125 22.219 70.5-22.562-71.125-22.219-70.5 22.562z" fill="url(#h)"/>
  <path d="m-293.61-1461.9c-0.17574 1.1071-1.7656 1.8726 1.1051 2.2276 14.482 1.7911 57.958 7.225 60.271 7.4735 2.829 1.489 5.5092 3.7225 5.9559 7.7427 0.62049 5.5844-2.3824 29.928-2.3824 29.928l1.7868 3.1268h2.9779l0.5956-35.735c-0.49188-3.0299-3.0856-4.7109-5.9559-6.5515-20.436-3.1828-41.704-5.9496-63.728-8.3383z" fill="#786721"/>
  <path d="m-226.46-1417c-4.4905 21.997-4.8988 22.833-4.8988 22.833" fill="#c8ab37" stroke="#c8ab37" stroke-width="1.0767"/>
  <path d="m-223.09-1416.6c-0.90918 23.27-1.0163 24.154-1.0163 24.154" fill="#c8ab37" stroke="#c8ab37" stroke-width=".61206"/>
  <path d="m-224.85-1416.9c-1.7176 19.113-1.9201 19.838-1.9201 19.838" fill="#c8ab37" stroke="#c8ab37" stroke-width=".76242"/>
  <path d="m-227.53-1417.5c-3.9466 15.434-4.4117 16.02-4.4117 16.02" fill="#c8ab37" stroke="#c8ab37" stroke-width="1.0385"/>
  <path d="m-225.63-1416.4c-2.898 19.211-3.2396 19.94-3.2396 19.94" fill="#c8ab37" stroke="#c8ab37" stroke-width=".99287"/>
  <path d="m-223.87-1416.6c-0.9954 18.655-1.1127 19.363-1.1127 19.363" fill="#c8ab37" stroke="#c8ab37" stroke-width=".5734"/>
  <path d="m-226.19-1416.8c-2.6825 22.29-3.0213 23.156-3.0213 23.156" fill="#a0892c" stroke="#a0892c" stroke-width="1.0767"/>
  <path d="m-222.79-1416.6c0.99072 23.267 0.95597 24.157 0.95597 24.157" fill="#a0892c" stroke="#a0892c" stroke-width=".61206"/>
  <path d="m-224.57-1416.8c-0.15397 19.189-0.29655 19.929-0.29655 19.929" fill="#a0892c" stroke="#a0892c" stroke-width=".76242"/>
  <path d="m-227.29-1417.1c-2.6754 15.704-3.0912 16.326-3.0912 16.326" fill="#a0892c" stroke="#a0892c" stroke-width="1.0385"/>
  <path d="m-225.31-1416.2c-1.3224 19.383-1.6034 20.138-1.6034 20.138" fill="#a0892c" stroke="#a0892c" stroke-width=".99287"/>
  <path d="m-223.57-1416.5c0.52857 18.674 0.4694 19.39 0.4694 19.39" fill="#a0892c" stroke="#a0892c" stroke-width=".5734"/>
  <path d="m-225.59-1416.8c-7.2651 21.243-7.7768 22.019-7.7768 22.019" fill="#decd87" stroke="#decd87" stroke-width="1.0767"/>
  <path d="m-222.3-1415.9c-3.8759 22.963-4.0951 23.826-4.0951 23.826" fill="#decd87" stroke="#decd87" stroke-width=".61206"/>
  <path d="m-224.01-1416.5c-4.1463 18.736-4.4398 19.43-4.4398 19.43" fill="#decd87" stroke="#decd87" stroke-width=".76242"/>
  <path d="m-226.6-1417.4c-5.8868 14.803-6.423 15.324-6.423 15.324" fill="#decd87" stroke="#decd87" stroke-width="1.0385"/>
  <path d="m-224.85-1416.1c-5.3296 18.683-5.7615 19.363-5.7615 19.363" fill="#decd87" stroke="#decd87" stroke-width=".99287"/>
  <path d="m-223.08-1416c-3.3715 18.375-3.5784 19.062-3.5784 19.062" fill="#decd87" stroke="#decd87" stroke-width=".5734"/>
  <path d="m-226.23-1416.3c-2.0671 17.723-2.3803 18.434-2.3803 18.434" fill="#e9ddaf" stroke="#e9ddaf" stroke-width=".95122"/>
  <path d="m-222.86-1416.5c1.6048 18.143 1.5944 18.843 1.5944 18.843" fill="#e9ddaf" stroke="#e9ddaf" stroke-width=".54073"/>
  <path d="m-224.63-1416.5c0.35986 15.054 0.23809 15.648 0.23809 15.648" fill="#e9ddaf" stroke="#e9ddaf" stroke-width=".67357"/>
  <path d="m-227.34-1416.4c-2.2361 12.56-2.6322 13.087-2.6322 13.087" fill="#e9ddaf" stroke="#e9ddaf" stroke-width=".9175"/>
  <path d="m-225.34-1415.9c-0.79481 15.316-1.0535 15.935-1.0535 15.935" fill="#e9ddaf" stroke="#e9ddaf" stroke-width=".87716"/>
  <path d="m-223.63-1416.3c1.0236 14.586 0.98398 15.153 0.98398 15.153" fill="#e9ddaf" stroke="#e9ddaf" stroke-width=".50658"/>
  <path d="m-225.77-1415.3c-2.9105 21.997-3.2588 22.833-3.2588 22.833" fill="#c8ab37" stroke="#c8ab37" stroke-width="1.0767"/>
  <path d="m-222.36-1414.9c0.76226 23.27 0.71858 24.154 0.71858 24.154" fill="#c8ab37" stroke="#c8ab37" stroke-width=".61206"/>
  <path d="m-224.15-1415.2c-0.34484 19.113-0.49513 19.839-0.49513 19.839" fill="#c8ab37" stroke="#c8ab37" stroke-width=".76242"/>
  <path d="m-226.87-1415.7c-2.8381 15.434-3.2611 16.02-3.2611 16.02" fill="#c8ab37" stroke="#c8ab37" stroke-width="1.0385"/>
  <path d="m-224.89-1414.6c-1.5182 19.211-1.8073 19.94-1.8073 19.94" fill="#c8ab37" stroke="#c8ab37" stroke-width=".99287"/>
  <path d="m-223.14-1414.9c0.34454 18.655 0.27812 19.363 0.27812 19.363" fill="#c8ab37" stroke="#c8ab37" stroke-width=".5734"/>
  <path d="m-225.48-1415.1c-1.0814 22.29-1.358 23.156-1.358 23.156" fill="#a0892c" stroke="#a0892c" stroke-width="1.0767"/>
  <path d="m-222.07-1414.9c2.6619 23.267 2.6911 24.156 2.6911 24.156" fill="#a0892c" stroke="#a0892c" stroke-width=".61206"/>
  <path d="m-223.86-1415.1c1.2243 19.189 1.1349 19.929 1.1349 19.929" fill="#a0892c" stroke="#a0892c" stroke-width=".76242"/>
  <path d="m-226.6-1415.4c-1.5475 15.704-1.9186 16.326-1.9186 16.326" fill="#a0892c" stroke="#a0892c" stroke-width="1.0385"/>
  <path d="m-224.55-1414.5c0.0698 19.383-0.15692 20.138-0.15692 20.138" fill="#a0892c" stroke="#a0892c" stroke-width=".99287"/>
  <path d="m-222.84-1414.8c1.8699 18.674 1.8621 19.39 1.8621 19.39" fill="#a0892c" stroke="#a0892c" stroke-width=".5734"/>
  <path d="m-224.88-1415.1c-5.7393 21.243-6.1952 22.019-6.1952 22.019" fill="#decd87" stroke="#decd87" stroke-width="1.0767"/>
  <path d="m-221.53-1414.2c-2.2265 22.963-2.3837 23.826-2.3837 23.826" fill="#decd87" stroke="#decd87" stroke-width=".61206"/>
  <path d="m-223.28-1414.8c-2.8005 18.736-3.0442 19.43-3.0442 19.43" fill="#decd87" stroke="#decd87" stroke-width=".76242"/>
  <path d="m-225.93-1415.7c-4.8236 14.803-5.3223 15.324-5.3223 15.324" fill="#decd87" stroke="#decd87" stroke-width="1.0385"/>
  <path d="m-224.09-1414.3c-3.9876 18.683-4.3708 19.363-4.3708 19.363" fill="#decd87" stroke="#decd87" stroke-width=".99287"/>
  <path d="m-222.31-1414.3c-2.0517 18.375-2.2092 19.062-2.2092 19.062" fill="#decd87" stroke="#decd87" stroke-width=".5734"/>
  <path d="m-225.32-1415.2c-0.79414 17.723-1.0563 18.434-1.0563 18.434" fill="#e9ddaf" stroke="#e9ddaf" stroke-width=".95122"/>
  <path d="m-222.12-1414.8c2.908 18.143 2.9478 18.843 2.9478 18.843" fill="#e9ddaf" stroke="#e9ddaf" stroke-width=".54073"/>
  <path d="m-223.9-1414.7c1.4412 15.054 1.362 15.648 1.362 15.648" fill="#e9ddaf" stroke="#e9ddaf" stroke-width=".67357"/>
  <path d="m-226.49-1415.3c-1.334 12.56-1.6922 13.087-1.6922 13.087" fill="#e9ddaf" stroke="#e9ddaf" stroke-width=".9175"/>
  <path d="m-224.18-1414.9c0.30532 15.316 0.091 15.935 0.091 15.935" fill="#e9ddaf" stroke="#e9ddaf" stroke-width=".87716"/>
  <path d="m-222.88-1414.6c2.0713 14.586 2.0724 15.153 2.0724 15.153" fill="#e9ddaf" stroke="#e9ddaf" stroke-width=".50658"/>
  <path d="m-293.38755-1461.3093c3.04097.2214-.1647.2724 3.42514.717 15.54759,1.9258 56.80625,7.0815 59.05852,7.3234 3.29875,2.7416 4.25665,3.4093 5.32962,6.6467 1.42311,4.2939-.87915,20.9167-1.42142,27.3037-.0235.2765-.0434.3108-.0594.5438-.0843,1.2283-1.19564.9845-1.19564.9845-1.08088,1.4254-.8703,3.6946-.46365,3.4978 1.99758-.9664 3.14711-.6664 3.66903-.5588 1.30632.047 2.0591.3861 2.64581,2.3802 .83032-.9964.65569-3.1395.65569-3.1395l-.86982-2.2249 .64366-30.371c-.49188-3.0298-3.08561-4.7108-5.9559-6.5514-20.43597-3.1828-41.70399-5.9496-63.72811-8.3383z" fill="#decd87"/>
  <path d="m-261.05-1442.2 26.571 8.8569 1.9928 23.028-3.0999 5.9784 1.1071 2.4356-1.9928 5.757-1.9928 3.3213 0.22141-4.8713-0.66426 3.5427-0.44284-3.3213-2.657 3.7642 0.66426-4.6498-1.55 0.8856 1.9928-5.3141 3.7642-5.3141v-5.0926l2.2142-7.3069-1.1071-9.2997-7.5283-4.4284-19.042-5.5356-1.7714-2.4356z" fill="#241f1c" filter="url(#f)"/>
  <path d="m-226.46-1417c-4.4905 21.997-4.8988 22.833-4.8988 22.833" fill="#c8ab37" stroke="#c8ab37" stroke-width="1.0767"/>
  <path d="m-223.09-1416.6c-0.90918 23.27-1.0163 24.154-1.0163 24.154" fill="#c8ab37" stroke="#c8ab37" stroke-width=".61206"/>
  <path d="m-224.85-1416.9c-1.7176 19.113-1.9201 19.838-1.9201 19.838" fill="#c8ab37" stroke="#c8ab37" stroke-width=".76242"/>
  <path d="m-227.53-1417.5c-3.9466 15.434-4.4117 16.02-4.4117 16.02" fill="#c8ab37" stroke="#c8ab37" stroke-width="1.0385"/>
  <path d="m-225.63-1416.4c-2.898 19.211-3.2396 19.94-3.2396 19.94" fill="#c8ab37" stroke="#c8ab37" stroke-width=".99287"/>
  <path d="m-223.87-1416.6c-0.9954 18.655-1.1127 19.363-1.1127 19.363" fill="#c8ab37" stroke="#c8ab37" stroke-width=".5734"/>
  <path d="m-226.19-1416.8c-2.6825 22.29-3.0213 23.156-3.0213 23.156" fill="#a0892c" stroke="#a0892c" stroke-width="1.0767"/>
  <path d="m-222.79-1416.6c0.99072 23.267 0.95597 24.157 0.95597 24.157" fill="#a0892c" stroke="#a0892c" stroke-width=".61206"/>
  <path d="m-224.57-1416.8c-0.15397 19.189-0.29655 19.929-0.29655 19.929" fill="#a0892c" stroke="#a0892c" stroke-width=".76242"/>
  <path d="m-227.29-1417.1c-2.6754 15.704-3.0912 16.326-3.0912 16.326" fill="#a0892c" stroke="#a0892c" stroke-width="1.0385"/>
  <path d="m-225.31-1416.2c-1.3224 19.383-1.6034 20.138-1.6034 20.138" fill="#a0892c" stroke="#a0892c" stroke-width=".99287"/>
  <path d="m-223.57-1416.5c0.52857 18.674 0.4694 19.39 0.4694 19.39" fill="#a0892c" stroke="#a0892c" stroke-width=".5734"/>
  <path d="m-225.59-1416.8c-7.2651 21.243-7.7768 22.019-7.7768 22.019" fill="#decd87" stroke="#decd87" stroke-width="1.0767"/>
  <path d="m-222.3-1415.9c-3.8759 22.963-4.0951 23.826-4.0951 23.826" fill="#decd87" stroke="#decd87" stroke-width=".61206"/>
  <path d="m-224.01-1416.5c-4.1463 18.736-4.4398 19.43-4.4398 19.43" fill="#decd87" stroke="#decd87" stroke-width=".76242"/>
  <path d="m-226.6-1417.4c-5.8868 14.803-6.423 15.324-6.423 15.324" fill="#decd87" stroke="#decd87" stroke-width="1.0385"/>
  <path d="m-224.85-1416.1c-5.3296 18.683-5.7615 19.363-5.7615 19.363" fill="#decd87" stroke="#decd87" stroke-width=".99287"/>
  <path d="m-223.08-1416c-3.3715 18.375-3.5784 19.062-3.5784 19.062" fill="#decd87" stroke="#decd87" stroke-width=".5734"/>
  <path d="m-226.23-1416.3c-2.0671 17.723-2.3803 18.434-2.3803 18.434" fill="#e9ddaf" stroke="#e9ddaf" stroke-width=".95122"/>
  <path d="m-222.86-1416.5c1.6048 18.143 1.5944 18.843 1.5944 18.843" fill="#e9ddaf" stroke="#e9ddaf" stroke-width=".54073"/>
  <path d="m-224.63-1416.5c0.35986 15.054 0.23809 15.648 0.23809 15.648" fill="#e9ddaf" stroke="#e9ddaf" stroke-width=".67357"/>
  <path d="m-227.34-1416.4c-2.2361 12.56-2.6322 13.087-2.6322 13.087" fill="#e9ddaf" stroke="#e9ddaf" stroke-width=".9175"/>
  <path d="m-225.34-1415.9c-0.79481 15.316-1.0535 15.935-1.0535 15.935" fill="#e9ddaf" stroke="#e9ddaf" stroke-width=".87716"/>
  <path d="m-223.63-1416.3c1.0236 14.586 0.98398 15.153 0.98398 15.153" fill="#e9ddaf" stroke="#e9ddaf" stroke-width=".50658"/>
  <path d="m-225.77-1415.3c-2.9105 21.997-3.2588 22.833-3.2588 22.833" fill="#c8ab37" stroke="#c8ab37" stroke-width="1.0767"/>
  <path d="m-222.36-1414.9c0.76226 23.27 0.71858 24.154 0.71858 24.154" fill="#c8ab37" stroke="#c8ab37" stroke-width=".61206"/>
  <path d="m-224.15-1415.2c-0.34484 19.113-0.49513 19.839-0.49513 19.839" fill="#c8ab37" stroke="#c8ab37" stroke-width=".76242"/>
  <path d="m-226.87-1415.7c-2.8381 15.434-3.2611 16.02-3.2611 16.02" fill="#c8ab37" stroke="#c8ab37" stroke-width="1.0385"/>
  <path d="m-224.89-1414.6c-1.5182 19.211-1.8073 19.94-1.8073 19.94" fill="#c8ab37" stroke="#c8ab37" stroke-width=".99287"/>
  <path d="m-223.14-1414.9c0.34454 18.655 0.27812 19.363 0.27812 19.363" fill="#c8ab37" stroke="#c8ab37" stroke-width=".5734"/>
  <path d="m-225.48-1415.1c-1.0814 22.29-1.358 23.156-1.358 23.156" fill="#a0892c" stroke="#a0892c" stroke-width="1.0767"/>
  <path d="m-222.07-1414.9c2.6619 23.267 2.6911 24.156 2.6911 24.156" fill="#a0892c" stroke="#a0892c" stroke-width=".61206"/>
  <path d="m-223.86-1415.1c1.2243 19.189 1.1349 19.929 1.1349 19.929" fill="#a0892c" stroke="#a0892c" stroke-width=".76242"/>
  <path d="m-226.6-1415.4c-1.5475 15.704-1.9186 16.326-1.9186 16.326" fill="#a0892c" stroke="#a0892c" stroke-width="1.0385"/>
  <path d="m-224.55-1414.5c0.0698 19.383-0.15692 20.138-0.15692 20.138" fill="#a0892c" stroke="#a0892c" stroke-width=".99287"/>
  <path d="m-222.84-1414.8c1.8699 18.674 1.8621 19.39 1.8621 19.39" fill="#a0892c" stroke="#a0892c" stroke-width=".5734"/>
  <path d="m-224.88-1415.1c-5.7393 21.243-6.1952 22.019-6.1952 22.019" fill="#decd87" stroke="#decd87" stroke-width="1.0767"/>
  <path d="m-221.53-1414.2c-2.2265 22.963-2.3837 23.826-2.3837 23.826" fill="#decd87" stroke="#decd87" stroke-width=".61206"/>
  <path d="m-223.28-1414.8c-2.8005 18.736-3.0442 19.43-3.0442 19.43" fill="#decd87" stroke="#decd87" stroke-width=".76242"/>
  <path d="m-225.93-1415.7c-4.8236 14.803-5.3223 15.324-5.3223 15.324" fill="#decd87" stroke="#decd87" stroke-width="1.0385"/>
  <path d="m-224.09-1414.3c-3.9876 18.683-4.3708 19.363-4.3708 19.363" fill="#decd87" stroke="#decd87" stroke-width=".99287"/>
  <path d="m-222.31-1414.3c-2.0517 18.375-2.2092 19.062-2.2092 19.062" fill="#decd87" stroke="#decd87" stroke-width=".5734"/>
  <path d="m-225.32-1415.2c-0.79414 17.723-1.0563 18.434-1.0563 18.434" fill="#e9ddaf" stroke="#e9ddaf" stroke-width=".95122"/>
  <path d="m-222.12-1414.8c2.908 18.143 2.9478 18.843 2.9478 18.843" fill="#e9ddaf" stroke="#e9ddaf" stroke-width=".54073"/>
  <path d="m-223.9-1414.7c1.4412 15.054 1.362 15.648 1.362 15.648" fill="#e9ddaf" stroke="#e9ddaf" stroke-width=".67357"/>
  <path d="m-226.49-1415.3c-1.334 12.56-1.6922 13.087-1.6922 13.087" fill="#e9ddaf" stroke="#e9ddaf" stroke-width=".9175"/>
  <path d="m-224.18-1414.9c0.30532 15.316 0.091 15.935 0.091 15.935" fill="#e9ddaf" stroke="#e9ddaf" stroke-width=".87716"/>
  <path d="m-222.88-1414.6c2.0713 14.586 2.0724 15.153 2.0724 15.153" fill="#e9ddaf" stroke="#e9ddaf" stroke-width=".50658"/>
  <path d="m-261.05-1442.2 26.571 8.8568 1.9928 23.028-3.0999 5.9784 1.1071 2.4356-1.9928 5.757-1.9928 3.3213 0.22141-4.8713-0.66426 3.5427-0.44284-3.3213-2.657 3.7642 0.66426-4.6498-1.55 0.8856 1.9928-5.3141 3.7642-5.3141v-5.0927l2.2142-7.3068-1.1071-9.2997-7.5283-4.4284-19.042-5.5356-1.7714-2.4356z" fill="#241f1c" filter="url(#f)"/>
  <path d="m-308.88-1304.1 131.08-65.387 10.485 6.2358 4.8636 6.5743 3.2699 7.666 0.48231 8.855-1.7984 4.4738-0.79928 1.9883-124.48 71.218-7.0104-1.952-9.6809-11.109-4.8537-12.344-3.1164-10.203z" fill="#fff"/>
  <path d="m-287.04-1261.9c-3.2132 1.6842-10.733-6.3278-16.796-17.895s-8.3735-22.31-5.1603-23.994 10.733 6.3277 16.796 17.895 8.3735 22.31 5.1603 23.994z" stroke="#fff" stroke-linecap="round" stroke-linejoin="round" stroke-width=".17481"/>
  <path d="m-308.03-1304 129.17-65.095c16.726-2.7574 27.467 26.736 17.919 34.708l-125.38 71.92c8.1255-7.1308-12.049-44.718-21.708-41.533z" fill="url(#a)" opacity=".55"/>
  <path d="m-286.29-1262.2c-3.8486 2.0172-11.884-5.7247-17.947-17.292s-7.8584-22.58-4.0099-24.597 11.884 5.7247 17.947 17.292 7.8584 22.58 4.0099 24.597z" fill="url(#b)"/>
  <g transform="matrix(.55639 -.23733 .23733 .55639 -163.06 -1580.2)">
   <path d="m-401.71 325.64 241.09-15.088c4.5445 1.1844 16.244 1.323 18.626 9.9436l-234.89 17.579c-0.95353-14.839-21.986-12.864-24.831-12.435z" fill="#008080"/>
   <path d="m-401.42 325.64 240.8-15.088c4.5445 1.1844 12.016-1.9239 19.421 10.045 0 0-93.489 7.0609-97.717 8.0786-3.1825 0.74576-4.2449 0.95002-6.9056 1.5131 1.7222-0.23485-12.092 1.356-12.092 1.356l-9.3489 0.4775c-4.4249 0.46936-6.6788-0.82528-11.575-0.48718l-104.64 8.3153c-4.9954-13.361-15.101-14.64-17.946-14.21z" fill="url(#e)"/>
  </g>
  <path d="m-241.35694-1337.8648c.31705-.2809 8.58206-4.2954 8.58206-4.2954s2.31602-.7689 5.75596,1.9813c4.75072,3.798 3.39817,2.846 3.39817,2.846s4.73307,4.8938 6.51844,8.7957c1.88831,3.7712 2.64448,5.3808 4.00022,10.7435 .6093,2.9413.69985,5.937.4698,8.0995-.40245,1.8028-.46494,4.1096-1.66281,5.6601-.32383.3929-.32183.5403-.32183.5403s13.05975.6196 12.81335.7247c-.12702.054-8.01396,1.9472-8.67175,2.5544-.76298.7043.29847,4.9298.29847,4.9298l-11.98758-3.9313c0,0 .33601-.302.58628-.6616 .7819-1.1235 1.95982-2.0456 2.58784-4.4106 .82161-3.0939.52004-7.3895-.23803-9.9456-.99669-3.3608-2.44094-7.2587-4.37797-10.9464-1.5821-3.012-6.01253-8.9751-8.45401-10.7731s-4.28659-2.6674-6.11989-2.7408c-.70845-.028-1.86378.1714-2.52777.5087-.25284.1284-.64896.3208-.64896.3208z" fill="#a00" stroke="#500" stroke-width=".12098"/>
  <path d="m-221.90686-1299.2869 7.28828-4.2157 12.24783.7733-7.76341,2.0759c0,0-.29499-.2088-.60721.5679s.0435,3.6624.17354,3.9673 .19478.6377.19478.6377z" fill="url(#c)"/>
  <path d="m-241.16-1338c0.31704-0.2809 8.582-4.2955 8.582-4.2955s2.316-0.7688 5.756 1.9814c4.7507 3.798 3.3982 2.846 3.3982 2.846s4.7331 4.8938 6.5184 8.7957c1.8883 3.7712 2.6445 5.3808 4.0002 10.744 0.6093 2.9412 0.69985 5.937 0.4698 8.0995-0.40245 1.8028-0.46494 4.1096-1.6628 5.6601-0.32383 0.3929-0.32183 0.5403-0.32183 0.5403s-2.1393 1.2143-2.6568 1.5541c-3.1344 1.8094-2.3889 1.29-3.9682 2.1985l-0.92242 0.525s0.33601-0.302 0.58628-0.6616c0.78191-1.1235 1.9598-2.0457 2.5878-4.4106 0.82163-3.0939 0.52004-7.3896-0.23802-9.9457-0.9967-3.3607-2.441-7.2586-4.378-10.946-1.5821-3.012-6.0125-8.975-8.454-10.773s-4.2866-2.6673-6.1199-2.7407c-0.70845-0.028-1.8638 0.1713-2.5278 0.5087-0.25283 0.1284-0.64895 0.3207-0.64895 0.3207z" fill="url(#d)"/>
  <path d="m-287.04-1261.9c-3.2132 1.6842-10.733-6.3278-16.796-17.895s-8.3735-22.31-5.1603-23.994 10.733 6.3277 16.796 17.895 8.3735 22.31 5.1603 23.994z" stroke="#fff" stroke-linecap="round" stroke-linejoin="round" stroke-width=".17481"/>
  <path d="m-308.03-1304 129.17-65.095c16.726-2.7574 27.467 26.736 17.919 34.708l-125.38 71.92c8.1255-7.1308-12.049-44.718-21.708-41.533z" fill="url(#a)" opacity=".55"/>
  <path d="m-286.29-1262.2c-3.8486 2.0172-11.884-5.7247-17.947-17.292s-7.8584-22.58-4.0099-24.597 11.884 5.7247 17.947 17.292 7.8584 22.58 4.0099 24.597z" fill="url(#b)"/>
  <g transform="matrix(.55639 -.23733 .23733 .55639 -163.06 -1580.2)">
   <path d="m-401.71 325.64 241.09-15.088c4.5445 1.1844 16.244 1.323 18.626 9.9436l-234.89 17.579c-0.95353-14.839-21.986-12.864-24.831-12.435z" fill="#008080"/>
   <path d="m-401.42 325.64 240.8-15.088c4.5445 1.1844 12.016-1.9239 19.421 10.045 0 0-93.489 7.0609-97.717 8.0786-3.1825 0.74576-4.2449 0.95002-6.9056 1.5131 1.7222-0.23485-12.092 1.356-12.092 1.356l-9.3489 0.4775c-4.4249 0.46936-6.6788-0.82528-11.575-0.48718l-104.64 8.3153c-4.9954-13.361-15.101-14.64-17.946-14.21z" fill="url(#e)"/>
  </g>
  <path d="m-241.35694-1337.8648c.31705-.2809 8.58206-4.2954 8.58206-4.2954s2.31602-.7689 5.75596,1.9813c4.75072,3.798 3.39817,2.846 3.39817,2.846s4.73307,4.8938 6.51844,8.7957c1.88831,3.7712 2.64448,5.3808 4.00022,10.7435 .6093,2.9413.69985,5.937.4698,8.0995-.40245,1.8028-.46494,4.1096-1.66281,5.6601-.32383.3929-.32183.5403-.32183.5403s13.05975.6196 12.81335.7247c-.12702.054-8.01396,1.9472-8.67175,2.5544-.76298.7043.29847,4.9298.29847,4.9298l-11.98758-3.9313c0,0 .33601-.302.58628-.6616 .7819-1.1235 1.95982-2.0456 2.58784-4.4106 .82161-3.0939.52004-7.3895-.23803-9.9456-.99669-3.3608-2.44094-7.2587-4.37797-10.9464-1.5821-3.012-6.01253-8.9751-8.45401-10.7731s-4.28659-2.6674-6.11989-2.7408c-.70845-.028-1.86378.1714-2.52777.5087-.25284.1284-.64896.3208-.64896.3208z" fill="#a00" stroke="#500" stroke-width=".12098"/>
  <path d="m-221.90686-1299.2869 7.28828-4.2157 12.24783.7733-7.76341,2.0759c0,0-.29499-.2088-.60721.5679s.0435,3.6624.17354,3.9673 .19478.6377.19478.6377z" fill="url(#c)"/>
  <path d="m-241.16-1338c0.31704-0.2809 8.582-4.2955 8.582-4.2955s2.316-0.7688 5.756 1.9814c4.7507 3.798 3.3982 2.846 3.3982 2.846s4.7331 4.8938 6.5184 8.7957c1.8883 3.7712 2.6445 5.3808 4.0002 10.744 0.6093 2.9412 0.69985 5.937 0.4698 8.0995-0.40245 1.8028-0.46494 4.1096-1.6628 5.6601-0.32383 0.3929-0.32183 0.5403-0.32183 0.5403s-2.1393 1.2143-2.6568 1.5541c-3.1344 1.8094-2.3889 1.29-3.9682 2.1985l-0.92242 0.525s0.33601-0.302 0.58628-0.6616c0.78191-1.1235 1.9598-2.0457 2.5878-4.4106 0.82163-3.0939 0.52004-7.3896-0.23802-9.9457-0.9967-3.3607-2.441-7.2586-4.378-10.946-1.5821-3.012-6.0125-8.975-8.454-10.773s-4.2866-2.6673-6.1199-2.7407c-0.70845-0.028-1.8638 0.1713-2.5278 0.5087-0.25283 0.1284-0.64895 0.3207-0.64895 0.3207z" fill="url(#d)"/>
  <path d="m-374.76-1461 87.538-28.036 88.264 27.527-87.537 28.036z"/>
  <path d="m-367.03-1461.6 80.264 25.056 79.554-25.476-80.264-25.056-79.555 25.476z" fill="url(#g)"/>
  <path d="m-358.34-1462.2 71.125 22.219 70.5-22.562-71.125-22.219-70.5 22.562z" fill="url(#h)"/>
  <path d="m-293.61-1461.9c-0.17574 1.1071-1.7656 1.8726 1.1051 2.2276 14.482 1.7911 57.958 7.225 60.271 7.4735 2.829 1.489 5.5092 3.7225 5.9559 7.7427 0.62049 5.5844-2.3824 29.928-2.3824 29.928l1.7868 3.1268h2.9779l0.5956-35.735c-0.49188-3.0299-3.0856-4.7109-5.9559-6.5515-20.436-3.1828-41.704-5.9496-63.728-8.3383z" fill="#786721"/>
  <path d="m-226.46-1417c-4.4905 21.997-4.8988 22.833-4.8988 22.833" fill="#c8ab37" stroke="#c8ab37" stroke-width="1.0767"/>
  <path d="m-223.09-1416.6c-0.90918 23.27-1.0163 24.154-1.0163 24.154" fill="#c8ab37" stroke="#c8ab37" stroke-width=".61206"/>
  <path d="m-224.85-1416.9c-1.7176 19.113-1.9201 19.838-1.9201 19.838" fill="#c8ab37" stroke="#c8ab37" stroke-width=".76242"/>
  <path d="m-227.53-1417.5c-3.9466 15.434-4.4117 16.02-4.4117 16.02" fill="#c8ab37" stroke="#c8ab37" stroke-width="1.0385"/>
  <path d="m-225.63-1416.4c-2.898 19.211-3.2396 19.94-3.2396 19.94" fill="#c8ab37" stroke="#c8ab37" stroke-width=".99287"/>
  <path d="m-223.87-1416.6c-0.9954 18.655-1.1127 19.363-1.1127 19.363" fill="#c8ab37" stroke="#c8ab37" stroke-width=".5734"/>
  <path d="m-226.19-1416.8c-2.6825 22.29-3.0213 23.156-3.0213 23.156" fill="#a0892c" stroke="#a0892c" stroke-width="1.0767"/>
  <path d="m-222.79-1416.6c0.99072 23.267 0.95597 24.157 0.95597 24.157" fill="#a0892c" stroke="#a0892c" stroke-width=".61206"/>
  <path d="m-224.57-1416.8c-0.15397 19.189-0.29655 19.929-0.29655 19.929" fill="#a0892c" stroke="#a0892c" stroke-width=".76242"/>
  <path d="m-227.29-1417.1c-2.6754 15.704-3.0912 16.326-3.0912 16.326" fill="#a0892c" stroke="#a0892c" stroke-width="1.0385"/>
  <path d="m-225.31-1416.2c-1.3224 19.383-1.6034 20.138-1.6034 20.138" fill="#a0892c" stroke="#a0892c" stroke-width=".99287"/>
  <path d="m-223.57-1416.5c0.52857 18.674 0.4694 19.39 0.4694 19.39" fill="#a0892c" stroke="#a0892c" stroke-width=".5734"/>
  <path d="m-225.59-1416.8c-7.2651 21.243-7.7768 22.019-7.7768 22.019" fill="#decd87" stroke="#decd87" stroke-width="1.0767"/>
  <path d="m-222.3-1415.9c-3.8759 22.963-4.0951 23.826-4.0951 23.826" fill="#decd87" stroke="#decd87" stroke-width=".61206"/>
  <path d="m-224.01-1416.5c-4.1463 18.736-4.4398 19.43-4.4398 19.43" fill="#decd87" stroke="#decd87" stroke-width=".76242"/>
  <path d="m-226.6-1417.4c-5.8868 14.803-6.423 15.324-6.423 15.324" fill="#decd87" stroke="#decd87" stroke-width="1.0385"/>
  <path d="m-224.85-1416.1c-5.3296 18.683-5.7615 19.363-5.7615 19.363" fill="#decd87" stroke="#decd87" stroke-width=".99287"/>
  <path d="m-223.08-1416c-3.3715 18.375-3.5784 19.062-3.5784 19.062" fill="#decd87" stroke="#decd87" stroke-width=".5734"/>
  <path d="m-226.23-1416.3c-2.0671 17.723-2.3803 18.434-2.3803 18.434" fill="#e9ddaf" stroke="#e9ddaf" stroke-width=".95122"/>
  <path d="m-222.86-1416.5c1.6048 18.143 1.5944 18.843 1.5944 18.843" fill="#e9ddaf" stroke="#e9ddaf" stroke-width=".54073"/>
  <path d="m-224.63-1416.5c0.35986 15.054 0.23809 15.648 0.23809 15.648" fill="#e9ddaf" stroke="#e9ddaf" stroke-width=".67357"/>
  <path d="m-227.34-1416.4c-2.2361 12.56-2.6322 13.087-2.6322 13.087" fill="#e9ddaf" stroke="#e9ddaf" stroke-width=".9175"/>
  <path d="m-225.34-1415.9c-0.79481 15.316-1.0535 15.935-1.0535 15.935" fill="#e9ddaf" stroke="#e9ddaf" stroke-width=".87716"/>
  <path d="m-223.63-1416.3c1.0236 14.586 0.98398 15.153 0.98398 15.153" fill="#e9ddaf" stroke="#e9ddaf" stroke-width=".50658"/>
  <path d="m-225.77-1415.3c-2.9105 21.997-3.2588 22.833-3.2588 22.833" fill="#c8ab37" stroke="#c8ab37" stroke-width="1.0767"/>
  <path d="m-222.36-1414.9c0.76226 23.27 0.71858 24.154 0.71858 24.154" fill="#c8ab37" stroke="#c8ab37" stroke-width=".61206"/>
  <path d="m-224.15-1415.2c-0.34484 19.113-0.49513 19.839-0.49513 19.839" fill="#c8ab37" stroke="#c8ab37" stroke-width=".76242"/>
  <path d="m-226.87-1415.7c-2.8381 15.434-3.2611 16.02-3.2611 16.02" fill="#c8ab37" stroke="#c8ab37" stroke-width="1.0385"/>
  <path d="m-224.89-1414.6c-1.5182 19.211-1.8073 19.94-1.8073 19.94" fill="#c8ab37" stroke="#c8ab37" stroke-width=".99287"/>
  <path d="m-223.14-1414.9c0.34454 18.655 0.27812 19.363 0.27812 19.363" fill="#c8ab37" stroke="#c8ab37" stroke-width=".5734"/>
  <path d="m-225.48-1415.1c-1.0814 22.29-1.358 23.156-1.358 23.156" fill="#a0892c" stroke="#a0892c" stroke-width="1.0767"/>
  <path d="m-222.07-1414.9c2.6619 23.267 2.6911 24.156 2.6911 24.156" fill="#a0892c" stroke="#a0892c" stroke-width=".61206"/>
  <path d="m-223.86-1415.1c1.2243 19.189 1.1349 19.929 1.1349 19.929" fill="#a0892c" stroke="#a0892c" stroke-width=".76242"/>
  <path d="m-226.6-1415.4c-1.5475 15.704-1.9186 16.326-1.9186 16.326" fill="#a0892c" stroke="#a0892c" stroke-width="1.0385"/>
  <path d="m-224.55-1414.5c0.0698 19.383-0.15692 20.138-0.15692 20.138" fill="#a0892c" stroke="#a0892c" stroke-width=".99287"/>
  <path d="m-222.84-1414.8c1.8699 18.674 1.8621 19.39 1.8621 19.39" fill="#a0892c" stroke="#a0892c" stroke-width=".5734"/>
  <path d="m-224.88-1415.1c-5.7393 21.243-6.1952 22.019-6.1952 22.019" fill="#decd87" stroke="#decd87" stroke-width="1.0767"/>
  <path d="m-221.53-1414.2c-2.2265 22.963-2.3837 23.826-2.3837 23.826" fill="#decd87" stroke="#decd87" stroke-width=".61206"/>
  <path d="m-223.28-1414.8c-2.8005 18.736-3.0442 19.43-3.0442 19.43" fill="#decd87" stroke="#decd87" stroke-width=".76242"/>
  <path d="m-225.93-1415.7c-4.8236 14.803-5.3223 15.324-5.3223 15.324" fill="#decd87" stroke="#decd87" stroke-width="1.0385"/>
  <path d="m-224.09-1414.3c-3.9876 18.683-4.3708 19.363-4.3708 19.363" fill="#decd87" stroke="#decd87" stroke-width=".99287"/>
  <path d="m-222.31-1414.3c-2.0517 18.375-2.2092 19.062-2.2092 19.062" fill="#decd87" stroke="#decd87" stroke-width=".5734"/>
  <path d="m-225.32-1415.2c-0.79414 17.723-1.0563 18.434-1.0563 18.434" fill="#e9ddaf" stroke="#e9ddaf" stroke-width=".95122"/>
  <path d="m-222.12-1414.8c2.908 18.143 2.9478 18.843 2.9478 18.843" fill="#e9ddaf" stroke="#e9ddaf" stroke-width=".54073"/>
  <path d="m-223.9-1414.7c1.4412 15.054 1.362 15.648 1.362 15.648" fill="#e9ddaf" stroke="#e9ddaf" stroke-width=".67357"/>
  <path d="m-226.49-1415.3c-1.334 12.56-1.6922 13.087-1.6922 13.087" fill="#e9ddaf" stroke="#e9ddaf" stroke-width=".9175"/>
  <path d="m-224.18-1414.9c0.30532 15.316 0.091 15.935 0.091 15.935" fill="#e9ddaf" stroke="#e9ddaf" stroke-width=".87716"/>
  <path d="m-222.88-1414.6c2.0713 14.586 2.0724 15.153 2.0724 15.153" fill="#e9ddaf" stroke="#e9ddaf" stroke-width=".50658"/>
  <path d="m-293.38755-1461.3093c3.04097.2214-.1647.2724 3.42514.717 15.54759,1.9258 56.80625,7.0815 59.05852,7.3234 3.29875,2.7416 4.25665,3.4093 5.32962,6.6467 1.42311,4.2939-.87915,20.9167-1.42142,27.3037-.0235.2765-.0434.3108-.0594.5438-.0843,1.2283-1.19564.9845-1.19564.9845-1.08088,1.4254-.8703,3.6946-.46365,3.4978 1.99758-.9664 3.14711-.6664 3.66903-.5588 1.30632.047 2.0591.3861 2.64581,2.3802 .83032-.9964.65569-3.1395.65569-3.1395l-.86982-2.2249 .64366-30.371c-.49188-3.0298-3.08561-4.7108-5.9559-6.5514-20.43597-3.1828-41.70399-5.9496-63.72811-8.3383z" fill="#decd87"/>
  <path d="m-261.05-1442.2 26.571 8.8569 1.9928 23.028-3.0999 5.9784 1.1071 2.4356-1.9928 5.757-1.9928 3.3213 0.22141-4.8713-0.66426 3.5427-0.44284-3.3213-2.657 3.7642 0.66426-4.6498-1.55 0.8856 1.9928-5.3141 3.7642-5.3141v-5.0926l2.2142-7.3069-1.1071-9.2997-7.5283-4.4284-19.042-5.5356-1.7714-2.4356z" fill="#241f1c" filter="url(#f)"/>
  <path d="m-226.46-1417c-4.4905 21.997-4.8988 22.833-4.8988 22.833" fill="#c8ab37" stroke="#c8ab37" stroke-width="1.0767"/>
  <path d="m-223.09-1416.6c-0.90918 23.27-1.0163 24.154-1.0163 24.154" fill="#c8ab37" stroke="#c8ab37" stroke-width=".61206"/>
  <path d="m-224.85-1416.9c-1.7176 19.113-1.9201 19.838-1.9201 19.838" fill="#c8ab37" stroke="#c8ab37" stroke-width=".76242"/>
  <path d="m-227.53-1417.5c-3.9466 15.434-4.4117 16.02-4.4117 16.02" fill="#c8ab37" stroke="#c8ab37" stroke-width="1.0385"/>
  <path d="m-225.63-1416.4c-2.898 19.211-3.2396 19.94-3.2396 19.94" fill="#c8ab37" stroke="#c8ab37" stroke-width=".99287"/>
  <path d="m-223.87-1416.6c-0.9954 18.655-1.1127 19.363-1.1127 19.363" fill="#c8ab37" stroke="#c8ab37" stroke-width=".5734"/>
  <path d="m-226.19-1416.8c-2.6825 22.29-3.0213 23.156-3.0213 23.156" fill="#a0892c" stroke="#a0892c" stroke-width="1.0767"/>
  <path d="m-222.79-1416.6c0.99072 23.267 0.95597 24.157 0.95597 24.157" fill="#a0892c" stroke="#a0892c" stroke-width=".61206"/>
  <path d="m-224.57-1416.8c-0.15397 19.189-0.29655 19.929-0.29655 19.929" fill="#a0892c" stroke="#a0892c" stroke-width=".76242"/>
  <path d="m-227.29-1417.1c-2.6754 15.704-3.0912 16.326-3.0912 16.326" fill="#a0892c" stroke="#a0892c" stroke-width="1.0385"/>
  <path d="m-225.31-1416.2c-1.3224 19.383-1.6034 20.138-1.6034 20.138" fill="#a0892c" stroke="#a0892c" stroke-width=".99287"/>
  <path d="m-223.57-1416.5c0.52857 18.674 0.4694 19.39 0.4694 19.39" fill="#a0892c" stroke="#a0892c" stroke-width=".5734"/>
  <path d="m-225.59-1416.8c-7.2651 21.243-7.7768 22.019-7.7768 22.019" fill="#decd87" stroke="#decd87" stroke-width="1.0767"/>
  <path d="m-222.3-1415.9c-3.8759 22.963-4.0951 23.826-4.0951 23.826" fill="#decd87" stroke="#decd87" stroke-width=".61206"/>
  <path d="m-224.01-1416.5c-4.1463 18.736-4.4398 19.43-4.4398 19.43" fill="#decd87" stroke="#decd87" stroke-width=".76242"/>
  <path d="m-226.6-1417.4c-5.8868 14.803-6.423 15.324-6.423 15.324" fill="#decd87" stroke="#decd87" stroke-width="1.0385"/>
  <path d="m-224.85-1416.1c-5.3296 18.683-5.7615 19.363-5.7615 19.363" fill="#decd87" stroke="#decd87" stroke-width=".99287"/>
  <path d="m-223.08-1416c-3.3715 18.375-3.5784 19.062-3.5784 19.062" fill="#decd87" stroke="#decd87" stroke-width=".5734"/>
  <path d="m-226.23-1416.3c-2.0671 17.723-2.3803 18.434-2.3803 18.434" fill="#e9ddaf" stroke="#e9ddaf" stroke-width=".95122"/>
  <path d="m-222.86-1416.5c1.6048 18.143 1.5944 18.843 1.5944 18.843" fill="#e9ddaf" stroke="#e9ddaf" stroke-width=".54073"/>
  <path d="m-224.63-1416.5c0.35986 15.054 0.23809 15.648 0.23809 15.648" fill="#e9ddaf" stroke="#e9ddaf" stroke-width=".67357"/>
  <path d="m-227.34-1416.4c-2.2361 12.56-2.6322 13.087-2.6322 13.087" fill="#e9ddaf" stroke="#e9ddaf" stroke-width=".9175"/>
  <path d="m-225.34-1415.9c-0.79481 15.316-1.0535 15.935-1.0535 15.935" fill="#e9ddaf" stroke="#e9ddaf" stroke-width=".87716"/>
  <path d="m-223.63-1416.3c1.0236 14.586 0.98398 15.153 0.98398 15.153" fill="#e9ddaf" stroke="#e9ddaf" stroke-width=".50658"/>
  <path d="m-225.77-1415.3c-2.9105 21.997-3.2588 22.833-3.2588 22.833" fill="#c8ab37" stroke="#c8ab37" stroke-width="1.0767"/>
  <path d="m-222.36-1414.9c0.76226 23.27 0.71858 24.154 0.71858 24.154" fill="#c8ab37" stroke="#c8ab37" stroke-width=".61206"/>
  <path d="m-224.15-1415.2c-0.34484 19.113-0.49513 19.839-0.49513 19.839" fill="#c8ab37" stroke="#c8ab37" stroke-width=".76242"/>
  <path d="m-226.87-1415.7c-2.8381 15.434-3.2611 16.02-3.2611 16.02" fill="#c8ab37" stroke="#c8ab37" stroke-width="1.0385"/>
  <path d="m-224.89-1414.6c-1.5182 19.211-1.8073 19.94-1.8073 19.94" fill="#c8ab37" stroke="#c8ab37" stroke-width=".99287"/>
  <path d="m-223.14-1414.9c0.34454 18.655 0.27812 19.363 0.27812 19.363" fill="#c8ab37" stroke="#c8ab37" stroke-width=".5734"/>
  <path d="m-225.48-1415.1c-1.0814 22.29-1.358 23.156-1.358 23.156" fill="#a0892c" stroke="#a0892c" stroke-width="1.0767"/>
  <path d="m-222.07-1414.9c2.6619 23.267 2.6911 24.156 2.6911 24.156" fill="#a0892c" stroke="#a0892c" stroke-width=".61206"/>
  <path d="m-223.86-1415.1c1.2243 19.189 1.1349 19.929 1.1349 19.929" fill="#a0892c" stroke="#a0892c" stroke-width=".76242"/>
  <path d="m-226.6-1415.4c-1.5475 15.704-1.9186 16.326-1.9186 16.326" fill="#a0892c" stroke="#a0892c" stroke-width="1.0385"/>
  <path d="m-224.55-1414.5c0.0698 19.383-0.15692 20.138-0.15692 20.138" fill="#a0892c" stroke="#a0892c" stroke-width=".99287"/>
  <path d="m-222.84-1414.8c1.8699 18.674 1.8621 19.39 1.8621 19.39" fill="#a0892c" stroke="#a0892c" stroke-width=".5734"/>
  <path d="m-224.88-1415.1c-5.7393 21.243-6.1952 22.019-6.1952 22.019" fill="#decd87" stroke="#decd87" stroke-width="1.0767"/>
  <path d="m-221.53-1414.2c-2.2265 22.963-2.3837 23.826-2.3837 23.826" fill="#decd87" stroke="#decd87" stroke-width=".61206"/>
  <path d="m-223.28-1414.8c-2.8005 18.736-3.0442 19.43-3.0442 19.43" fill="#decd87" stroke="#decd87" stroke-width=".76242"/>
  <path d="m-225.93-1415.7c-4.8236 14.803-5.3223 15.324-5.3223 15.324" fill="#decd87" stroke="#decd87" stroke-width="1.0385"/>
  <path d="m-224.09-1414.3c-3.9876 18.683-4.3708 19.363-4.3708 19.363" fill="#decd87" stroke="#decd87" stroke-width=".99287"/>
  <path d="m-222.31-1414.3c-2.0517 18.375-2.2092 19.062-2.2092 19.062" fill="#decd87" stroke="#decd87" stroke-width=".5734"/>
  <path d="m-225.32-1415.2c-0.79414 17.723-1.0563 18.434-1.0563 18.434" fill="#e9ddaf" stroke="#e9ddaf" stroke-width=".95122"/>
  <path d="m-222.12-1414.8c2.908 18.143 2.9478 18.843 2.9478 18.843" fill="#e9ddaf" stroke="#e9ddaf" stroke-width=".54073"/>
  <path d="m-223.9-1414.7c1.4412 15.054 1.362 15.648 1.362 15.648" fill="#e9ddaf" stroke="#e9ddaf" stroke-width=".67357"/>
  <path d="m-226.49-1415.3c-1.334 12.56-1.6922 13.087-1.6922 13.087" fill="#e9ddaf" stroke="#e9ddaf" stroke-width=".9175"/>
  <path d="m-224.18-1414.9c0.30532 15.316 0.091 15.935 0.091 15.935" fill="#e9ddaf" stroke="#e9ddaf" stroke-width=".87716"/>
  <path d="m-222.88-1414.6c2.0713 14.586 2.0724 15.153 2.0724 15.153" fill="#e9ddaf" stroke="#e9ddaf" stroke-width=".50658"/>
  <path d="m-261.05-1442.2 26.571 8.8568 1.9928 23.028-3.0999 5.9784 1.1071 2.4356-1.9928 5.757-1.9928 3.3213 0.22141-4.8713-0.66426 3.5427-0.44284-3.3213-2.657 3.7642 0.66426-4.6498-1.55 0.8856 1.9928-5.3141 3.7642-5.3141v-5.0927l2.2142-7.3068-1.1071-9.2997-7.5283-4.4284-19.042-5.5356-1.7714-2.4356z" fill="#241f1c" filter="url(#f)"/>
 </g>
</svg>
