<svg xmlns="http://www.w3.org/2000/svg" version="1.1" xmlns:xlink="http://www.w3.org/1999/xlink" xmlns:svgjs="http://svgjs.dev/svgjs" width="1500" height="310" viewBox="0 0 1500 310"><g transform="matrix(1,0,0,1,-0.9090770888768702,0.6002923223631171)"><svg viewBox="0 0 396 82" data-background-color="#ffffff" preserveAspectRatio="xMidYMid meet" height="310" width="1500" xmlns="http://www.w3.org/2000/svg" xmlns:xlink="http://www.w3.org/1999/xlink"><g id="tight-bounds" transform="matrix(1,0,0,1,0.2399963514635033,-0.1587870013992756)"><svg viewBox="0 0 395.52 82.31757400279857" height="82.31757400279857" width="395.52"><g><svg viewBox="0 0 681.1782994512163 141.77018879999994" height="82.31757400279857" width="395.52"><g><rect width="6.611541087474661" height="107.5705350321665" x="261.7390591818708" y="17.09982688391672" fill="#0074d9" opacity="1" stroke-width="0" stroke="transparent" fill-opacity="1" class="rect-qz-0" data-fill-palette-color="primary" rx="1%" id="qz-0" data-palette-color="#0074d9"></rect></g><g transform="matrix(1,0,0,1,285.6582994512163,17.367415279519115)"><svg viewBox="0 0 395.52 107.03535824096171" height="107.03535824096171" width="395.52"><g id="textblocktransform"><svg viewBox="0 0 395.52 107.03535824096171" height="107.03535824096171" width="395.52" id="textblock"><g><svg viewBox="0 0 395.52 73.3140987727293" height="73.3140987727293" width="395.52"><g transform="matrix(1,0,0,1,0,0)"><svg width="395.52" viewBox="2.35 -35.6 251.380946211082 46.6" height="73.3140987727293" data-palette-color="#0074d9"><path d="M18.75 0.6L18.75 0.6Q13.85 0.6 10.15-1.68 6.45-3.95 4.4-8.03 2.35-12.1 2.35-17.45L2.35-17.45Q2.35-22.8 4.42-26.9 6.5-31 10.33-33.3 14.15-35.6 19.35-35.6L19.35-35.6Q25.25-35.6 29.18-32.75 33.1-29.9 34.25-24.9L34.25-24.9 29.4-24.9Q28.7-28.05 26.08-29.9 23.45-31.75 19.35-31.75L19.35-31.75Q15.5-31.75 12.65-30.03 9.8-28.3 8.22-25.1 6.65-21.9 6.65-17.45L6.65-17.45Q6.65-13 8.2-9.8 9.75-6.6 12.5-4.88 15.25-3.15 18.9-3.15L18.9-3.15Q24.5-3.15 27.35-6.43 30.2-9.7 30.6-15.4L30.6-15.4 20.5-15.4 20.5-18.7 34.9-18.7 34.9 0 31.05 0 30.7-5.75Q28.8-2.7 26.05-1.05 23.3 0.6 18.75 0.6ZM60.6-12.75L40.8-12.75 40.8-16.3 60.6-16.3 60.6-12.75ZM82.55 0.6L82.55 0.6Q77.4 0.6 73.67-1.68 69.95-3.95 67.9-8.03 65.84-12.1 65.84-17.5L65.84-17.5Q65.84-22.85 67.9-26.93 69.95-31 73.67-33.3 77.4-35.6 82.55-35.6L82.55-35.6Q88.55-35.6 92.32-32.73 96.09-29.85 97.15-24.7L97.15-24.7 92.5-24.7Q91.7-27.95 89.22-29.93 86.75-31.9 82.55-31.9L82.55-31.9Q78.8-31.9 76-30.18 73.2-28.45 71.67-25.23 70.15-22 70.15-17.5L70.15-17.5Q70.15-13 71.67-9.78 73.2-6.55 76-4.83 78.8-3.1 82.55-3.1L82.55-3.1Q86.75-3.1 89.22-5.03 91.7-6.95 92.5-10.15L92.5-10.15 97.15-10.15Q96.09-5.1 92.32-2.25 88.55 0.6 82.55 0.6ZM111.19 0.6L111.19 0.6Q108.09 0.6 106.04-0.45 103.99-1.5 102.99-3.25 101.99-5 101.99-7.05L101.99-7.05Q101.99-10.85 104.89-12.9 107.79-14.95 112.79-14.95L112.79-14.95 119.49-14.95 119.49-15.25Q119.49-18.5 117.79-20.18 116.09-21.85 113.24-21.85L113.24-21.85Q110.79-21.85 109.02-20.63 107.24-19.4 106.79-17.05L106.79-17.05 102.49-17.05Q102.74-19.75 104.32-21.6 105.89-23.45 108.24-24.43 110.59-25.4 113.24-25.4L113.24-25.4Q118.44-25.4 121.07-22.63 123.69-19.85 123.69-15.25L123.69-15.25 123.69 0 119.94 0 119.69-4.45Q118.64-2.35 116.62-0.88 114.59 0.6 111.19 0.6ZM111.84-2.95L111.84-2.95Q114.24-2.95 115.97-4.2 117.69-5.45 118.59-7.45 119.49-9.45 119.49-11.65L119.49-11.65 119.49-11.7 113.14-11.7Q109.44-11.7 107.92-10.43 106.39-9.15 106.39-7.25L106.39-7.25Q106.39-5.3 107.82-4.13 109.24-2.95 111.84-2.95ZM134.19 0L129.99 0 129.99-24.8 133.79-24.8 134.09-21.2Q135.29-23.2 137.29-24.3 139.29-25.4 141.79-25.4L141.79-25.4Q144.74-25.4 146.87-24.2 148.99-23 150.14-20.55L150.14-20.55Q151.44-22.8 153.72-24.1 155.99-25.4 158.64-25.4L158.64-25.4Q163.09-25.4 165.74-22.73 168.39-20.05 168.39-14.5L168.39-14.5 168.39 0 164.24 0 164.24-14.05Q164.24-17.9 162.69-19.85 161.14-21.8 158.24-21.8L158.24-21.8Q155.24-21.8 153.27-19.48 151.29-17.15 151.29-12.85L151.29-12.85 151.29 0 147.09 0 147.09-14.05Q147.09-17.9 145.54-19.85 143.99-21.8 141.09-21.8L141.09-21.8Q138.14-21.8 136.17-19.48 134.19-17.15 134.19-12.85L134.19-12.85 134.19 0ZM178.94 11L174.74 11 174.74-24.8 178.54-24.8 178.94-20.7Q180.14-22.5 182.36-23.95 184.59-25.4 188.04-25.4L188.04-25.4Q191.74-25.4 194.49-23.7 197.24-22 198.76-19.05 200.29-16.1 200.29-12.35L200.29-12.35Q200.29-8.6 198.76-5.68 197.24-2.75 194.46-1.07 191.69 0.6 187.99 0.6L187.99 0.6Q184.94 0.6 182.56-0.65 180.19-1.9 178.94-4.15L178.94-4.15 178.94 11ZM187.54-3.05L187.54-3.05Q190.04-3.05 191.94-4.23 193.84-5.4 194.94-7.5 196.04-9.6 196.04-12.4L196.04-12.4Q196.04-15.2 194.94-17.3 193.84-19.4 191.94-20.58 190.04-21.75 187.54-21.75L187.54-21.75Q185.04-21.75 183.14-20.58 181.24-19.4 180.14-17.3 179.04-15.2 179.04-12.4L179.04-12.4Q179.04-9.6 180.14-7.5 181.24-5.4 183.14-4.23 185.04-3.05 187.54-3.05ZM215.19 0.6L215.19 0.6Q210.79 0.6 208.19-2.08 205.59-4.75 205.59-10.3L205.59-10.3 205.59-24.8 209.79-24.8 209.79-10.75Q209.79-3 216.14-3L216.14-3Q219.39-3 221.51-5.33 223.64-7.65 223.64-11.95L223.64-11.95 223.64-24.8 227.84-24.8 227.84 0 224.04 0 223.74-4.45Q222.59-2.1 220.31-0.75 218.04 0.6 215.19 0.6ZM244.23 0.6L244.23 0.6Q239.78 0.6 236.83-1.65 233.88-3.9 233.38-7.75L233.38-7.75 237.68-7.75Q238.08-5.8 239.76-4.38 241.43-2.95 244.28-2.95L244.28-2.95Q246.93-2.95 248.18-4.08 249.43-5.2 249.43-6.75L249.43-6.75Q249.43-9 247.81-9.75 246.18-10.5 243.23-11.1L243.23-11.1Q241.23-11.5 239.23-12.25 237.23-13 235.88-14.38 234.53-15.75 234.53-18L234.53-18Q234.53-21.25 236.96-23.33 239.38-25.4 243.53-25.4L243.53-25.4Q247.48-25.4 250.01-23.43 252.53-21.45 252.93-17.8L252.93-17.8 248.78-17.8Q248.53-19.7 247.16-20.78 245.78-21.85 243.48-21.85L243.48-21.85Q241.23-21.85 240.01-20.9 238.78-19.95 238.78-18.4L238.78-18.4Q238.78-16.9 240.36-16.05 241.93-15.2 244.63-14.6L244.63-14.6Q246.93-14.1 249.01-13.38 251.08-12.65 252.41-11.23 253.73-9.8 253.73-7.1L253.73-7.1Q253.78-3.75 251.21-1.58 248.63 0.6 244.23 0.6Z" opacity="1" transform="matrix(1,0,0,1,0,0)" fill="#0074d9" class="wordmark-text-0" data-fill-palette-color="primary" id="text-0"></path></svg></g></svg></g><g transform="matrix(1,0,0,1,0,90.62179795460014)"><svg viewBox="0 0 232.209792 16.413560286361573" height="16.413560286361573" width="232.209792"><g transform="matrix(1,0,0,1,0,0)"><svg width="232.209792" viewBox="4.5 -35.6 662.02 46.800000000000004" height="16.413560286361573" data-palette-color="#949494"><path d="M8.65 0L4.5 0 4.5-32.8 8.65-32.8 8.65 0ZM25.45 11.2L25.45 11.2Q23.2 11.2 21.35 10.78 19.5 10.35 18.17 9.5 16.85 8.65 16.12 7.45 15.4 6.25 15.4 4.65L15.4 4.65Q15.4 3.1 16.35 1.7 17.3 0.3 18.95-0.85L18.95-0.85 18.95-1.05Q18.05-1.6 17.42-2.58 16.8-3.55 16.8-5L16.8-5Q16.8-6.55 17.65-7.7 18.5-8.85 19.45-9.5L19.45-9.5 19.45-9.7Q18.25-10.7 17.27-12.38 16.3-14.05 16.3-16.25L16.3-16.25Q16.3-18.25 17.02-19.85 17.75-21.45 19-22.58 20.25-23.7 21.92-24.3 23.6-24.9 25.45-24.9L25.45-24.9Q26.45-24.9 27.32-24.73 28.2-24.55 28.9-24.3L28.9-24.3 37.35-24.3 37.35-21.15 32.35-21.15Q33.2-20.3 33.77-19 34.35-17.7 34.35-16.15L34.35-16.15Q34.35-14.2 33.65-12.63 32.95-11.05 31.75-9.98 30.55-8.9 28.92-8.3 27.3-7.7 25.45-7.7L25.45-7.7Q24.55-7.7 23.6-7.93 22.65-8.15 21.8-8.55L21.8-8.55Q21.15-8 20.7-7.33 20.25-6.65 20.25-5.65L20.25-5.65Q20.25-4.5 21.15-3.75 22.05-3 24.55-3L24.55-3 29.25-3Q33.5-3 35.62-1.63 37.75-0.25 37.75 2.8L37.75 2.8Q37.75 4.5 36.9 6.03 36.05 7.55 34.45 8.7 32.85 9.85 30.57 10.53 28.3 11.2 25.45 11.2ZM25.45-10.45L25.45-10.45Q26.5-10.45 27.42-10.85 28.35-11.25 29.07-12 29.8-12.75 30.2-13.83 30.6-14.9 30.6-16.25L30.6-16.25Q30.6-18.95 29.1-20.43 27.6-21.9 25.45-21.9L25.45-21.9Q23.3-21.9 21.8-20.43 20.3-18.95 20.3-16.25L20.3-16.25Q20.3-14.9 20.7-13.83 21.1-12.75 21.82-12 22.55-11.25 23.47-10.85 24.4-10.45 25.45-10.45ZM26.05 8.35L26.05 8.35Q27.8 8.35 29.22 7.93 30.65 7.5 31.65 6.83 32.65 6.15 33.2 5.25 33.75 4.35 33.75 3.4L33.75 3.4Q33.75 1.7 32.5 1.05 31.25 0.4 28.85 0.4L28.85 0.4 24.65 0.4Q23.95 0.4 23.12 0.33 22.3 0.25 21.5 0L21.5 0Q20.2 0.95 19.6 2 19 3.05 19 4.1L19 4.1Q19 6.05 20.87 7.2 22.75 8.35 26.05 8.35ZM46.55 0L42.45 0 42.45-24.3 45.85-24.3 46.2-20.8 46.35-20.8Q48.1-22.55 50.02-23.73 51.95-24.9 54.5-24.9L54.5-24.9Q58.35-24.9 60.12-22.5 61.9-20.1 61.9-15.4L61.9-15.4 61.9 0 57.8 0 57.8-14.85Q57.8-18.3 56.7-19.83 55.6-21.35 53.2-21.35L53.2-21.35Q51.3-21.35 49.85-20.4 48.4-19.45 46.55-17.6L46.55-17.6 46.55 0ZM73.89 0L69.79 0 69.79-24.3 73.89-24.3 73.89 0ZM71.89-29.3L71.89-29.3Q70.69-29.3 69.87-30.05 69.04-30.8 69.04-31.95L69.04-31.95Q69.04-33.15 69.87-33.88 70.69-34.6 71.89-34.6L71.89-34.6Q73.09-34.6 73.92-33.88 74.74-33.15 74.74-31.95L74.74-31.95Q74.74-30.8 73.92-30.05 73.09-29.3 71.89-29.3ZM89.74 0.6L89.74 0.6Q87.79 0.6 86.47 0 85.14-0.6 84.32-1.65 83.49-2.7 83.14-4.2 82.79-5.7 82.79-7.5L82.79-7.5 82.79-20.95 79.19-20.95 79.19-24.05 82.99-24.3 83.49-31.1 86.94-31.1 86.94-24.3 93.49-24.3 93.49-20.95 86.94-20.95 86.94-7.45Q86.94-5.2 87.77-3.98 88.59-2.75 90.69-2.75L90.69-2.75Q91.34-2.75 92.09-2.95 92.84-3.15 93.44-3.4L93.44-3.4 94.24-0.3Q93.24 0.05 92.07 0.33 90.89 0.6 89.74 0.6ZM103.09 0L98.99 0 98.99-24.3 103.09-24.3 103.09 0ZM101.09-29.3L101.09-29.3Q99.89-29.3 99.06-30.05 98.24-30.8 98.24-31.95L98.24-31.95Q98.24-33.15 99.06-33.88 99.89-34.6 101.09-34.6L101.09-34.6Q102.29-34.6 103.11-33.88 103.94-33.15 103.94-31.95L103.94-31.95Q103.94-30.8 103.11-30.05 102.29-29.3 101.09-29.3ZM115.39 0L111.29 0 111.29-24.3 114.69-24.3 115.04-20.8 115.19-20.8Q116.94-22.55 118.86-23.73 120.79-24.9 123.34-24.9L123.34-24.9Q127.19-24.9 128.96-22.5 130.74-20.1 130.74-15.4L130.74-15.4 130.74 0 126.64 0 126.64-14.85Q126.64-18.3 125.54-19.83 124.44-21.35 122.04-21.35L122.04-21.35Q120.14-21.35 118.69-20.4 117.24-19.45 115.39-17.6L115.39-17.6 115.39 0ZM146.83 11.2L146.83 11.2Q144.58 11.2 142.73 10.78 140.88 10.35 139.56 9.5 138.23 8.65 137.51 7.45 136.78 6.25 136.78 4.65L136.78 4.65Q136.78 3.1 137.73 1.7 138.68 0.3 140.33-0.85L140.33-0.85 140.33-1.05Q139.43-1.6 138.81-2.58 138.18-3.55 138.18-5L138.18-5Q138.18-6.55 139.03-7.7 139.88-8.85 140.83-9.5L140.83-9.5 140.83-9.7Q139.63-10.7 138.66-12.38 137.68-14.05 137.68-16.25L137.68-16.25Q137.68-18.25 138.41-19.85 139.13-21.45 140.38-22.58 141.63-23.7 143.31-24.3 144.98-24.9 146.83-24.9L146.83-24.9Q147.83-24.9 148.71-24.73 149.58-24.55 150.28-24.3L150.28-24.3 158.73-24.3 158.73-21.15 153.73-21.15Q154.58-20.3 155.16-19 155.73-17.7 155.73-16.15L155.73-16.15Q155.73-14.2 155.03-12.63 154.33-11.05 153.13-9.98 151.93-8.9 150.31-8.3 148.68-7.7 146.83-7.7L146.83-7.7Q145.93-7.7 144.98-7.93 144.03-8.15 143.18-8.55L143.18-8.55Q142.53-8 142.08-7.33 141.63-6.65 141.63-5.65L141.63-5.65Q141.63-4.5 142.53-3.75 143.43-3 145.93-3L145.93-3 150.63-3Q154.88-3 157.01-1.63 159.13-0.25 159.13 2.8L159.13 2.8Q159.13 4.5 158.28 6.03 157.43 7.55 155.83 8.7 154.23 9.85 151.96 10.53 149.68 11.2 146.83 11.2ZM146.83-10.45L146.83-10.45Q147.88-10.45 148.81-10.85 149.73-11.25 150.46-12 151.18-12.75 151.58-13.83 151.98-14.9 151.98-16.25L151.98-16.25Q151.98-18.95 150.48-20.43 148.98-21.9 146.83-21.9L146.83-21.9Q144.68-21.9 143.18-20.43 141.68-18.95 141.68-16.25L141.68-16.25Q141.68-14.9 142.08-13.83 142.48-12.75 143.21-12 143.93-11.25 144.86-10.85 145.78-10.45 146.83-10.45ZM147.43 8.35L147.43 8.35Q149.18 8.35 150.61 7.93 152.03 7.5 153.03 6.83 154.03 6.15 154.58 5.25 155.13 4.35 155.13 3.4L155.13 3.4Q155.13 1.7 153.88 1.05 152.63 0.4 150.23 0.4L150.23 0.4 146.03 0.4Q145.33 0.4 144.51 0.33 143.68 0.25 142.88 0L142.88 0Q141.58 0.95 140.98 2 140.38 3.05 140.38 4.1L140.38 4.1Q140.38 6.05 142.26 7.2 144.13 8.35 147.43 8.35ZM177.98 0L174.23 0 174.23-32.8 179.23-32.8 185.53-15.3Q186.13-13.6 186.7-11.88 187.28-10.15 187.88-8.45L187.88-8.45 188.08-8.45Q188.68-10.15 189.2-11.88 189.73-13.6 190.33-15.3L190.33-15.3 196.53-32.8 201.58-32.8 201.58 0 197.68 0 197.68-18.05Q197.68-20.25 197.88-22.9 198.08-25.55 198.23-27.75L198.23-27.75 198.03-27.75 195.43-20.3 189.23-3.3 186.48-3.3 180.28-20.3 177.68-27.75 177.48-27.75Q177.63-25.55 177.8-22.9 177.98-20.25 177.98-18.05L177.98-18.05 177.98 0ZM214.28 0L210.18 0 210.18-24.3 214.28-24.3 214.28 0ZM212.28-29.3L212.28-29.3Q211.08-29.3 210.25-30.05 209.43-30.8 209.43-31.95L209.43-31.95Q209.43-33.15 210.25-33.88 211.08-34.6 212.28-34.6L212.28-34.6Q213.48-34.6 214.3-33.88 215.13-33.15 215.13-31.95L215.13-31.95Q215.13-30.8 214.3-30.05 213.48-29.3 212.28-29.3ZM226.57 0L222.47 0 222.47-24.3 225.87-24.3 226.22-20.8 226.37-20.8Q228.12-22.55 230.05-23.73 231.97-24.9 234.52-24.9L234.52-24.9Q238.37-24.9 240.15-22.5 241.92-20.1 241.92-15.4L241.92-15.4 241.92 0 237.82 0 237.82-14.85Q237.82-18.3 236.72-19.83 235.62-21.35 233.22-21.35L233.22-21.35Q231.32-21.35 229.87-20.4 228.42-19.45 226.57-17.6L226.57-17.6 226.57 0ZM258.12 0.6L258.12 0.6Q253.52 0.6 250.8-2.7 248.07-6 248.07-12.1L248.07-12.1Q248.07-15.05 248.95-17.43 249.82-19.8 251.27-21.45 252.72-23.1 254.62-24 256.52-24.9 258.62-24.9L258.62-24.9Q260.72-24.9 262.27-24.15 263.82-23.4 265.42-22.1L265.42-22.1 265.22-26.25 265.22-35.6 269.37-35.6 269.37 0 265.97 0 265.62-2.85 265.47-2.85Q264.02-1.45 262.15-0.43 260.27 0.6 258.12 0.6ZM259.02-2.85L259.02-2.85Q260.72-2.85 262.22-3.68 263.72-4.5 265.22-6.2L265.22-6.2 265.22-18.9Q263.67-20.3 262.25-20.88 260.82-21.45 259.32-21.45L259.32-21.45Q257.87-21.45 256.6-20.78 255.32-20.1 254.37-18.88 253.42-17.65 252.87-15.95 252.32-14.25 252.32-12.15L252.32-12.15Q252.32-7.75 254.07-5.3 255.82-2.85 259.02-2.85ZM283.92 0.6L283.92 0.6Q281.32 0.6 278.97-0.35 276.62-1.3 274.87-2.75L274.87-2.75 276.92-5.5Q278.52-4.2 280.19-3.4 281.87-2.6 284.07-2.6L284.07-2.6Q286.47-2.6 287.67-3.7 288.87-4.8 288.87-6.4L288.87-6.4Q288.87-7.35 288.37-8.05 287.87-8.75 287.09-9.28 286.32-9.8 285.32-10.2 284.32-10.6 283.32-11L283.32-11Q282.02-11.45 280.72-12.03 279.42-12.6 278.39-13.43 277.37-14.25 276.72-15.35 276.07-16.45 276.07-18L276.07-18Q276.07-19.45 276.64-20.73 277.22-22 278.29-22.93 279.37-23.85 280.92-24.38 282.47-24.9 284.42-24.9L284.42-24.9Q286.72-24.9 288.64-24.1 290.57-23.3 291.97-22.15L291.97-22.15 290.02-19.55Q288.77-20.5 287.42-21.1 286.07-21.7 284.47-21.7L284.47-21.7Q282.17-21.7 281.09-20.65 280.02-19.6 280.02-18.2L280.02-18.2Q280.02-17.35 280.47-16.73 280.92-16.1 281.67-15.63 282.42-15.15 283.39-14.78 284.37-14.4 285.42-14L285.42-14Q286.72-13.5 288.04-12.95 289.37-12.4 290.42-11.58 291.47-10.75 292.14-9.55 292.82-8.35 292.82-6.65L292.82-6.65Q292.82-5.15 292.24-3.85 291.67-2.55 290.54-1.55 289.42-0.55 287.74 0.03 286.07 0.6 283.92 0.6ZM297.77 8.5L297.77 8.5 296.77 6.1Q298.92 5.15 300.12 3.58 301.31 2 301.27 0L301.27 0Q301.12 0.05 300.77 0.05L300.77 0.05Q299.56 0.05 298.69-0.68 297.81-1.4 297.81-2.8L297.81-2.8Q297.81-4.15 298.72-4.93 299.62-5.7 300.87-5.7L300.87-5.7Q302.47-5.7 303.39-4.4 304.31-3.1 304.31-0.85L304.31-0.85Q304.31 2.4 302.56 4.8 300.81 7.2 297.77 8.5ZM330.46 0.6L330.46 0.6Q327.01 0.6 324.06-0.7 321.11-2 318.96-4.25L318.96-4.25 321.46-7.15Q323.21-5.3 325.59-4.17 327.96-3.05 330.51-3.05L330.51-3.05Q333.76-3.05 335.56-4.53 337.36-6 337.36-8.4L337.36-8.4Q337.36-9.65 336.94-10.53 336.51-11.4 335.79-12.03 335.06-12.65 334.06-13.15 333.06-13.65 331.91-14.2L331.91-14.2 327.21-16.25Q326.06-16.75 324.86-17.45 323.66-18.15 322.71-19.15 321.76-20.15 321.16-21.53 320.56-22.9 320.56-24.7L320.56-24.7Q320.56-26.55 321.34-28.15 322.11-29.75 323.49-30.93 324.86-32.1 326.74-32.75 328.61-33.4 330.86-33.4L330.86-33.4Q333.81-33.4 336.31-32.27 338.81-31.15 340.56-29.35L340.56-29.35 338.31-26.65Q336.81-28.1 334.99-28.93 333.16-29.75 330.86-29.75L330.86-29.75Q328.11-29.75 326.44-28.48 324.76-27.2 324.76-24.95L324.76-24.95Q324.76-23.75 325.24-22.93 325.71-22.1 326.51-21.48 327.31-20.85 328.26-20.38 329.21-19.9 330.21-19.5L330.21-19.5 334.86-17.5Q336.26-16.9 337.51-16.13 338.76-15.35 339.66-14.33 340.56-13.3 341.09-11.93 341.61-10.55 341.61-8.75L341.61-8.75Q341.61-6.8 340.84-5.1 340.06-3.4 338.61-2.13 337.16-0.85 335.11-0.13 333.06 0.6 330.46 0.6ZM351.76 0L347.66 0 347.66-35.6 351.76-35.6 351.76-25.9 351.61-20.9Q353.36-22.55 355.26-23.73 357.16-24.9 359.71-24.9L359.71-24.9Q363.56-24.9 365.33-22.5 367.11-20.1 367.11-15.4L367.11-15.4 367.11 0 363.01 0 363.01-14.85Q363.01-18.3 361.91-19.83 360.81-21.35 358.41-21.35L358.41-21.35Q356.51-21.35 355.06-20.4 353.61-19.45 351.76-17.6L351.76-17.6 351.76 0ZM380.45 0.6L380.45 0.6Q377.4 0.6 375.38-1.2 373.36-3 373.36-6.3L373.36-6.3Q373.36-10.3 376.9-12.43 380.45-14.55 388.25-15.4L388.25-15.4Q388.25-16.55 388.03-17.65 387.81-18.75 387.25-19.6 386.7-20.45 385.73-20.98 384.75-21.5 383.25-21.5L383.25-21.5Q381.15-21.5 379.31-20.7 377.45-19.9 376-18.9L376-18.9 374.4-21.75Q376.11-22.85 378.56-23.88 381-24.9 383.95-24.9L383.95-24.9Q388.4-24.9 390.4-22.18 392.4-19.45 392.4-14.9L392.4-14.9 392.4 0 389 0 388.65-2.9 388.5-2.9Q386.75-1.45 384.75-0.43 382.75 0.6 380.45 0.6ZM381.65-2.7L381.65-2.7Q383.4-2.7 384.95-3.53 386.5-4.35 388.25-5.95L388.25-5.95 388.25-12.7Q385.2-12.3 383.13-11.75 381.06-11.2 379.78-10.45 378.5-9.7 377.93-8.72 377.36-7.75 377.36-6.6L377.36-6.6Q377.36-4.5 378.61-3.6 379.86-2.7 381.65-2.7ZM404.15 10.25L400.05 10.25 400.05-24.3 403.45-24.3 403.8-21.5 403.95-21.5Q405.6-22.9 407.58-23.9 409.55-24.9 411.7-24.9L411.7-24.9Q414.05-24.9 415.85-24.03 417.65-23.15 418.85-21.53 420.05-19.9 420.68-17.63 421.3-15.35 421.3-12.5L421.3-12.5Q421.3-9.4 420.45-6.98 419.6-4.55 418.15-2.85 416.7-1.15 414.8-0.28 412.9 0.6 410.8 0.6L410.8 0.6Q409.1 0.6 407.43-0.15 405.75-0.9 404.05-2.2L404.05-2.2 404.15 2.05 404.15 10.25ZM410.1-2.85L410.1-2.85Q411.6-2.85 412.88-3.53 414.15-4.2 415.08-5.43 416-6.65 416.53-8.45 417.05-10.25 417.05-12.5L417.05-12.5Q417.05-14.5 416.7-16.15 416.35-17.8 415.58-18.98 414.8-20.15 413.58-20.8 412.35-21.45 410.65-21.45L410.65-21.45Q409.1-21.45 407.53-20.6 405.95-19.75 404.15-18.15L404.15-18.15 404.15-5.4Q405.8-4 407.35-3.43 408.9-2.85 410.1-2.85ZM431.9 0L427.8 0 427.8-24.3 431.9-24.3 431.9 0ZM429.9-29.3L429.9-29.3Q428.7-29.3 427.88-30.05 427.05-30.8 427.05-31.95L427.05-31.95Q427.05-33.15 427.88-33.88 428.7-34.6 429.9-34.6L429.9-34.6Q431.1-34.6 431.93-33.88 432.75-33.15 432.75-31.95L432.75-31.95Q432.75-30.8 431.93-30.05 431.1-29.3 429.9-29.3ZM444.2 0L440.1 0 440.1-24.3 443.5-24.3 443.85-20.8 444-20.8Q445.75-22.55 447.67-23.73 449.6-24.9 452.15-24.9L452.15-24.9Q456-24.9 457.77-22.5 459.55-20.1 459.55-15.4L459.55-15.4 459.55 0 455.45 0 455.45-14.85Q455.45-18.3 454.35-19.83 453.25-21.35 450.85-21.35L450.85-21.35Q448.95-21.35 447.5-20.4 446.05-19.45 444.2-17.6L444.2-17.6 444.2 0ZM475.65 11.2L475.65 11.2Q473.4 11.2 471.55 10.78 469.7 10.35 468.37 9.5 467.05 8.65 466.32 7.45 465.6 6.25 465.6 4.65L465.6 4.65Q465.6 3.1 466.55 1.7 467.5 0.3 469.15-0.85L469.15-0.85 469.15-1.05Q468.25-1.6 467.62-2.58 467-3.55 467-5L467-5Q467-6.55 467.85-7.7 468.7-8.85 469.65-9.5L469.65-9.5 469.65-9.7Q468.45-10.7 467.47-12.38 466.5-14.05 466.5-16.25L466.5-16.25Q466.5-18.25 467.22-19.85 467.95-21.45 469.2-22.58 470.45-23.7 472.12-24.3 473.8-24.9 475.65-24.9L475.65-24.9Q476.65-24.9 477.52-24.73 478.4-24.55 479.1-24.3L479.1-24.3 487.55-24.3 487.55-21.15 482.55-21.15Q483.4-20.3 483.97-19 484.55-17.7 484.55-16.15L484.55-16.15Q484.55-14.2 483.85-12.63 483.15-11.05 481.95-9.98 480.75-8.9 479.12-8.3 477.5-7.7 475.65-7.7L475.65-7.7Q474.75-7.7 473.8-7.93 472.85-8.15 472-8.55L472-8.55Q471.35-8 470.9-7.33 470.45-6.65 470.45-5.65L470.45-5.65Q470.45-4.5 471.35-3.75 472.25-3 474.75-3L474.75-3 479.45-3Q483.7-3 485.82-1.63 487.95-0.25 487.95 2.8L487.95 2.8Q487.95 4.5 487.1 6.03 486.25 7.55 484.65 8.7 483.05 9.85 480.77 10.53 478.5 11.2 475.65 11.2ZM475.65-10.45L475.65-10.45Q476.7-10.45 477.62-10.85 478.55-11.25 479.27-12 480-12.75 480.4-13.83 480.8-14.9 480.8-16.25L480.8-16.25Q480.8-18.95 479.3-20.43 477.8-21.9 475.65-21.9L475.65-21.9Q473.5-21.9 472-20.43 470.5-18.95 470.5-16.25L470.5-16.25Q470.5-14.9 470.9-13.83 471.3-12.75 472.02-12 472.75-11.25 473.67-10.85 474.6-10.45 475.65-10.45ZM476.25 8.35L476.25 8.35Q478 8.35 479.42 7.93 480.85 7.5 481.85 6.83 482.85 6.15 483.4 5.25 483.95 4.35 483.95 3.4L483.95 3.4Q483.95 1.7 482.7 1.05 481.45 0.4 479.05 0.4L479.05 0.4 474.85 0.4Q474.15 0.4 473.32 0.33 472.5 0.25 471.7 0L471.7 0Q470.4 0.95 469.8 2 469.2 3.05 469.2 4.1L469.2 4.1Q469.2 6.05 471.07 7.2 472.95 8.35 476.25 8.35ZM507.19 0L503.04 0 503.04-32.8 521.94-32.8 521.94-29.3 507.19-29.3 507.19-18.2 519.69-18.2 519.69-14.7 507.19-14.7 507.19 0ZM533.64 0.6L533.64 0.6Q529.74 0.6 527.96-1.8 526.19-4.2 526.19-8.9L526.19-8.9 526.19-24.3 530.34-24.3 530.34-9.45Q530.34-6 531.41-4.48 532.49-2.95 534.89-2.95L534.89-2.95Q536.79-2.95 538.24-3.93 539.69-4.9 541.44-7.05L541.44-7.05 541.44-24.3 545.54-24.3 545.54 0 542.14 0 541.79-3.8 541.64-3.8Q539.94-1.8 538.06-0.6 536.19 0.6 533.64 0.6ZM561.38 0.6L561.38 0.6Q559.43 0.6 558.11 0 556.78-0.6 555.96-1.65 555.13-2.7 554.78-4.2 554.43-5.7 554.43-7.5L554.43-7.5 554.43-20.95 550.84-20.95 550.84-24.05 554.63-24.3 555.13-31.1 558.59-31.1 558.59-24.3 565.13-24.3 565.13-20.95 558.59-20.95 558.59-7.45Q558.59-5.2 559.41-3.98 560.24-2.75 562.34-2.75L562.34-2.75Q562.99-2.75 563.74-2.95 564.49-3.15 565.09-3.4L565.09-3.4 565.88-0.3Q564.88 0.05 563.71 0.33 562.53 0.6 561.38 0.6ZM577.73 0.6L577.73 0.6Q573.83 0.6 572.06-1.8 570.28-4.2 570.28-8.9L570.28-8.9 570.28-24.3 574.43-24.3 574.43-9.45Q574.43-6 575.51-4.48 576.58-2.95 578.98-2.95L578.98-2.95Q580.88-2.95 582.33-3.93 583.78-4.9 585.53-7.05L585.53-7.05 585.53-24.3 589.63-24.3 589.63 0 586.23 0 585.88-3.8 585.73-3.8Q584.03-1.8 582.16-0.6 580.28 0.6 577.73 0.6ZM601.93 0L597.83 0 597.83-24.3 601.23-24.3 601.58-19.9 601.73-19.9Q602.98-22.2 604.75-23.55 606.53-24.9 608.63-24.9L608.63-24.9Q610.08-24.9 611.23-24.4L611.23-24.4 610.43-20.8Q609.83-21 609.33-21.1 608.83-21.2 608.08-21.2L608.08-21.2Q606.53-21.2 604.85-19.95 603.18-18.7 601.93-15.6L601.93-15.6 601.93 0ZM624.53 0.6L624.53 0.6Q622.08 0.6 619.95-0.28 617.83-1.15 616.25-2.78 614.68-4.4 613.78-6.75 612.88-9.1 612.88-12.1L612.88-12.1Q612.88-15.1 613.8-17.48 614.73-19.85 616.25-21.5 617.78-23.15 619.73-24.03 621.68-24.9 623.78-24.9L623.78-24.9Q626.08-24.9 627.9-24.1 629.73-23.3 630.95-21.8 632.18-20.3 632.83-18.2 633.48-16.1 633.48-13.5L633.48-13.5Q633.48-12.85 633.45-12.23 633.43-11.6 633.33-11.15L633.33-11.15 616.93-11.15Q617.18-7.25 619.35-4.98 621.53-2.7 625.03-2.7L625.03-2.7Q626.78-2.7 628.25-3.23 629.73-3.75 631.08-4.6L631.08-4.6 632.53-1.9Q630.93-0.9 628.98-0.15 627.03 0.6 624.53 0.6ZM616.88-14.1L616.88-14.1 629.88-14.1Q629.88-17.8 628.3-19.73 626.73-21.65 623.88-21.65L623.88-21.65Q622.58-21.65 621.4-21.15 620.23-20.65 619.28-19.68 618.33-18.7 617.7-17.3 617.08-15.9 616.88-14.1ZM645.82 0.6L645.82 0.6Q643.22 0.6 640.87-0.35 638.52-1.3 636.77-2.75L636.77-2.75 638.82-5.5Q640.42-4.2 642.1-3.4 643.77-2.6 645.97-2.6L645.97-2.6Q648.37-2.6 649.57-3.7 650.77-4.8 650.77-6.4L650.77-6.4Q650.77-7.35 650.27-8.05 649.77-8.75 649-9.28 648.22-9.8 647.22-10.2 646.22-10.6 645.22-11L645.22-11Q643.92-11.45 642.62-12.03 641.32-12.6 640.3-13.43 639.27-14.25 638.62-15.35 637.97-16.45 637.97-18L637.97-18Q637.97-19.45 638.55-20.73 639.12-22 640.2-22.93 641.27-23.85 642.82-24.38 644.37-24.9 646.32-24.9L646.32-24.9Q648.62-24.9 650.55-24.1 652.47-23.3 653.87-22.15L653.87-22.15 651.92-19.55Q650.67-20.5 649.32-21.1 647.97-21.7 646.37-21.7L646.37-21.7Q644.07-21.7 643-20.65 641.92-19.6 641.92-18.2L641.92-18.2Q641.92-17.35 642.37-16.73 642.82-16.1 643.57-15.63 644.32-15.15 645.3-14.78 646.27-14.4 647.32-14L647.32-14Q648.62-13.5 649.95-12.95 651.27-12.4 652.32-11.58 653.37-10.75 654.05-9.55 654.72-8.35 654.72-6.65L654.72-6.65Q654.72-5.15 654.15-3.85 653.57-2.55 652.45-1.55 651.32-0.55 649.65 0.03 647.97 0.6 645.82 0.6ZM664.97-9.9L662.12-9.9 661.57-28.8 661.47-33.5 665.62-33.5 665.52-28.8 664.97-9.9ZM663.57 0.6L663.57 0.6Q662.32 0.6 661.45-0.28 660.57-1.15 660.57-2.5L660.57-2.5Q660.57-3.95 661.45-4.83 662.32-5.7 663.57-5.7L663.57-5.7Q664.77-5.7 665.65-4.83 666.52-3.95 666.52-2.5L666.52-2.5Q666.52-1.15 665.65-0.28 664.77 0.6 663.57 0.6Z" opacity="1" transform="matrix(1,0,0,1,0,0)" fill="#949494" class="slogan-text-1" data-fill-palette-color="secondary" id="text-1"></path></svg></g></svg></g></svg></g></svg></g><g><svg viewBox="0 0 244.43135999999996 141.77018879999994" height="141.77018879999994" width="244.43135999999996"><g><svg version="1.1" xmlns:rdf="http://www.w3.org/1999/02/22-rdf-syntax-ns#" xmlns:cc="http://creativecommons.org/ns#" xmlns:sodipodi="http://sodipodi.sourceforge.net/DTD/sodipodi-0.dtd" xmlns:dc="http://purl.org/dc/elements/1.1/" xmlns:inkscape="http://www.inkscape.org/namespaces/inkscape" xmlns:svg="http://www.w3.org/2000/svg" xmlns="http://www.w3.org/2000/svg" xmlns:xlink="http://www.w3.org/1999/xlink" x="0" y="0" viewBox="0 21 100 57.999999999999986" enable-background="new 0 21 100 58" xml:space="preserve" height="141.77018879999994" width="244.43135999999996" class="icon-icon-0" data-fill-palette-color="accent" id="icon-0"><path d="M98.031 36.094c-1.045-0.875-2.308-1.508-3.844-2.031l-33.75-11.5C57.365 21.515 53.689 21 50 21c-3.689 0-7.366 0.515-10.438 1.562l-33.75 11.5c-1.536 0.523-2.799 1.156-3.844 2.031S0 38.276 0 39.875s0.924 2.938 1.969 3.812 2.308 1.477 3.844 2l33.75 11.5c6.144 2.095 14.731 2.095 20.875 0l33.75-11.5c1.536-0.523 2.799-1.125 3.844-2S100 41.474 100 39.875 99.076 36.969 98.031 36.094zM92.438 40.594l-33.719 11.5c-4.473 1.524-12.966 1.524-17.438 0l-33.719-11.5c-0.724-0.247-1.244-0.498-1.625-0.719 0.381-0.221 0.903-0.473 1.625-0.719l33.719-11.5C43.517 26.894 46.762 26.5 50 26.5c3.238 0 6.482 0.394 8.719 1.156l33.719 11.5c0.723 0.246 1.244 0.498 1.625 0.719C93.682 40.096 93.162 40.347 92.438 40.594z" fill="#91abbb" data-fill-palette-color="accent"></path><path d="M76.25 64.062v2.094c0 0.398-0.217 1.002-1.281 1.906s-2.888 1.904-5.25 2.75c-4.725 1.692-11.574 2.812-19.188 2.812h-1.062c-7.613 0-14.46-1.119-19.188-2.812-2.363-0.846-4.186-1.846-5.25-2.75s-1.281-1.508-1.281-1.906v-2.094-6.75l-5.375-1.844v8.594 2.094c0 2.419 1.352 4.468 3.156 6s4.163 2.726 6.938 3.719c5.549 1.986 12.869 3.125 21 3.125h1.062c8.131 0 15.453-1.138 21-3.125 2.773-0.994 5.134-2.187 6.938-3.719s3.156-3.582 3.156-6v-2.094-8.594l-5.375 1.844V64.062z" fill="#91abbb" data-fill-palette-color="accent"></path></svg></g></svg></g></svg></g><defs></defs></svg><rect width="395.52" height="82.31757400279857" fill="none" stroke="none" visibility="hidden"></rect></g></svg></g></svg>